<svg xmlns="http://www.w3.org/2000/svg" viewBox="0 0 889 889"><path fill="#FF4F54" d="M874.079 556.066C812.467 793.315 570.196 935.703 332.936 874.09 95.688 812.479-46.7 570.202 14.913 332.948 76.531 95.694 318.807-46.693 556.062 14.919c237.248 61.619 379.635 303.9 318.017 541.147z"/><g fill="#EA4753"><path d="M9.341 532.241c126.187 4.236 468.79-7.76 859.148-219.067a446.132 446.132 0 0 0-69.225-135.357C672.484 265.041 382.541 426.912 2.465 404.2a440.879 440.879 0 0 0 6.876 128.041zM874.079 556.066c11.804-45.437 16.096-91.058 13.702-135.561-100.178 75.124-407.332 274.152-824.093 251.923 19.311 32.271 42.69 62.12 69.669 88.684 131.646.848 408.692-19.125 729.937-169.669a442.951 442.951 0 0 0 10.785-35.377zM413.297 887.292c105.15 7.532 207.122-22.978 289.517-81.888-83.026 34.232-180.422 64.587-289.517 81.888zM717.624 94.556c-46.438-36.278-100.891-63.875-161.563-79.637-213.355-55.404-430.749 54.18-517.188 249.35 145.486-4.978 394.965-36.378 678.751-169.713z"/></g><path fill="#D83A4E" d="M713.536 323.457c-11.692 45.039-57.691 72.073-102.738 60.375-45.041-11.699-72.069-57.691-60.376-102.732 11.699-45.047 57.698-72.075 102.739-60.376 45.04 11.699 72.074 57.692 60.375 102.733z"/><path d="M667.847 247.103c17.932 4.656 32.989 14.754 43.902 28.055-8.842-25.915-30.101-47.038-58.588-54.434-45.041-11.699-91.04 15.329-102.739 60.376-7.037 27.115-.024 54.563 16.485 74.685-5.145-15.075-6.091-31.746-1.793-48.306 11.699-45.041 57.692-72.076 102.733-60.376z" opacity=".1"/><path fill="#D83A4E" d="M436.188 512.306c-7.977 30.714-39.338 49.153-70.058 41.17-30.708-7.977-49.141-39.339-41.17-70.053 7.977-30.713 39.346-49.146 70.059-41.17 30.707 7.976 49.145 39.34 41.169 70.053z"/><path d="M405.036 460.241a57.177 57.177 0 0 1 29.928 19.132c-6.023-17.667-20.523-32.074-39.946-37.12-30.713-7.977-62.082 10.457-70.059 41.17-4.799 18.488-.019 37.206 11.241 50.921a57.196 57.196 0 0 1-1.224-32.933c7.978-30.714 39.34-49.146 70.06-41.17z" opacity=".1"/><path fill="#D83A4E" d="M633.484 122.085c-5.182 19.96-25.574 31.943-45.541 26.762-19.96-5.188-31.944-25.575-26.763-45.541 5.188-19.967 25.575-31.95 45.542-26.763 19.967 5.183 31.951 25.576 26.762 45.542z"/><path d="M613.233 88.237a37.21 37.21 0 0 1 19.46 12.435c-3.914-11.489-13.344-20.851-25.971-24.128-19.967-5.188-40.354 6.796-45.542 26.763-3.116 12.021-.012 24.196 7.31 33.106a37.182 37.182 0 0 1-.798-21.407c5.188-19.967 25.576-31.951 45.541-26.769z" opacity=".1"/><path fill="#D83A4E" d="M224.935 457.446c-7.977 30.713-39.339 49.146-70.052 41.17-30.714-7.977-49.141-39.334-41.164-70.054 7.971-30.713 39.333-49.146 70.047-41.169 30.713 7.977 49.146 39.339 41.169 70.053z"/><path d="M193.783 405.381c12.225 3.172 22.489 10.061 29.935 19.126-6.029-17.667-20.529-32.068-39.952-37.113-30.713-7.978-62.076 10.456-70.047 41.169-4.811 18.489-.024 37.2 11.229 50.922a57.202 57.202 0 0 1-1.218-32.934c7.977-30.714 39.339-49.147 70.053-41.17z" opacity=".1"/><path fill="#D83A4E" d="M424.674 785.196c-7.976 30.714-39.338 49.141-70.046 41.17-30.72-7.971-49.146-39.34-41.169-70.053 7.977-30.714 39.339-49.146 70.046-41.164 30.719 7.971 49.145 39.334 41.169 70.047z"/><path d="M393.522 733.138a57.238 57.238 0 0 1 29.94 19.125c-6.035-17.666-20.529-32.073-39.958-37.113-30.707-7.982-62.069 10.45-70.046 41.164-4.799 18.488-.025 37.212 11.229 50.928a57.204 57.204 0 0 1-1.212-32.934c7.977-30.72 39.34-49.147 70.047-41.17z" opacity=".1"/><path fill="#D83A4E" d="M637.3 749.165c-7.977 30.72-39.339 49.146-70.059 41.17-30.708-7.977-49.141-39.34-41.164-70.047 7.977-30.713 39.34-49.146 70.053-41.17 30.708 7.977 49.146 39.34 41.17 70.047z"/><path d="M606.147 697.106c12.219 3.172 22.483 10.061 29.929 19.125-6.023-17.672-20.523-32.073-39.946-37.113-30.713-7.977-62.076 10.457-70.053 41.17-4.805 18.482-.024 37.2 11.235 50.921a57.1 57.1 0 0 1-1.218-32.933c7.971-30.713 39.34-49.14 70.053-41.17z" opacity=".1"/><path fill="#D83A4E" d="M781.524 538.388c-4.563 17.58-22.521 28.129-40.094 23.565-17.58-4.569-28.123-22.514-23.56-40.094 4.563-17.579 22.508-28.122 40.094-23.559 17.574 4.564 28.124 22.514 23.56 40.088z"/><path d="M763.69 508.596a32.675 32.675 0 0 1 17.135 10.951c-3.45-10.116-11.748-18.365-22.86-21.246-17.586-4.563-35.53 5.979-40.094 23.559-2.745 10.58-.013 21.296 6.431 29.144a32.747 32.747 0 0 1-.698-18.848c4.556-17.581 22.513-28.13 40.086-23.56z" opacity=".1"/><path fill="#D83A4E" d="M370.853 157.195c-4.563 17.58-22.514 28.123-40.094 23.559-17.573-4.557-28.122-22.514-23.559-40.087 4.563-17.58 22.514-28.129 40.094-23.559 17.574 4.563 28.123 22.514 23.559 40.087z"/><path d="M353.026 127.403a32.709 32.709 0 0 1 17.129 10.945c-3.444-10.116-11.742-18.353-22.86-21.24-17.58-4.57-35.53 5.979-40.094 23.559-2.746 10.58-.013 21.296 6.431 29.143a32.735 32.735 0 0 1-.699-18.847c4.569-17.581 22.514-28.13 40.093-23.56z" opacity=".1"/><path fill="#D83A4E" d="M158.55 198.76c-2.399 9.238-11.823 14.779-21.062 12.38-9.226-2.399-14.766-11.829-12.367-21.055 2.393-9.232 11.823-14.772 21.055-12.373 9.232 2.393 14.772 11.822 12.374 21.048z"/><path d="M149.188 183.116a17.173 17.173 0 0 1 8.997 5.75c-1.812-5.317-6.171-9.639-12.008-11.154-9.232-2.399-18.662 3.14-21.055 12.373-1.447 5.559-.013 11.186 3.376 15.304a17.226 17.226 0 0 1-.371-9.899c2.399-9.233 11.829-14.773 21.061-12.374z" opacity=".1"/><path fill="#D83A4E" d="M863.054 434.907c-2.394 9.226-11.823 14.778-21.055 12.379-9.238-2.398-14.779-11.828-12.38-21.061 2.399-9.226 11.829-14.772 21.062-12.373 9.231 2.4 14.765 11.823 12.373 21.055z"/><path d="M853.691 419.263a17.189 17.189 0 0 1 8.997 5.745c-1.812-5.312-6.171-9.641-12.008-11.155-9.232-2.399-18.662 3.147-21.062 12.373-1.44 5.559 0 11.186 3.376 15.311a17.181 17.181 0 0 1-.358-9.9c2.394-9.233 11.824-14.773 21.055-12.374z" opacity=".1"/><path fill="#D83A4E" d="M131.985 586.786c-2.399 9.227-11.823 14.767-21.055 12.367-9.232-2.393-14.772-11.822-12.373-21.055 2.399-9.232 11.823-14.772 21.055-12.373 9.232 2.393 14.772 11.823 12.373 21.061z"/><path d="M122.623 571.13a17.252 17.252 0 0 1 8.997 5.75c-1.812-5.317-6.171-9.64-12.008-11.154-9.232-2.399-18.656 3.141-21.055 12.373-1.447 5.559-.012 11.186 3.376 15.304a17.21 17.21 0 0 1-.371-9.894c2.399-9.238 11.829-14.779 21.061-12.379z" opacity=".1"/><path fill="#D83A4E" d="M257.435 743.477c-2.398 9.226-11.828 14.766-21.061 12.373-9.232-2.399-14.772-11.829-12.379-21.062 2.398-9.231 11.828-14.771 21.061-12.373 9.233 2.399 14.773 11.823 12.379 21.062z"/><path d="M248.068 727.819a17.221 17.221 0 0 1 8.997 5.751c-1.813-5.312-6.172-9.64-12.009-11.155-9.232-2.398-18.662 3.142-21.061 12.373-1.441 5.56 0 11.187 3.376 15.311a17.16 17.16 0 0 1-.358-9.899c2.393-9.239 11.822-14.767 21.055-12.381z" opacity=".1"/><path opacity=".1" d="M727.542 102.539c30.398 82.135 36.885 174.059 13.202 265.266-61.612 237.248-303.889 379.629-541.143 318.022-65.05-16.899-122.946-47.39-171.48-87.62C76.81 729.749 186.882 836.161 332.936 874.091c237.26 61.612 479.531-80.775 541.143-318.024 44.725-172.204-18.05-347.036-146.537-453.528z"/><linearGradient id="a" gradientUnits="userSpaceOnUse" x1="444.5" y1="889.006" x2="444.5"><stop offset="0" stop-color="#190629"/><stop offset=".253" stop-color="#1c092b" stop-opacity=".828"/><stop offset=".425" stop-color="#241233" stop-opacity=".711"/><stop offset=".441" stop-color="#251334" stop-opacity=".7"/><stop offset=".493" stop-color="#2b1a3a" stop-opacity=".634"/><stop offset=".568" stop-color="#3d2d4a" stop-opacity=".54"/><stop offset=".657" stop-color="#5a4c65" stop-opacity=".429"/><stop offset=".757" stop-color="#82788a" stop-opacity=".304"/><stop offset=".865" stop-color="#b5afba" stop-opacity=".169"/><stop offset=".98" stop-color="#f3f2f4" stop-opacity=".026"/><stop offset="1" stop-color="#fff" stop-opacity="0"/></linearGradient><path fill="url(#a)" d="M874.629 556.196C812.93 793.742 570.352 936.315 332.788 874.635 95.252 812.936-47.315 570.345 14.375 332.8 76.074 95.255 318.659-47.315 556.21 14.375c237.533 61.699 380.1 304.283 318.419 541.821z"/></svg>
