<svg xmlns="http://www.w3.org/2000/svg" width="320" height="296">
  <g>
    <g class="pravanoha">
      <path fill="#445207" d="M93.831 284.122h40.461c6.435 0 11.65 5.215 11.65 11.649H82.18c0-6.434 5.216-11.649 11.651-11.649z"/>
      <path fill="#121100" d="M81.516 290.539h6.469a5.234 5.234 0 0 1 5.235 5.232H76.28a5.234 5.234 0 0 1 5.236-5.232z"/>
      <path fill="#637500" d="M128.363 162.858l.001-.015h39.014c9.729 0 17.615 7.887 17.615 17.617 0 .301-.029.59-.044.891h.044c0 20.661-16.582 37.438-37.162 37.785H137.08l3.654 3.653.438.438c15.211 15.211 15.211 39.872 0 55.081-.434.432-4.802 4.739-9.093 8.969a11.594 11.594 0 0 0-3.696 8.493h-25.229a17.886 17.886 0 0 1 5.255-12.703l.2-.201 18.503-19.051c2.936-2.938 2.799-7.92-.054-10.669-18.139-17.485-33.229-35.976-33.229-55.179s15.41-34.788 34.534-35.109z"/>
    </g>
    <g class="pravaruka">
      <path fill="#111000" d="M21.432 114.896l-5.24 7.312a6.844 6.844 0 0 1-1.576-9.551l1.25-1.749 5.566 3.988z"/>
      <path fill="#637500" d="M27.9 119.529l-12.035-8.622c3.746-5.229 11.025-6.432 16.255-2.686l2.971 2.128-.004.008a5.43 5.43 0 0 1 1.901 2.414l6.465 16.082 39.332-6.498a8.581 8.581 0 0 1 9.865 7.067 8.578 8.578 0 0 1-7.066 9.862l-39.906 6.592c-4.347.72-8.463-1.965-9.645-6.099L27.9 119.529z"/>
    </g>
    <g fill="#4B5A00" class="supinynazadech">
      <path d="M62.148 10.732H51.416C51.416 4.806 56.219 0 62.148 0v10.732zM140.14 122.199h-10.73c0-5.926 4.804-10.731 10.729-10.731v10.731zM157.813 122.199h-10.73c0-5.926 4.804-10.731 10.73-10.731v10.731zM175.484 122.199h-10.732c0-5.926 4.807-10.731 10.732-10.731v10.731zM193.158 122.199h-10.732c0-5.926 4.805-10.731 10.732-10.731v10.731zM210.83 122.199h-10.731c0-5.926 4.803-10.731 10.731-10.731v10.731zM228.503 122.199h-10.732c0-5.926 4.804-10.731 10.732-10.731v10.731zM255.975 122.199h-7.035a7.035 7.035 0 0 1 7.035-7.037v7.037zM242.128 122.199h-7.038a7.036 7.036 0 0 1 7.038-7.037v7.037zM269.825 122.199h-7.036a7.036 7.036 0 0 1 7.036-7.037v7.037zM283.675 122.199h-7.036a7.036 7.036 0 0 1 7.036-7.037v7.037zM297.524 122.199h-7.036a7.034 7.034 0 0 1 7.036-7.037v7.037zM110.696 57.387v-10.73c5.927 0 10.73 4.805 10.73 10.73h-10.73zM110.696 75.852V65.119c5.927 0 10.73 4.805 10.73 10.732h-10.73zM110.696 94.315V83.583c5.927 0 10.73 4.805 10.73 10.732h-10.73zM79.313 10.732H68.58C68.58 4.806 73.385 0 79.313 0v10.732zM106.492 25.682l-6.996-8.136c4.493-3.866 11.268-3.356 15.135 1.137l-8.139 6.999zM118.48 115.162l-6.96-8.17c4.513-3.843 11.284-3.305 15.128 1.207l-8.168 6.963zM111.111 40.417l-2.545-10.424c5.758-1.403 11.565 2.121 12.972 7.88l-10.427 2.544zM95.53 14.634l-10.094-3.646c2.015-5.578 8.166-8.462 13.741-6.45L95.53 14.634z"/>
    </g>
    <path fill="#637500" d="M32.524 9.607H79.424l-.111 42.845H.001v-10.32c0-17.965 14.562-32.525 32.523-32.525z"/>
    <path class="telo" fill="#799100" d="M37.514 52.453v-10.32c0-2.328.25-4.597.714-6.788C40.452 20.639 49.754 9.607 60.896 9.607c.152 0 18.519.003 18.73.006h.488v.011c17.444.595 31.405 14.922 31.405 32.508v54.659c0 14.032 11.374 25.407 25.406 25.407h162.114c11.481 0 20.789 9.288 20.828 20.758H254.76c-11.445 0-20.725 9.28-20.725 20.726v-2.755c0 27.754-22.501 50.254-50.26 50.254h-45.691c-49.143 0-79.243-39.838-79.243-88.982h.041V87.858c-.369-13.708-11.59-24.71-25.389-24.71V52.453h4.021z"/>
    <path fill="#2B3200" d="M19.86 21.368a2.37 2.37 0 1 0 4.743 0 2.371 2.371 0 1 0-4.743 0z"/>
    <path fill="#4B5A00" d="M17.373 20.965a5.512 5.512 0 0 0 8.578 4.579 5.502 5.502 0 0 1-4.754 2.734 5.509 5.509 0 0 1-5.509-5.512c0-1.908.971-3.586 2.443-4.579a5.514 5.514 0 0 0-.758 2.778z"/>
    <g class="celist">
      <g fill="#FFF">
        <path d="M29.456 52.453l3.303-5.094c.081-.123.222-.123.301 0l3.304 5.094h-6.908zM20.475 52.453l3.302-5.094c.082-.123.223-.123.301 0l3.305 5.094h-6.908zM11.491 52.453l3.304-5.094c.081-.123.223-.123.301 0l3.303 5.094h-6.908zM2.512 52.453l3.302-5.094c.079-.123.222-.123.302 0l3.304 5.094H2.512z"/>
      </g>
        <path fill="#4B5A00" d="M55.752 52.453c5.657 0 10.247-4.587 10.247-10.249v-.071c0-6.862 5.561-12.422 12.419-12.422.084 0 .163.005.246.005h3c.059-.005.117-.005.175-.005.081 0 .162 0 .241.005h.188v.003c6.663.227 11.992 5.696 11.992 12.414v10.32c0 5.908-4.788 10.695-10.694 10.695h-72.87C4.79 63.148.001 58.361.001 52.453h55.751z"/>
      <g fill="#657B00" opacity=".4"></g>
    </g>
    <path d="M214.998 122.199l-8.326 37.295-8.33-37.295zM291.489 122.199l-3.909 17.495-3.905-17.495zM277.373 122.199l-3.908 17.495-3.907-17.495zM263.253 122.199l-3.904 17.495-3.907-17.495zM249.139 122.199l-3.907 17.495-3.908-17.495zM235.022 122.199l-3.908 17.495-3.906-17.495zM181.553 122.199l-8.328 37.295-8.329-37.295zM148.104 122.199l-8.329 37.295-8.326-37.295zM111.521 84.488L98.206 80.17l13.315-4.318zM111.521 66.026l-13.315-4.318 13.315-4.321zM111.521 47.562l-13.315-4.318 13.315-4.319z"/>
    <g class="levanoha">
      <path fill="#4B5907" d="M130.638 284.122h40.461c6.435 0 11.65 5.215 11.65 11.649h-63.763c0-6.434 5.217-11.649 11.652-11.649z"/>
      <path fill="#121100" d="M118.322 290.539h6.471a5.232 5.232 0 0 1 5.233 5.232h-16.939a5.233 5.233 0 0 1 5.235-5.232z"/>
      <path fill="#637500" d="M165.171 162.858v-.015h39.013c9.731 0 17.618 7.887 17.618 17.617 0 .301-.029.59-.047.891h.047c0 20.661-16.582 37.438-37.164 37.785h-10.75l3.655 3.653.437.438c15.209 15.211 15.209 39.872 0 55.081-.434.432-4.804 4.739-9.095 8.969-2.267 2.124-3.696 5.14-3.696 8.493h-25.226a17.872 17.872 0 0 1 5.254-12.703l.2-.201 18.503-19.051c2.935-2.938 2.8-7.92-.054-10.669-18.139-17.485-33.229-35.976-33.229-55.179s15.409-34.788 34.534-35.109z"/>
    </g>
    <path fill="#637500" d="M64.556 4.185c9.35-1.957 18.108 2.095 19.563 9.051 1.455 6.951-4.943 14.173-14.293 16.131-9.35 1.957-18.108-2.095-19.563-9.046-1.455-6.956 4.942-14.178 14.293-16.136z"/>
    <g>
      <path fill="#2C3304" d="M55.136 18.188a8.225 8.225 0 0 0 16.45 0 8.226 8.226 0 0 0-8.225-8.225 8.226 8.226 0 0 0-8.225 8.225z"/>
      <path fill="#DEDA00" d="M58.068 18.188a5.293 5.293 0 1 0 5.292-5.29 5.29 5.29 0 0 0-5.292 5.29z"/>
      <path fill="#121100" d="M60.758 18.188a2.604 2.604 0 1 0 5.207 0 2.604 2.604 0 0 0-5.207 0z"/>
      <circle cx="65.321" cy="16.48" r="1.709" fill="#FFF"/>
    </g>
    <g class="levaruka">
      <path fill="#111000" d="M29.355 162.844l1.203 8.912a6.846 6.846 0 0 1-7.702-5.867l-.286-2.128 6.785-.917z"/>
      <path fill="#637500" d="M37.239 161.778L22.57 163.76c-.862-6.375 3.608-12.247 9.986-13.104l3.62-.49v.007a5.479 5.479 0 0 1 3.04.449l15.736 7.271 24.163-31.709a8.58 8.58 0 1 1 13.647 10.4l-24.514 32.17c-2.67 3.502-7.506 4.375-11.203 2.176l-19.806-9.152z"/>
    </g>
  </g>
</svg>
