<?xml version="1.0" encoding="utf-8"?>
<!-- Generator: Adobe Illustrator 16.0.0, SVG Export Plug-In . SVG Version: 6.00 Build 0)  -->
<!DOCTYPE svg PUBLIC "-//W3C//DTD SVG 1.1//EN" "http://www.w3.org/Graphics/SVG/1.1/DTD/svg11.dtd">
<svg version="1.1" id="Layer_1" xmlns="http://www.w3.org/2000/svg" xmlns:xlink="http://www.w3.org/1999/xlink" x="0px" y="0px"
	 width="279px" height="334px" viewBox="0 0 279 334" enable-background="new 0 0 279 334" xml:space="preserve">
<g>
	<g>
		<path fill="#54556A" d="M69.747,252.625c-0.837,0-1.691-0.201-2.481-0.627L31.082,232.51c-2.549-1.373-3.502-4.555-2.13-7.105
			c1.375-2.553,4.56-3.502,7.105-2.129l36.184,19.486c2.549,1.373,3.502,4.553,2.13,7.105
			C73.421,251.625,71.616,252.625,69.747,252.625z"/>
		<path fill="#797B97" d="M69.747,249.629c-0.37,0-0.729-0.09-1.062-0.27l-36.179-19.488c-1.092-0.586-1.503-1.953-0.916-3.043
			c0.393-0.732,1.155-1.184,1.988-1.184c0.37,0,0.725,0.09,1.058,0.27l36.183,19.484c0.527,0.287,0.912,0.762,1.084,1.338
			c0.176,0.57,0.112,1.182-0.172,1.711C71.339,249.176,70.58,249.629,69.747,249.629z"/>
	</g>
	<g>
		<path fill="#54556A" d="M209.249,252.625c-1.869,0-3.676-1-4.625-2.758c-1.371-2.553-0.418-5.732,2.132-7.105l36.184-19.486
			c2.549-1.377,5.729-0.424,7.104,2.129c1.372,2.551,0.419,5.732-2.13,7.105l-36.184,19.488
			C210.941,252.424,210.09,252.625,209.249,252.625z"/>
		<path fill="#797B97" d="M209.249,249.629c-0.83,0-1.593-0.453-1.985-1.186c-0.587-1.092-0.176-2.455,0.912-3.045l36.184-19.484
			c0.333-0.18,0.688-0.271,1.062-0.271c0.829,0,1.592,0.453,1.984,1.186c0.587,1.09,0.176,2.457-0.912,3.043l-36.184,19.488
			C209.978,249.539,209.622,249.629,209.249,249.629z"/>
	</g>
	<g>
		<path fill="#54556A" d="M12.625,331.051c-0.362,0-0.732-0.039-1.103-0.117c-2.833-0.607-4.638-3.396-4.033-6.227l24.724-115.541
			c2.108-9.855,10.951-17.002,21.027-17.002h6.335c2.897,0,5.244,2.346,5.244,5.242s-2.347,5.246-5.244,5.246h-6.335
			c-5.162,0-9.691,3.664-10.771,8.709L17.75,326.902C17.223,329.365,15.044,331.051,12.625,331.051z"/>
		<path fill="#797B97" d="M12.614,328.053c-0.153,0-0.307-0.016-0.459-0.051c-0.591-0.125-1.095-0.471-1.42-0.977
			c-0.329-0.502-0.438-1.104-0.314-1.693l24.724-115.539c1.816-8.479,9.426-14.633,18.097-14.633h6.335
			c1.237,0,2.247,1.006,2.247,2.246c0,1.242-1.009,2.248-2.247,2.248h-6.335c-6.567,0-12.327,4.66-13.702,11.08l-24.72,115.541
			c-0.224,1.031-1.144,1.777-2.194,1.777H12.614z"/>
	</g>
	<path fill="#FDB70B" d="M17.997,333.797H7.244c-4,0-7.244-3.244-7.244-7.242l0,0c0-4.002,3.244-7.246,7.244-7.246h10.753
		c3.999,0,7.243,3.244,7.243,7.246l0,0C25.24,330.553,21.996,333.797,17.997,333.797z"/>
	<g>
		<path fill="#54556A" d="M266.37,331.051c-2.419,0-4.598-1.686-5.125-4.148l-24.72-115.541c-1.08-5.045-5.61-8.709-10.771-8.709
			h-6.332c-2.896,0-5.247-2.35-5.247-5.246s2.351-5.242,5.247-5.242h6.332c10.076,0,18.919,7.146,21.027,17.002l24.724,115.541
			c0.605,2.83-1.199,5.619-4.032,6.227C267.103,331.01,266.736,331.051,266.37,331.051z"/>
		<path fill="#797B97" d="M266.37,328.053c-1.051,0-1.97-0.746-2.19-1.777l-24.724-115.541c-1.372-6.42-7.136-11.08-13.702-11.08
			h-6.332c-1.24,0-2.25-1.006-2.25-2.248c0-1.24,1.01-2.246,2.25-2.246h6.332c8.671,0,16.284,6.154,18.097,14.633l24.725,115.539
			c0.123,0.59,0.011,1.191-0.311,1.693c-0.329,0.506-0.83,0.852-1.416,0.977C266.688,328.037,266.53,328.053,266.37,328.053z"/>
	</g>
	<path fill="#FDB70B" d="M260.999,333.797h10.753c3.999,0,7.243-3.244,7.243-7.242l0,0c0-4.002-3.244-7.246-7.243-7.246h-10.753
		c-3.999,0-7.243,3.244-7.243,7.246l0,0C253.756,330.553,257,333.797,260.999,333.797z"/>
	<path fill="#D27800" d="M225.421,153.973v71.424H53.582v-71.424c0-7.789,1.211-15.313,3.461-22.357
		c9.471-29.625,37.207-51.071,69.967-51.071h24.982c32.756,0,60.498,21.446,69.954,51.071
		C224.206,138.66,225.421,146.184,225.421,153.973z"/>
	<path fill="#E99A00" d="M225.421,153.973v71.424H76.807v-71.424c0-7.789,1.214-15.313,3.465-22.357
		c9.467-29.625,37.207-51.071,69.967-51.071h1.753c1.664,0,3.297,0.06,4.93,0.165c30.584,2.026,56.046,22.781,65.023,50.906
		C224.206,138.66,225.421,146.184,225.421,153.973z"/>
	<path fill="#414252" d="M110.527,145.477h57.943c7.173,0,12.988,5.814,12.988,12.988V225.4h-83.92v-66.936
		C97.539,151.291,103.351,145.477,110.527,145.477z"/>
	<g>
		<g>
			<path fill="#797B97" d="M105.029,210.094c1.45,0,2.624,1.172,2.624,2.623c0,1.447-1.174,2.619-2.624,2.619
				c-1.446,0-2.62-1.172-2.62-2.619C102.409,211.266,103.583,210.094,105.029,210.094z"/>
		</g>
		<g>
			<path fill="#797B97" d="M105.029,194.785c1.45,0,2.624,1.172,2.624,2.621s-1.174,2.623-2.624,2.623
				c-1.446,0-2.62-1.174-2.62-2.623S103.583,194.785,105.029,194.785z"/>
		</g>
		<g>
			<path fill="#797B97" d="M105.029,179.479c1.45,0,2.624,1.174,2.624,2.619c0,1.451-1.174,2.623-2.624,2.623
				c-1.446,0-2.62-1.172-2.62-2.623C102.409,180.652,103.583,179.479,105.029,179.479z"/>
		</g>
		<g>
			<path fill="#797B97" d="M105.029,164.169c1.45,0,2.624,1.173,2.624,2.624c0,1.447-1.174,2.621-2.624,2.621
				c-1.446,0-2.62-1.174-2.62-2.621C102.409,165.342,103.583,164.169,105.029,164.169z"/>
		</g>
		<g>
			<circle fill="#797B97" cx="124.19" cy="152.971" r="2.622"/>
		</g>
		<g>
			<circle fill="#797B97" cx="107.653" cy="152.971" r="2.624"/>
		</g>
		<g>
			<circle fill="#797B97" cx="139.499" cy="152.971" r="2.622"/>
		</g>
		<g>
			<circle fill="#797B97" cx="154.806" cy="152.971" r="2.624"/>
		</g>
		<g>
			<circle fill="#797B97" cx="170.592" cy="152.971" r="2.622"/>
		</g>
		<g>
			<path fill="#797B97" d="M173.965,169.414c-1.45,0-2.624-1.174-2.624-2.621c0-1.451,1.174-2.624,2.624-2.624
				c1.446,0,2.624,1.173,2.624,2.624C176.589,168.24,175.411,169.414,173.965,169.414z"/>
		</g>
		<g>
			<path fill="#797B97" d="M173.965,184.721c-1.45,0-2.624-1.172-2.624-2.623c0-1.445,1.174-2.619,2.624-2.619
				c1.446,0,2.624,1.174,2.624,2.619C176.589,183.549,175.411,184.721,173.965,184.721z"/>
		</g>
		<g>
			<path fill="#797B97" d="M173.965,200.029c-1.45,0-2.624-1.174-2.624-2.623s1.174-2.621,2.624-2.621
				c1.446,0,2.624,1.172,2.624,2.621S175.411,200.029,173.965,200.029z"/>
		</g>
		<g>
			<path fill="#797B97" d="M173.965,215.336c-1.45,0-2.624-1.172-2.624-2.619c0-1.451,1.174-2.623,2.624-2.623
				c1.446,0,2.624,1.172,2.624,2.623C176.589,214.164,175.411,215.336,173.965,215.336z"/>
		</g>
	</g>
	<path fill="#54556A" d="M167.966,164.21v61.187h-56.945V164.21c0-2.653,2.157-4.81,4.811-4.81h47.34
		C165.821,159.4,167.966,161.557,167.966,164.21z"/>
	<path fill="#797B97" d="M167.966,164.21v61.187h-42.335V164.21c0-2.653,2.157-4.81,4.81-4.81h32.73
		C165.821,159.4,167.966,161.557,167.966,164.21z"/>
	<path fill="#93A8A9" d="M159.355,184.066c0,10.965-8.892,19.855-19.858,19.855c-10.966,0-19.855-8.891-19.855-19.855
		c0-10.969,8.89-19.856,19.855-19.856C150.463,164.21,159.355,173.098,159.355,184.066z"/>
	<path fill="#05BBCF" d="M154.104,184.066c0,4.107-1.695,7.838-4.437,10.475c-2.635,2.563-6.219,4.137-10.175,4.137
		c-8.06,0-14.608-6.551-14.608-14.611c0-7.883,6.264-14.313,14.068-14.598c0.183-0.016,0.362-0.016,0.54-0.016
		C147.57,169.453,154.104,176.002,154.104,184.066z"/>
	<path fill="#61E5EC" d="M154.104,184.066c0,4.107-1.695,7.838-4.437,10.475c-0.179,0.016-0.374,0.016-0.553,0.016
		c-8.062,0-14.61-6.549-14.61-14.611c0-4.107,1.708-7.838,4.448-10.477c0.183-0.016,0.362-0.016,0.54-0.016
		C147.57,169.453,154.104,176.002,154.104,184.066z"/>
	<g>
		<path fill="#414252" d="M225.421,153.973v71.424H198.88v-83.844c0-5.486,4.437-9.938,9.92-9.938h13.146
			C224.206,138.66,225.421,146.184,225.421,153.973z"/>
		<path fill="#414252" d="M80.119,141.553v83.844H53.582v-71.424c0-7.789,1.211-15.313,3.461-22.357h13.141
			C75.671,131.615,80.119,136.066,80.119,141.553z"/>
	</g>
	<g>
		<g>
			<g>
				<path fill="#797B97" d="M211.865,152.22c-1.447,0-2.62-1.171-2.62-2.62s1.173-2.623,2.62-2.623c1.45,0,2.623,1.174,2.623,2.623
					S213.315,152.22,211.865,152.22z"/>
			</g>
			<g>
				<path fill="#797B97" d="M211.865,162.338c-1.447,0-2.62-1.174-2.62-2.624c0-1.446,1.173-2.624,2.62-2.624
					c1.45,0,2.623,1.178,2.623,2.624C214.488,161.164,213.315,162.338,211.865,162.338z"/>
			</g>
			<g>
				<path fill="#797B97" d="M211.865,172.451c-1.447,0-2.62-1.174-2.62-2.621c0-1.449,1.173-2.623,2.62-2.623
					c1.45,0,2.623,1.174,2.623,2.623C214.488,171.277,213.315,172.451,211.865,172.451z"/>
			</g>
			<g>
				<path fill="#797B97" d="M211.865,182.564c-1.447,0-2.62-1.174-2.62-2.619c0-1.451,1.173-2.623,2.62-2.623
					c1.45,0,2.623,1.172,2.623,2.623C214.488,181.391,213.315,182.564,211.865,182.564z"/>
			</g>
			<g>
				<path fill="#797B97" d="M211.865,192.684c-1.447,0-2.62-1.174-2.62-2.625c0-1.445,1.173-2.619,2.62-2.619
					c1.45,0,2.623,1.174,2.623,2.619C214.488,191.51,213.315,192.684,211.865,192.684z"/>
			</g>
			<g>
				<path fill="#797B97" d="M211.865,202.797c-1.447,0-2.62-1.174-2.62-2.621s1.173-2.623,2.62-2.623
					c1.45,0,2.623,1.176,2.623,2.623S213.315,202.797,211.865,202.797z"/>
			</g>
			<g>
				<path fill="#797B97" d="M211.865,212.914c-1.447,0-2.62-1.176-2.62-2.623c0-1.449,1.173-2.625,2.62-2.625
					c1.45,0,2.623,1.176,2.623,2.625C214.488,211.738,213.315,212.914,211.865,212.914z"/>
			</g>
		</g>
		<g>
			<g>
				<circle fill="#797B97" cx="67.13" cy="149.598" r="2.622"/>
			</g>
			<g>
				<path fill="#797B97" d="M67.13,162.338c-1.45,0-2.624-1.174-2.624-2.624c0-1.446,1.173-2.624,2.624-2.624
					c1.446,0,2.624,1.178,2.624,2.624C69.754,161.164,68.577,162.338,67.13,162.338z"/>
			</g>
			<g>
				<circle fill="#797B97" cx="67.13" cy="169.829" r="2.622"/>
			</g>
			<g>
				<path fill="#797B97" d="M67.13,182.564c-1.45,0-2.624-1.174-2.624-2.619c0-1.451,1.173-2.623,2.624-2.623
					c1.446,0,2.624,1.172,2.624,2.623C69.754,181.391,68.577,182.564,67.13,182.564z"/>
			</g>
			<g>
				<path fill="#797B97" d="M67.13,192.684c-1.45,0-2.624-1.174-2.624-2.625c0-1.445,1.173-2.619,2.624-2.619
					c1.446,0,2.624,1.174,2.624,2.619C69.754,191.51,68.577,192.684,67.13,192.684z"/>
			</g>
			<g>
				<circle fill="#797B97" cx="67.13" cy="200.175" r="2.622"/>
			</g>
			<g>
				<circle fill="#797B97" cx="67.13" cy="210.29" r="2.624"/>
			</g>
		</g>
	</g>
	<g>
		<path fill="#414252" d="M152.231,80.544c0,1.604-0.301,3.132-0.841,4.543c-1.828,4.795-6.458,8.197-11.898,8.197
			c-7.029,0-12.736-5.709-12.736-12.74c0-4.496,2.321-8.436,5.842-10.712c1.981-1.276,4.347-2.024,6.894-2.024
			C146.535,67.809,152.231,73.518,152.231,80.544z"/>
		<path fill="#797B97" d="M152.231,80.544c0,1.604-0.301,3.132-0.841,4.543c-1.977,1.273-4.343,2.021-6.892,2.021
			c-7.027,0-12.739-5.692-12.739-12.736c0-1.605,0.301-3.134,0.839-4.54c1.981-1.276,4.347-2.024,6.894-2.024
			C146.535,67.809,152.231,73.518,152.231,80.544z"/>
	</g>
	<g>
		<path fill="#414252" d="M146.057,63.922c0,0.577-0.108,1.126-0.303,1.631c-0.658,1.723-2.321,2.945-4.272,2.945
			c-2.527,0-4.575-2.052-4.575-4.577c0-1.615,0.832-3.031,2.097-3.848c0.71-0.459,1.562-0.727,2.478-0.727
			C144.012,59.347,146.057,61.399,146.057,63.922z"/>
		<path fill="#797B97" d="M146.057,63.922c0,0.577-0.108,1.126-0.303,1.631c-0.71,0.456-1.559,0.725-2.474,0.725
			c-2.527,0-4.575-2.042-4.575-4.575c0-0.576,0.105-1.125,0.299-1.63c0.71-0.459,1.562-0.727,2.478-0.727
			C144.012,59.347,146.057,61.399,146.057,63.922z"/>
	</g>
	<path fill="#414252" d="M215.427,225.396v21.488c0,7.162-5.815,12.977-12.996,12.977H76.553c-7.161,0-12.977-5.814-12.977-12.977
		v-21.488H215.427z"/>
	<path fill="#4F5063" d="M215.427,225.396v21.488c0,7.162-5.815,12.977-12.996,12.977H89.291c-7.161,0-12.977-5.814-12.977-12.977
		v-21.488H215.427z"/>
	<path fill="#54556A" d="M215.427,225.396v21.488c0,7.162-5.815,12.977-12.996,12.977h-85.385c-7.18,0-12.995-5.814-12.995-12.977
		v-21.488H215.427z"/>
	<rect x="186.953" y="225.396" fill="#797B97" width="10.986" height="34.465"/>
	<circle fill="#B7FAFF" cx="142.681" cy="180.51" r="3.189"/>
	<g>
		<path fill="#BA2A2C" d="M179.563,24.32l-16.232,16.707l-8.167-7.931l16.232-16.707c2.197-2.261,5.801-2.313,8.051-0.127
			l0.011,0.011c0.732,0.714,1.241,1.596,1.507,2.526C181.5,20.68,181.034,22.807,179.563,24.32z"/>
		<path fill="#F0373A" d="M179.563,24.32l-16.232,16.707l-4.078-3.958l16.232-16.707c1.473-1.516,3.584-2.041,5.479-1.563
			C181.5,20.68,181.034,22.807,179.563,24.32z"/>
		<path fill="#86A0D7" d="M196.925,57.8c-5.86,5.542-12.958,9.06-20.385,10.527c-0.295,0.06-0.612,0.119-0.919,0.168
			c-12.663,2.224-26.205-1.469-36.129-11.11C123.485,41.833,122.704,16.498,137.434,0L196.925,57.8z"/>
		<path fill="#A0B9F0" d="M196.925,57.8c-5.86,5.542-12.958,9.06-20.385,10.527c-0.295,0.06-0.612,0.119-0.919,0.168
			c-10.563,0.11-21.163-3.801-29.329-11.736c-14.726-14.304-16.565-36.901-5.27-53.277L196.925,57.8z"/>
		<path fill="#C2D3F8" d="M196.925,57.8c-5.86,5.542-12.958,9.06-20.385,10.527c-8.2-1.275-16.086-5.016-22.478-11.228
			c-13.41-13.031-16.135-32.913-8.006-48.723L196.925,57.8z"/>
	</g>
</g>
</svg>
