<svg xmlns="http://www.w3.org/2000/svg" xmlns:xlink="http://www.w3.org/1999/xlink" x="0px" y="0px"
     width="243px" height="154px" viewBox="0 0 243 154">
<g class="car">
	<g>
		<path fill="#86A0D7" d="M172.186,88.406v35.519c0,0.431-0.029,0.842-0.092,1.252c-0.269,1.683-1.058,3.2-2.186,4.37
			c-1.469,1.519-3.52,2.464-5.797,2.464H26.367c-4.451,0-8.073-3.623-8.073-8.086V88.406H172.186z"/>
    <path fill="#A0B9F0" d="M172.186,88.406v35.519c0,0.431-0.029,0.842-0.092,1.252c-0.269,1.683-1.058,3.2-2.186,4.37H28.679
			c-4.456,0-8.075-3.622-8.075-8.086V88.406H172.186z"/>
    <path fill="#C2D3F8" d="M172.186,88.406v35.519c0,0.431-0.029,0.842-0.092,1.252H27.262c-1.715,0-3.098-1.388-3.098-3.099V88.406
			H172.186z"/>
    <g>
			<path fill="#414252" d="M116.683,136.292v-8.568h-3.522c-0.461-1.918-1.213-3.72-2.219-5.356l2.492-2.493l-6.061-6.06
				l-2.493,2.493c-1.633-1.005-3.436-1.758-5.353-2.217v-3.523h-8.572v3.523c-1.919,0.459-3.722,1.212-5.358,2.217l-2.49-2.493
				l-6.059,6.06l2.491,2.493c-1.004,1.637-1.761,3.438-2.217,5.356h-3.524v8.568h3.524c0.456,1.923,1.213,3.723,2.217,5.356
				l-2.491,2.494l6.059,6.059l2.49-2.49c1.637,1.004,3.439,1.758,5.358,2.217v3.525h8.572v-3.525
				c1.917-0.459,3.72-1.213,5.353-2.217l2.493,2.49l6.061-6.059l-2.492-2.494c1.006-1.634,1.758-3.434,2.219-5.356H116.683z"/>
      <path fill="#414252" d="M114.628,129.771v4.474h-1.465c-0.953,0-1.784,0.647-1.999,1.568c-0.4,1.696-1.068,3.295-1.971,4.76
				c-0.493,0.813-0.371,1.861,0.298,2.524l0.233,0.236l0.802,0.813l-3.15,3.16l-1.046-1.047c-0.39-0.4-0.923-0.605-1.446-0.605
				c-0.371,0-0.749,0.102-1.076,0.306c-1.469,0.904-3.067,1.571-4.763,1.972c-0.924,0.217-1.568,1.048-1.568,1.99v1.477h-4.475
				v-1.477c0-0.942-0.645-1.773-1.568-1.99c-1.693-0.4-3.295-1.067-4.76-1.972c-0.33-0.204-0.709-0.306-1.077-0.306
				c-0.526,0-1.056,0.205-1.446,0.605l-1.05,1.047l-3.148-3.16l1.039-1.049c0.667-0.663,0.79-1.712,0.296-2.524
				c-0.9-1.465-1.569-3.063-1.971-4.76c-0.214-0.921-1.045-1.568-1.998-1.568h-1.47v-4.474h1.47c0.5,0,0.982-0.186,1.343-0.501
				c0.319-0.267,0.553-0.637,0.655-1.068c0.401-1.691,1.07-3.294,1.971-4.759c0.494-0.813,0.371-1.859-0.296-2.526l-1.039-1.046
				l3.148-3.161l1.05,1.05c0.391,0.396,0.92,0.604,1.446,0.604c0.368,0,0.747-0.104,1.077-0.307c1.465-0.906,3.066-1.57,4.76-1.971
				c0.924-0.216,1.568-1.046,1.568-1.99v-1.478h4.475v1.478c0,0.944,0.645,1.774,1.568,1.99c1.695,0.4,3.294,1.064,4.763,1.971
				c0.327,0.203,0.705,0.307,1.076,0.307c0.523,0,1.057-0.208,1.446-0.604l1.046-1.05l3.15,3.161l-1.035,1.046
				c-0.669,0.667-0.791,1.714-0.298,2.526c0.902,1.465,1.57,3.067,1.971,4.759c0.215,0.925,1.046,1.569,1.999,1.569H114.628z"/>
      <path fill="#54556A" d="M114.628,129.771v4.474h-1.465c-0.953,0-1.784,0.647-1.999,1.568c-0.4,1.696-1.068,3.295-1.971,4.76
				c-0.493,0.813-0.371,1.861,0.298,2.524l0.233,0.236c-3.15,1.991-6.893,3.152-10.896,3.152c-10.187,0-18.629-7.46-20.168-17.216
				c0.319-0.267,0.553-0.637,0.655-1.068c0.401-1.691,1.07-3.294,1.971-4.759c0.494-0.813,0.371-1.859-0.296-2.526l-1.039-1.046
				l3.148-3.161l1.05,1.05c0.391,0.396,0.92,0.604,1.446,0.604c0.368,0,0.747-0.104,1.077-0.307c1.465-0.906,3.066-1.57,4.76-1.971
				c0.924-0.216,1.568-1.046,1.568-1.99v-1.478h4.475v1.478c0,0.944,0.645,1.774,1.568,1.99c1.695,0.4,3.294,1.064,4.763,1.971
				c0.327,0.203,0.705,0.307,1.076,0.307c0.523,0,1.057-0.208,1.446-0.604l1.046-1.05l3.15,3.161l-1.035,1.046
				c-0.669,0.667-0.791,1.714-0.298,2.526c0.902,1.465,1.57,3.067,1.971,4.759c0.215,0.925,1.046,1.569,1.999,1.569H114.628z"/>
      <path fill="#414252" d="M164.457,136.292v-8.568h-3.525c-0.457-1.918-1.209-3.72-2.215-5.356l2.489-2.493l-6.058-6.06
				l-2.493,2.493c-1.633-1.005-3.435-1.758-5.356-2.217v-3.523h-8.568v3.523c-1.919,0.459-3.722,1.212-5.357,2.217l-2.489-2.493
				l-6.062,6.06l2.489,2.493c-1.005,1.637-1.759,3.438-2.214,5.356h-3.528v8.568h3.528c0.455,1.923,1.209,3.723,2.214,5.356
				l-2.489,2.494l6.062,6.059l2.489-2.49c1.636,1.004,3.438,1.758,5.357,2.217v3.525h8.568v-3.525
				c1.922-0.459,3.724-1.213,5.356-2.217l2.493,2.49l6.058-6.059l-2.489-2.494c1.006-1.634,1.758-3.434,2.215-5.356H164.457z"/>
      <path fill="#414252" d="M162.407,129.771v4.474h-1.476c-0.942,0-1.775,0.647-1.992,1.568c-0.409,1.696-1.064,3.295-1.971,4.76
				c-0.502,0.813-0.378,1.861,0.301,2.524l0.777,0.783l0.259,0.266l-3.161,3.16l-1.035-1.047c-0.216-0.214-0.472-0.379-0.749-0.475
				c-0.227-0.088-0.464-0.131-0.709-0.131c-0.37,0-0.739,0.102-1.068,0.306c-0.175,0.105-0.349,0.208-0.522,0.308
				c-1.322,0.751-2.75,1.315-4.236,1.664c-0.924,0.217-1.581,1.048-1.581,1.99v1.477h-4.462v-1.477c0-0.942-0.657-1.773-1.581-1.99
				c-1.681-0.4-3.282-1.067-4.748-1.972c-0.341-0.204-0.708-0.306-1.079-0.306c-0.534,0-1.058,0.205-1.447,0.605l-1.046,1.047
				l-3.16-3.16l1.048-1.049c0.666-0.663,0.791-1.712,0.299-2.524c-0.913-1.465-1.569-3.063-1.97-4.76
				c-0.229-0.921-1.047-1.568-2.004-1.568h-1.466v-4.474h1.466c0.957,0,1.775-0.645,2.004-1.569
				c0.152-0.645,0.348-1.281,0.574-1.906c0.367-0.996,0.831-1.951,1.396-2.853c0.492-0.813,0.367-1.859-0.299-2.526l-0.347-0.349
				l-0.701-0.697l3.16-3.161l1.046,1.05c0.39,0.396,0.913,0.604,1.447,0.604c0.371,0,0.738-0.104,1.079-0.307
				c1.466-0.906,3.067-1.57,4.748-1.971c0.924-0.216,1.581-1.046,1.581-1.99v-1.478h4.462v1.478c0,0.944,0.657,1.774,1.581,1.99
				c1.684,0.4,3.282,1.064,4.759,1.971c0.329,0.203,0.698,0.307,1.068,0.307c0.534,0,1.058-0.208,1.458-0.604l1.035-1.05
				l3.161,3.161l-1.036,1.046c-0.679,0.667-0.803,1.714-0.301,2.526c0.906,1.465,1.562,3.067,1.971,4.759
				c0.217,0.925,1.05,1.569,1.992,1.569H162.407z"/>
      <path fill="#54556A" d="M162.407,129.771v4.474h-1.476c-0.942,0-1.775,0.647-1.992,1.568c-0.409,1.696-1.064,3.295-1.971,4.76
				c-0.502,0.813-0.378,1.861,0.301,2.524l0.777,0.783c-1.456,0.831-3.025,1.468-4.687,1.904c-0.75,0.207-1.518,0.373-2.3,0.482
				c-0.973,0.146-1.97,0.219-2.984,0.219c-11.205,0-20.305-9.018-20.405-20.19c-0.012-0.072-0.012-0.145-0.012-0.216
				c0-1.908,0.268-3.756,0.762-5.512c0.192-0.727,0.438-1.436,0.728-2.122l1.731-1.736l1.046,1.05
				c0.39,0.396,0.913,0.604,1.447,0.604c0.371,0,0.738-0.104,1.079-0.307c1.466-0.906,3.067-1.57,4.748-1.971
				c0.924-0.216,1.581-1.046,1.581-1.99v-1.478h4.462v1.478c0,0.944,0.657,1.774,1.581,1.99c1.684,0.4,3.282,1.064,4.759,1.971
				c0.329,0.203,0.698,0.307,1.068,0.307c0.534,0,1.058-0.208,1.458-0.604l1.035-1.05l3.161,3.161l-1.036,1.046
				c-0.679,0.667-0.803,1.714-0.301,2.526c0.906,1.465,1.562,3.067,1.971,4.759c0.217,0.925,1.05,1.569,1.992,1.569H162.407z"/>
      <path fill="#414252" d="M68.908,136.292v-8.568h-3.525c-0.459-1.918-1.211-3.72-2.217-5.356l2.493-2.493l-6.063-6.06
				l-2.492,2.493c-1.632-1.005-3.437-1.758-5.353-2.217v-3.523h-8.573v3.523c-1.917,0.459-3.72,1.212-5.356,2.217l-2.488-2.493
				l-6.062,6.06l2.493,2.493c-1.007,1.637-1.763,3.438-2.219,5.356h-3.525v8.568h3.525c0.456,1.923,1.212,3.723,2.219,5.356
				l-2.493,2.494l6.062,6.059l2.488-2.49c1.637,1.004,3.439,1.758,5.356,2.217v3.525h8.573v-3.525
				c1.916-0.459,3.721-1.213,5.353-2.217l2.492,2.49l6.063-6.059l-2.493-2.494c1.006-1.634,1.758-3.434,2.217-5.356H68.908z"/>
      <path fill="#414252" d="M66.854,129.771v4.474h-1.47c-0.955,0-1.772,0.647-1.999,1.568c-0.4,1.696-1.057,3.295-1.969,4.76
				c-0.495,0.813-0.372,1.861,0.296,2.524l0.481,0.484l0.564,0.564l-3.161,3.16l-1.045-1.047c-0.326-0.339-0.739-0.533-1.18-0.575
				c-0.093-0.021-0.175-0.03-0.268-0.03c-0.367,0-0.738,0.102-1.076,0.306c-0.063,0.032-0.114,0.073-0.174,0.105
				c-1.417,0.852-2.956,1.488-4.578,1.866c-0.924,0.217-1.579,1.048-1.579,1.99v1.477h-4.464v-1.477c0-0.942-0.655-1.773-1.579-1.99
				c-1.681-0.4-3.283-1.067-4.76-1.972c-0.326-0.204-0.697-0.306-1.068-0.306c-0.531,0-1.054,0.205-1.453,0.605l-1.039,1.047
				l-3.158-3.16l1.036-1.049c0.675-0.663,0.802-1.712,0.297-2.524c-0.901-1.465-1.559-3.063-1.97-4.76
				c-0.216-0.921-1.047-1.568-1.989-1.568H28.07v-4.474h1.479c0.839,0,1.588-0.512,1.885-1.271c0.044-0.093,0.086-0.194,0.104-0.299
				c0.411-1.691,1.068-3.294,1.97-4.759c0.505-0.813,0.378-1.859-0.297-2.526l-0.976-0.983l-0.061-0.063l0.112-0.111l3.046-3.05
				l1.039,1.05c0.399,0.396,0.922,0.604,1.453,0.604c0.371,0,0.742-0.104,1.068-0.307c1.477-0.906,3.079-1.57,4.76-1.971
				c0.924-0.216,1.579-1.046,1.579-1.99v-1.478h4.464v1.478c0,0.944,0.655,1.774,1.579,1.99c1.683,0.4,3.284,1.064,4.752,1.971
				c0.338,0.203,0.709,0.307,1.076,0.307c0.534,0,1.058-0.208,1.447-0.604l1.045-1.05l3.161,3.161l-1.046,1.046
				c-0.668,0.667-0.791,1.714-0.296,2.526c0.912,1.465,1.568,3.067,1.969,4.759c0.227,0.925,1.044,1.569,1.999,1.569H66.854z"/>
      <g>
				<path fill="#86A0D7" d="M148.875,131.979c0,1.198-0.359,2.318-0.972,3.242c-1.058,1.601-2.863,2.656-4.927,2.656
					c-3.253,0-5.899-2.646-5.899-5.898c0-2.277,1.281-4.248,3.169-5.222c0.824-0.44,1.748-0.677,2.73-0.677
					C146.241,126.08,148.875,128.716,148.875,131.979z"/>
			</g>
      <g>
				<path fill="#86A0D7" d="M101.107,131.979c0,1.212-0.367,2.318-0.994,3.253c-1.047,1.59-2.853,2.646-4.905,2.646
					c-3.26,0-5.896-2.646-5.896-5.898c0-2.277,1.279-4.248,3.16-5.222c0.82-0.434,1.75-0.677,2.736-0.677
					C98.461,126.08,101.107,128.716,101.107,131.979z"/>
			</g>
      <g>
				<path fill="#C2D3F8" d="M148.875,131.979c0,1.198-0.359,2.318-0.972,3.242c-0.823,0.439-1.747,0.675-2.73,0.675
					c-3.265,0-5.898-2.633-5.898-5.898c0-1.19,0.356-2.307,0.972-3.24c0.824-0.44,1.748-0.677,2.73-0.677
					C146.241,126.08,148.875,128.716,148.875,131.979z"/>
			</g>
      <g>
				<path fill="#C2D3F8" d="M101.107,131.979c0,1.212-0.367,2.318-0.994,3.253c-0.813,0.429-1.734,0.664-2.719,0.664
					c-3.253,0-5.9-2.633-5.9-5.898c0-1.19,0.361-2.307,0.978-3.24c0.82-0.434,1.75-0.677,2.736-0.677
					C98.461,126.08,101.107,128.716,101.107,131.979z"/>
			</g>
      <path fill="#E1EAFD" d="M145.511,129.924c0,0.689-0.561,1.246-1.247,1.246c-0.689,0-1.25-0.557-1.25-1.246
				c0-0.69,0.561-1.251,1.25-1.251C144.95,128.673,145.511,129.233,145.511,129.924z"/>
      <path fill="#E1EAFD" d="M97.55,129.924c0,0.689-0.56,1.246-1.246,1.246c-0.691,0-1.251-0.557-1.251-1.246
				c0-0.69,0.56-1.251,1.251-1.251C96.99,128.673,97.55,129.233,97.55,129.924z"/>
      <path fill="#54556A" d="M66.854,129.771v4.474h-1.47c-0.955,0-1.772,0.647-1.999,1.568c-0.4,1.696-1.057,3.295-1.969,4.76
				c-0.495,0.813-0.372,1.861,0.296,2.524l0.481,0.484c-1.497,0.903-3.107,1.609-4.821,2.103c-0.502,0.142-1.006,0.266-1.518,0.381
				c-1.346,0.275-2.729,0.421-4.154,0.421c-10.457,0-19.075-7.85-20.266-17.985c-0.089-0.791-0.141-1.601-0.141-2.421
				c0-2.144,0.325-4.208,0.942-6.146c0.011-0.063,0.033-0.123,0.052-0.174l3.046-3.05l1.039,1.05
				c0.399,0.396,0.922,0.604,1.453,0.604c0.371,0,0.742-0.104,1.068-0.307c1.477-0.906,3.079-1.57,4.76-1.971
				c0.924-0.216,1.579-1.046,1.579-1.99v-1.478h4.464v1.478c0,0.944,0.655,1.774,1.579,1.99c1.683,0.4,3.284,1.064,4.752,1.971
				c0.338,0.203,0.709,0.307,1.076,0.307c0.534,0,1.058-0.208,1.447-0.604l1.045-1.05l3.161,3.161l-1.046,1.046
				c-0.668,0.667-0.791,1.714-0.296,2.526c0.912,1.465,1.568,3.067,1.969,4.759c0.227,0.925,1.044,1.569,1.999,1.569H66.854z"/>
      <g>
				<path fill="#86A0D7" d="M53.329,131.979c0,1.198-0.357,2.318-0.973,3.242c-1.059,1.601-2.875,2.656-4.926,2.656
					c-3.262,0-5.898-2.646-5.898-5.898c0-2.277,1.291-4.259,3.179-5.234c0.813-0.428,1.735-0.664,2.72-0.664
					C50.684,126.08,53.329,128.716,53.329,131.979z"/>
			</g>
      <g>
				<path fill="#C2D3F8" d="M53.329,131.979c0,1.198-0.357,2.318-0.973,3.242c-0.824,0.431-1.754,0.675-2.741,0.675
					c-3.25,0-5.897-2.633-5.897-5.898c0-1.201,0.37-2.317,0.993-3.253c0.813-0.428,1.735-0.664,2.72-0.664
					C50.684,126.08,53.329,128.716,53.329,131.979z"/>
			</g>
      <path fill="#E1EAFD" d="M49.771,129.924c0,0.689-0.556,1.246-1.248,1.246c-0.688,0-1.249-0.557-1.249-1.246
				c0-0.69,0.561-1.251,1.249-1.251C49.215,128.673,49.771,129.233,49.771,129.924z"/>
		</g>
    <path fill="#86A0D7" d="M172.186,85.595v2.812h-68.227V62.245c0-5.1,4.137-9.235,9.233-9.235h25.647
			c4.467,0,8.755,1.714,11.975,4.791L166.8,73.017C170.234,76.289,172.186,80.835,172.186,85.595z"/>
    <path fill="#A0B9F0" d="M172.186,85.595v2.812h-62.295V62.245c0-5.1,4.133-9.235,9.233-9.235h19.716
			c4.467,0,8.755,1.714,11.975,4.791L166.8,73.017C170.234,76.289,172.186,80.835,172.186,85.595z"/>
    <path fill="#C2D3F8" d="M172.186,85.595v2.812h-55.503V62.245c0-5.1,4.134-9.235,9.234-9.235h12.923
			c4.467,0,8.755,1.714,11.975,4.791L166.8,73.017C170.234,76.289,172.186,80.835,172.186,85.595z"/>
    <g>
			<path fill="#414252" d="M27.398,79.174c-0.849,0-1.539-0.787-1.539-1.759V35.274c0-0.968,0.69-1.755,1.539-1.755
				c0.85,0,1.54,0.787,1.54,1.755v42.141C28.938,78.387,28.248,79.174,27.398,79.174z"/>
		</g>
    <g>
			<path fill="#BA2A2C" d="M31.16,3.766v15.391h-7.52V3.766C23.641,1.683,25.322,0,27.393,0h0.014c0.676,0,1.32,0.186,1.877,0.506
				C30.399,1.15,31.16,2.37,31.16,3.766z"/>
      <path fill="#F0373A" d="M31.16,3.766v15.391h-3.754V3.766c0-1.396,0.758-2.615,1.877-3.26C30.399,1.15,31.16,2.37,31.16,3.766z"
      />
      <path fill="#86A0D7" d="M54.798,11.636c-0.227,5.324-1.971,10.261-4.813,14.373c-0.114,0.162-0.237,0.339-0.359,0.504
				C44.65,33.394,36.535,37.88,27.393,37.88C12.653,37.88,0.615,26.235,0,11.636H54.798z"/>
      <path fill="#A0B9F0" d="M54.798,11.636c-0.227,5.324-1.971,10.261-4.813,14.373c-0.114,0.162-0.237,0.339-0.359,0.504
				c-4.956,4.913-11.777,7.939-19.296,7.939c-13.563,0-24.84-9.86-27.024-22.816H54.798z"/>
      <path fill="#C2D3F8" d="M54.798,11.636c-0.227,5.324-1.971,10.261-4.813,14.373c-4.473,3.171-9.932,5.028-15.82,5.028
				c-12.353,0-22.795-8.168-26.223-19.401H54.798z"/>
		</g>
    <path fill="#BA2A2C" d="M36.506,79.431v8.976H18.294v-8.976c0-2.556,2.064-4.617,4.616-4.617h8.978
			C34.441,74.813,36.506,76.875,36.506,79.431z"/>
    <path fill="#F0373A" d="M36.506,79.431v8.976H20.604v-8.976c0-2.556,2.062-4.617,4.613-4.617h6.671
			C34.441,74.813,36.506,76.875,36.506,79.431z"/>
    <path fill="#FC3A3C" d="M36.506,79.431v8.976H24.164v-8.976c0-2.556,2.063-4.617,4.614-4.617h3.109
			C34.441,74.813,36.506,76.875,36.506,79.431z"/>
    <path fill="#FD9496" d="M31.624,85.072L31.624,85.072c-0.712,0-1.291-0.578-1.291-1.29v-4.343c0-0.715,0.579-1.294,1.291-1.294
			l0,0c0.713,0,1.29,0.579,1.29,1.294v4.343C32.914,84.494,32.337,85.072,31.624,85.072z"/>
	</g>
  <g>
		<path fill="#414252" d="M231.457,92.175c-0.921,0-1.836-0.348-2.537-1.049c-1.402-1.402-1.402-3.676,0-5.079l6.247-6.251V61.62
			l-5.198-5.195h-14.237l-5.192,5.195v18.176l6.247,6.251c1.401,1.403,1.401,3.677,0,5.079c-1.402,1.401-3.676,1.401-5.081,0
			l-7.299-7.302c-0.67-0.675-1.05-1.587-1.05-2.54V60.132c0-0.953,0.38-1.867,1.05-2.539l7.299-7.299
			c0.673-0.673,1.586-1.054,2.539-1.054h17.213c0.953,0,1.866,0.381,2.54,1.054l7.298,7.299c0.675,0.672,1.053,1.586,1.053,2.539
			v21.152c0,0.953-0.378,1.865-1.053,2.54l-7.298,7.302C233.297,91.827,232.377,92.175,231.457,92.175z"/>
    <path fill="#54556A" d="M214.244,90.124c-0.412,0-0.798-0.162-1.086-0.449l-7.301-7.3c-0.289-0.294-0.449-0.68-0.449-1.091V60.132
			c0-0.41,0.16-0.797,0.449-1.087l7.301-7.3c0.288-0.291,0.674-0.451,1.086-0.451h17.213c0.403,0,0.801,0.161,1.09,0.451l7.298,7.3
			c0.292,0.29,0.452,0.677,0.452,1.087v21.152c0,0.411-0.16,0.797-0.452,1.091l-7.298,7.3c-0.292,0.287-0.678,0.449-1.09,0.449
			c-0.411,0-0.798-0.162-1.087-0.449c-0.294-0.293-0.453-0.677-0.453-1.088c0-0.413,0.159-0.798,0.453-1.09l6.247-6.251
			c0.386-0.382,0.601-0.904,0.601-1.45V61.62c0-0.544-0.215-1.064-0.601-1.45l-5.197-5.197c-0.382-0.385-0.905-0.602-1.451-0.602
			h-14.237c-0.541,0-1.063,0.217-1.45,0.602l-5.197,5.197c-0.383,0.386-0.6,0.906-0.6,1.45v18.176c0,0.546,0.217,1.068,0.6,1.45
			l6.251,6.251c0.597,0.6,0.597,1.576-0.004,2.178C215.043,89.962,214.657,90.124,214.244,90.124z"/>
    <path fill="#797B97" d="M231.457,89.101c-0.138,0-0.264-0.054-0.363-0.153c-0.098-0.097-0.148-0.223-0.148-0.36
			c0-0.14,0.051-0.266,0.148-0.363l6.248-6.248c0.581-0.58,0.904-1.355,0.904-2.18V61.62c0-0.824-0.323-1.596-0.905-2.179
			l-5.194-5.196c-0.582-0.578-1.354-0.899-2.178-0.899h-14.237c-0.818,0-1.595,0.318-2.174,0.899l-5.195,5.196
			c-0.583,0.583-0.902,1.354-0.902,2.179v18.176c0,0.824,0.319,1.598,0.902,2.18l6.246,6.248c0.2,0.201,0.2,0.525,0,0.724
			c-0.097,0.1-0.224,0.153-0.364,0.153c-0.137,0-0.263-0.054-0.363-0.153l-7.296-7.298c-0.101-0.099-0.153-0.223-0.153-0.365V60.132
			c0-0.139,0.053-0.263,0.153-0.363l7.296-7.299c0.101-0.098,0.227-0.15,0.363-0.15h17.213c0.133,0,0.269,0.057,0.363,0.15
			l7.301,7.299c0.097,0.101,0.148,0.225,0.148,0.363v21.152c0,0.143-0.052,0.267-0.148,0.363l-7.301,7.3
			C231.724,89.047,231.594,89.101,231.457,89.101z"/>
	</g>
  <g>
		<path fill="#414252" d="M222.847,56.602c-0.696,0-1.401-0.201-2.022-0.624l-39.16-26.768l-33.635,26.615
			c-1.554,1.231-3.813,0.968-5.045-0.586c-1.228-1.554-0.965-3.813,0.59-5.044l35.708-28.257c1.231-0.976,2.956-1.034,4.253-0.148
			l41.342,28.256c1.639,1.121,2.058,3.354,0.938,4.989C225.121,56.056,223.993,56.602,222.847,56.602z"/>
    <path fill="#54556A" d="M222.847,54.552c-0.308,0-0.607-0.094-0.864-0.27l-39.159-26.766c-0.351-0.24-0.755-0.359-1.159-0.359
			c-0.45,0-0.9,0.151-1.272,0.442l-33.635,26.619c-0.349,0.275-0.712,0.333-0.953,0.333c-0.476,0-0.916-0.215-1.209-0.585
			c-0.526-0.667-0.411-1.638,0.252-2.163l35.708-28.255c0.273-0.219,0.604-0.332,0.953-0.332c0.313,0,0.612,0.092,0.871,0.269
			l41.34,28.257c0.342,0.229,0.568,0.582,0.645,0.983c0.075,0.405-0.011,0.816-0.24,1.152
			C223.834,54.301,223.359,54.552,222.847,54.552z"/>
    <path fill="#797B97" d="M222.847,53.526c-0.104,0-0.2-0.031-0.285-0.092l-39.158-26.764c-0.512-0.353-1.112-0.54-1.739-0.54
			c-0.689,0-1.365,0.237-1.907,0.667l-33.638,26.617c-0.093,0.073-0.201,0.111-0.315,0.111c-0.159,0-0.304-0.071-0.404-0.197
			c-0.175-0.221-0.137-0.546,0.086-0.72l35.707-28.256c0.093-0.078,0.196-0.111,0.315-0.111c0.107,0,0.202,0.03,0.289,0.09
			l41.343,28.257c0.115,0.075,0.19,0.19,0.216,0.328c0.025,0.136-0.004,0.268-0.082,0.383
			C223.18,53.438,223.021,53.526,222.847,53.526z"/>
	</g>
  <path fill="#E1EAFD" d="M79.762,98.273L79.762,98.273c0-1.209,0.98-2.188,2.189-2.188h38.313c1.209,0,2.191,0.979,2.191,2.188l0,0
		c0,1.21-0.982,2.191-2.191,2.191H81.951C80.742,100.465,79.762,99.483,79.762,98.273z"/>
  <path fill="#E1EAFD" d="M165.052,81.816L165.052,81.816c-0.382,0.451-1.056,0.506-1.509,0.124l-14.29-12.123
		c-0.449-0.382-0.504-1.061-0.122-1.51l0,0c0.382-0.45,1.058-0.508,1.51-0.126l14.289,12.123
		C165.379,80.691,165.435,81.365,165.052,81.816z"/>
  <g>
		<path fill="#BA2A2C" d="M154.517,53.01c0,1.838-0.57,3.55-1.547,4.958c-1.57,2.275-4.195,3.764-7.17,3.764
			c-4.815,0-8.723-3.909-8.723-8.722c0-3.331,1.878-6.235,4.627-7.691c1.221-0.658,2.616-1.025,4.096-1.025
			C150.619,44.293,154.517,48.2,154.517,53.01z"/>
    <path fill="#F0373A" d="M154.517,53.01c0,1.838-0.57,3.55-1.547,4.958c-1.22,0.655-2.614,1.026-4.095,1.026
			c-4.812,0-8.721-3.91-8.721-8.724c0-1.845,0.574-3.549,1.55-4.952c1.221-0.658,2.616-1.025,4.096-1.025
			C150.619,44.293,154.517,48.2,154.517,53.01z"/>
    <circle fill="#FD9496" cx="148.877" cy="51.593" r="2.351"/>
	</g>
  <g>
		<path fill="#BA2A2C" d="M189.885,25.056c0,1.835-0.578,3.55-1.551,4.953c-1.568,2.28-4.196,3.767-7.173,3.767
			c-4.811,0-8.719-3.909-8.719-8.72c0-3.335,1.877-6.238,4.626-7.694c1.22-0.657,2.618-1.027,4.093-1.027
			C185.983,16.334,189.885,20.243,189.885,25.056z"/>
    <path fill="#F0373A" d="M189.885,25.056c0,1.835-0.578,3.55-1.551,4.953c-1.222,0.658-2.616,1.028-4.092,1.028
			c-4.814,0-8.721-3.909-8.721-8.725c0-1.843,0.572-3.545,1.547-4.951c1.22-0.657,2.618-1.027,4.093-1.027
			C185.983,16.334,189.885,20.243,189.885,25.056z"/>
    <path fill="#FD9496" d="M186.59,23.636c0,1.297-1.054,2.35-2.348,2.35c-1.299,0-2.353-1.053-2.353-2.35
			c0-1.3,1.054-2.35,2.353-2.35C185.536,21.286,186.59,22.336,186.59,23.636z"/>
	</g>
  <g>
		<path fill="#BA2A2C" d="M230.406,53.01c0,1.838-0.574,3.55-1.547,4.958c-1.572,2.275-4.198,3.764-7.173,3.764
			c-4.813,0-8.722-3.909-8.722-8.722c0-3.331,1.881-6.235,4.629-7.691c1.222-0.658,2.615-1.025,4.093-1.025
			C226.508,44.293,230.406,48.2,230.406,53.01z"/>
    <path fill="#F0373A" d="M230.406,53.01c0,1.838-0.574,3.55-1.547,4.958c-1.224,0.655-2.618,1.026-4.094,1.026
			c-4.813,0-8.723-3.91-8.723-8.724c0-1.845,0.576-3.549,1.551-4.952c1.222-0.658,2.615-1.025,4.093-1.025
			C226.508,44.293,230.406,48.2,230.406,53.01z"/>
    <circle fill="#FD9496" cx="224.767" cy="51.593" r="2.35"/>
	</g>
</g>
</svg>
