<?xml version="1.0" encoding="utf-8"?>
<!-- Generator: Adobe Illustrator 16.0.0, SVG Export Plug-In . SVG Version: 6.00 Build 0)  -->
<!DOCTYPE svg PUBLIC "-//W3C//DTD SVG 1.1//EN" "http://www.w3.org/Graphics/SVG/1.1/DTD/svg11.dtd">
<svg version="1.1" id="Layer_1" xmlns="http://www.w3.org/2000/svg" xmlns:xlink="http://www.w3.org/1999/xlink" x="0px" y="0px"
	 width="269px" height="164px" viewBox="0 0 269 164" enable-background="new 0 0 269 164" xml:space="preserve">
<g>
	<path fill="#CF5434" d="M109.676,162.925H15.973c-4.134,0-7.482-3.35-7.482-7.481l0,0c0-4.133,3.348-7.482,7.482-7.482h93.703
		c4.131,0,7.48,3.35,7.48,7.482l0,0C117.156,159.575,113.807,162.925,109.676,162.925z"/>
	<g>
		<path fill="#FFFFFF" d="M71.107,70.323l62.269,0.17c4.724,0.033,8.579-3.769,8.611-8.494c0.034-4.722-3.769-8.577-8.489-8.609
			l-62.272-0.173L71.107,70.323z"/>
		<g>
			<path id="XMLID_760_" fill="#91B7C9" d="M72.524,120.69l-26.266,0.185c-11.695,0.082-21.243-9.334-21.323-21.028l-0.279-39.686
				c-0.088-12.975,10.449-23.665,23.423-23.755l21.44-0.15c12.975-0.091,23.666,10.452,23.757,23.424l0.275,39.688
				C93.633,111.062,84.22,120.608,72.524,120.69z"/>
			<g id="XMLID_755_">
				<path id="XMLID_757_" fill="#DFE8E6" d="M26.544,147.525l34.635,0.144l0.063-13.76l-20.882-0.088
					C32.764,133.789,26.577,139.924,26.544,147.525L26.544,147.525z"/>
				
					<rect id="XMLID_756_" x="26.527" y="147.599" transform="matrix(1 0.0043 -0.0043 1 0.6468 -0.1853)" fill="#6E98AD" width="34.636" height="8.47"/>
			</g>
			<g id="XMLID_748_">
				<path id="XMLID_752_" fill="#DFE8E6" d="M40.365,97.271l-0.151,36.55l21.028,0.088l0.079-19.192
					c0.021-4.481,2.417-8.262,5.875-10.36c-2.321-2.354,3.56-4.71,1.063-7.001L40.365,97.271z"/>
				<path id="XMLID_751_" fill="#FFFFFF" d="M85.818,97.31l-19.966,0.048l-0.079-0.287c-1.529,3.022-3.163,5.92-4.801,8.79
					c2.343,2.189,3.85,5.301,3.858,8.853l0.044,19.197l21.03-0.054L85.818,97.31z"/>
				<path id="XMLID_750_" fill="#FFFFFF" d="M99.548,147.586l-34.637,0.083l-0.032-13.758l20.877-0.053
					C93.355,133.84,99.53,139.988,99.548,147.586L99.548,147.586z"/>
				
					<rect id="XMLID_749_" x="64.921" y="147.627" transform="matrix(-1 0.0024 -0.0024 -1 164.838 303.5333)" fill="#ADCEDE" width="34.637" height="8.475"/>
			</g>
			<g id="XMLID_656_">
				<g id="XMLID_741_">
					<g>
						<path id="XMLID_22_" fill="#DFE8E6" d="M22.389,70.5l24.253-0.172c4.724-0.034,8.526-3.89,8.491-8.611
							c-0.031-4.724-3.888-8.525-8.608-8.493L22.27,53.393c-1.881,0.015-3.422-1.506-3.438-3.39l-0.148-21.374
							c-0.033-4.722-3.889-8.523-8.61-8.491C5.35,20.17,1.546,24.027,1.581,28.75l0.148,21.372
							C1.808,61.437,11.076,70.578,22.389,70.5z"/>
					</g>
				</g>
				<polygon id="XMLID_740_" fill="#FFFFFF" points="81.625,25.012 82.33,21.789 80.036,19.417 83.26,20.125 85.63,17.832 
					84.924,21.052 87.221,23.422 83.995,22.719 				"/>
				
					<ellipse id="XMLID_730_" transform="matrix(1 -0.007 0.007 1 -0.1914 0.4128)" fill="#FFFFFF" cx="59.119" cy="27.667" rx="30.467" ry="27.665"/>
				<path id="XMLID_727_" fill="#DFE8E6" d="M87.45,37.81c-5.366,7.699-14.791,12.846-25.563,12.923
					C45.06,50.849,31.336,38.558,31.229,23.279c-0.028-3.656,0.737-7.149,2.136-10.355c-3.016,4.329-4.754,9.458-4.712,14.956
					c0.104,15.279,13.831,27.568,30.658,27.452C72.111,55.24,83.009,47.996,87.45,37.81z"/>
				<path id="XMLID_715_" fill="#1990C7" d="M80.205,22.965l0.064,9.107c0.048,6.894-5.557,12.578-12.452,12.626l-17.162,0.121
					c-6.901,0.048-12.585-5.559-12.633-12.449l-0.065-9.112c-0.046-6.891,5.557-12.574,12.46-12.624l17.164-0.119
					C74.474,10.468,80.156,16.072,80.205,22.965z"/>
				<path id="XMLID_664_" fill="#19ADC7" d="M80.205,22.965l0.035,4.985c-6.198,1.67-13.408,2.644-21.105,2.695
					c-7.698,0.055-14.921-0.817-21.143-2.399l-0.034-4.988c-0.046-6.891,5.557-12.574,12.46-12.624l17.164-0.119
					C74.474,10.468,80.156,16.072,80.205,22.965z"/>
				<path id="XMLID_661_" fill="#6E98AD" d="M28.726,38.558L28.726,38.558c-2.295,0.014-4.185-1.85-4.2-4.143l-0.071-10.277
					c-0.017-2.293,1.847-4.183,4.14-4.198l0,0c2.293-0.016,4.185,1.847,4.202,4.14l0.07,10.277
					C32.883,36.65,31.017,38.542,28.726,38.558z"/>
				<path id="XMLID_658_" fill="#ADCEDE" d="M89.659,38.13L89.659,38.13c-2.294,0.017-4.183-1.848-4.2-4.141l-0.074-10.275
					c-0.013-2.295,1.85-4.185,4.145-4.2l0,0c2.294-0.017,4.186,1.847,4.2,4.143l0.07,10.275
					C93.815,36.225,91.953,38.113,89.659,38.13z"/>
				
					<rect id="XMLID_657_" x="38.108" y="44.901" transform="matrix(-1 0.0079 -0.0079 -1 77.9348 89.4954)" fill="#ADCEDE" width="1.366" height="0"/>
				<path id="XMLID_737_" fill="#FFFFFF" d="M85.904,97.583L32.56,97.956l-0.227-31.868c-0.06-8.443,6.8-15.397,15.242-15.455
					l22.649-0.161c8.442-0.059,15.398,6.8,15.458,15.241L85.904,97.583z"/>
				<path id="XMLID_734_" fill="#DFE8E6" d="M43.408,104.047L42.66,64.754c-0.045-6.291,3.76-11.752,9.191-14.152l-4.276,0.03
					c-8.442,0.058-15.302,7.011-15.242,15.455l0.227,31.868L43.408,104.047z"/>
				<path id="XMLID_733_" fill="#ADCEDE" d="M73.437,57.654l-27.648,0.19c-3.573,0.026-6.517-2.876-6.543-6.449l0,0
					c-0.025-3.574,2.878-6.519,6.45-6.544l27.649-0.193c3.574-0.024,6.518,2.88,6.543,6.452l0,0
					C79.913,54.685,77.012,57.627,73.437,57.654z"/>
			</g>
			<path id="XMLID_356_" fill="#6E98AD" d="M16.943,42.027L2.908,42.125c-1.59,0.013-2.89-1.271-2.902-2.862L0,38.251
				c-0.013-1.591,1.271-2.893,2.859-2.901l14.037-0.1c1.59-0.01,2.888,1.269,2.9,2.861l0.008,1.015
				C19.815,40.717,18.533,42.015,16.943,42.027z"/>
			<path id="XMLID_162_" fill="#6E98AD" d="M62.106,115.921l-22.912,1.882c-1.354,0.113-2.537-0.896-2.65-2.249l0,0
				c-0.111-1.351,0.896-2.541,2.246-2.649l22.912-1.885c1.354-0.11,2.539,0.898,2.65,2.252l0,0
				C64.464,114.624,63.458,115.808,62.106,115.921z"/>
			<path id="XMLID_135_" fill="#ADCEDE" d="M65.076,116.7l22.904,1.924c1.357,0.114,2.544-0.891,2.658-2.243l0,0
				c0.111-1.353-0.894-2.542-2.242-2.655l-22.909-1.924c-1.353-0.113-2.543,0.891-2.654,2.242l0,0
				C62.718,115.398,63.722,116.589,65.076,116.7z"/>
			
				<rect id="XMLID_655_" x="43.59" y="66.23" transform="matrix(1 -0.007 0.007 1 -0.5233 0.4194)" fill="#ADCEDE" width="32.458" height="17.908"/>
			<path id="XMLID_654_" fill="#FFFFFF" d="M73.336,78.846c0.011,1.533-1.226,2.785-2.76,2.799c-1.535,0.01-2.79-1.227-2.799-2.762
				c-0.011-1.535,1.224-2.787,2.758-2.799C72.074,76.072,73.327,77.309,73.336,78.846z"/>
			<circle id="XMLID_366_" fill="#FFFFFF" cx="70.504" cy="71.303" r="1.14"/>
			
				<rect id="XMLID_365_" x="48.404" y="69.922" transform="matrix(1 -0.007 0.007 1 -0.4903 0.3848)" fill="#FFFFFF" width="13.336" height="1.488"/>
			
				<rect id="XMLID_364_" x="48.437" y="74.471" transform="matrix(1 -0.007 0.007 1 -0.5218 0.3851)" fill="#FFFFFF" width="13.338" height="1.488"/>
			
				<rect id="XMLID_363_" x="48.47" y="79.023" transform="matrix(1 -0.0071 0.0071 1 -0.5652 0.3937)" fill="#FFFFFF" width="13.336" height="1.488"/>
			<path id="XMLID_174_" fill="#ADCEDE" d="M108.329,54.178l-0.099,14.036c-0.011,1.593,1.271,2.892,2.864,2.901l1.012,0.008
				c1.59,0.011,2.89-1.269,2.9-2.861l0.097-14.035c0.013-1.592-1.268-2.891-2.857-2.9l-1.015-0.008
				C109.639,51.309,108.341,52.589,108.329,54.178z"/>
		</g>
		<g>
			<g>
				<path fill-rule="evenodd" clip-rule="evenodd" fill="#CF5434" d="M153.404,164c24.432,0,44.36-4.156,44.36-9.249
					c0-5.098-19.928-9.249-44.36-9.249c-24.431,0-44.362,4.151-44.362,9.249C109.042,159.844,128.973,164,153.404,164z"/>
				<polygon fill-rule="evenodd" clip-rule="evenodd" fill="#CC9A8F" points="122.016,33.258 131.675,33.258 131.675,154.985 
					131.675,156.531 131.633,156.57 131.627,156.578 131.574,156.623 131.56,156.635 131.522,156.665 131.482,156.697 
					131.467,156.708 131.411,156.748 131.292,156.835 131.233,156.872 131.233,156.878 131.17,156.917 131.141,156.934 
					131.11,156.954 131.052,156.993 131.049,156.993 130.978,157.03 130.956,157.049 130.911,157.069 130.858,157.099 
					130.844,157.107 130.773,157.147 130.759,157.154 130.703,157.184 130.658,157.206 130.629,157.219 130.559,157.253 
					130.547,157.258 130.48,157.287 130.443,157.311 130.406,157.324 130.333,157.356 130.325,157.356 130.248,157.39 
					130.217,157.4 130.169,157.424 130.106,157.451 130.088,157.453 130.006,157.488 129.984,157.495 129.926,157.518 
					129.865,157.54 129.839,157.548 129.754,157.577 129.743,157.58 129.669,157.606 129.62,157.622 129.583,157.631 
					129.495,157.659 129.49,157.659 129.402,157.688 129.365,157.697 129.313,157.712 129.235,157.734 129.221,157.74 
					129.131,157.759 129.102,157.771 129.035,157.786 128.969,157.803 128.942,157.809 128.846,157.833 128.832,157.833 
					128.75,157.853 128.69,157.868 128.653,157.876 128.557,157.892 128.553,157.897 128.457,157.913 128.409,157.922 
					128.356,157.933 128.264,157.95 128.257,157.95 128.156,157.964 128.119,157.974 128.053,157.981 127.971,157.994 
					127.952,157.994 127.85,158.011 127.823,158.017 127.741,158.023 127.675,158.032 127.638,158.038 127.53,158.051 
					127.522,158.051 127.427,158.063 127.371,158.068 127.318,158.069 127.219,158.082 127.211,158.082 127.104,158.09 
					127.06,158.093 126.996,158.098 126.903,158.105 126.885,158.105 126.777,158.114 126.748,158.114 126.584,158.12 
					126.555,158.122 126.44,158.122 126.426,158.122 126.329,158.127 126.267,158.127 126.217,158.127 126.103,158.127 
					126.029,158.127 125.958,158.127 125.943,158.127 125.884,158.127 125.814,158.127 125.78,158.122 125.743,158.122 
					125.67,158.122 125.621,158.12 125.596,158.12 125.524,158.114 125.461,158.114 125.454,158.114 125.384,158.111 
					125.31,158.105 125.303,158.105 125.239,158.101 125.168,158.098 125.144,158.093 125.099,158.09 125.031,158.085 
					124.987,158.082 124.961,158.082 124.891,158.069 124.835,158.068 124.82,158.068 124.753,158.059 124.687,158.051 
					124.68,158.051 124.616,158.046 124.55,158.038 124.479,158.029 124.417,158.021 124.38,158.017 124.346,158.011 124.279,158 
					124.23,157.994 124.217,157.992 124.149,157.981 124.087,157.974 124.082,157.971 124.016,157.958 123.953,157.95 
					123.941,157.95 123.887,157.94 123.823,157.927 123.797,157.922 123.757,157.913 123.693,157.899 123.653,157.897 
					123.63,157.889 123.566,157.876 123.503,157.862 123.443,157.852 123.38,157.839 123.317,157.821 123.258,157.809 
					123.239,157.803 123.196,157.792 123.136,157.777 123.106,157.771 123.076,157.759 123.017,157.747 122.957,157.733 
					122.898,157.712 122.841,157.697 122.841,157.697 122.779,157.681 122.724,157.662 122.668,157.646 122.609,157.629 
					122.387,157.557 122.338,157.54 122.333,157.535 122.279,157.518 122.224,157.495 122.172,157.475 122.119,157.458 
					122.066,157.436 122.016,157.416 122.016,154.912 				"/>
				<polygon fill-rule="evenodd" clip-rule="evenodd" fill="#C98C77" points="126.848,33.258 122.016,33.258 122.016,154.985 
					122.016,156.531 122.061,156.57 122.061,156.576 122.106,156.613 122.133,156.635 122.153,156.652 122.201,156.689 
					122.209,156.697 122.251,156.729 122.304,156.767 122.354,156.806 122.407,156.838 122.459,156.878 122.46,156.878 
					122.517,156.912 122.548,156.934 122.573,156.948 122.629,156.983 122.641,156.993 122.689,157.02 122.734,157.049 
					122.75,157.052 122.809,157.088 122.835,157.099 122.872,157.12 122.932,157.154 122.936,157.154 123.001,157.189 
					123.035,157.206 123.064,157.219 123.131,157.253 123.144,157.258 123.196,157.282 123.25,157.311 123.266,157.312 
					123.332,157.348 123.361,157.356 123.402,157.371 123.474,157.4 123.474,157.4 123.548,157.431 123.59,157.451 123.619,157.461 
					123.693,157.488 123.709,157.495 123.768,157.518 123.827,157.54 123.846,157.541 123.92,157.569 123.949,157.58 
					123.994,157.594 124.071,157.622 124.076,157.622 124.153,157.646 124.201,157.659 124.23,157.67 124.313,157.691 
					124.327,157.697 124.394,157.718 124.46,157.734 124.476,157.74 124.558,157.759 124.591,157.771 124.643,157.781 
					124.728,157.803 124.728,157.803 124.813,157.823 124.861,157.833 124.898,157.84 124.983,157.862 125.002,157.868 
					125.072,157.881 125.144,157.897 125.157,157.897 125.25,157.913 125.284,157.922 125.34,157.933 125.429,157.95 
					125.517,157.964 125.572,157.974 125.609,157.979 125.702,157.992 125.721,157.994 125.791,158.003 125.865,158.017 
					125.889,158.017 125.98,158.029 126.073,158.04 126.17,158.051 126.17,158.051 126.267,158.063 126.359,158.069 
					126.455,158.082 126.478,158.082 126.552,158.09 126.629,158.093 126.652,158.098 126.748,158.101 126.789,158.105 
					126.848,158.105 126.848,154.945 				"/>
				<path fill-rule="evenodd" clip-rule="evenodd" fill="#260D3F" d="M122.016,33.258c0,0,3.224,0,4.832,0
					c1.549,0,3.218,2.739,4.827,1.751h54.967l-7.26,23.057l7.26,23.052h-54.967c-1.49,0.729-3.218,1.226-4.827,1.226
					c-1.611,0-3.456-0.615-4.832-1.226C122.016,65.751,122.016,33.258,122.016,33.258z"/>
				<path fill-rule="evenodd" clip-rule="evenodd" fill="#190629" d="M126.848,33.258L126.848,33.258h4.827v47.86l0,0
					c-1.49,0.729-3.218,1.226-4.827,1.226V33.258z"/>
				<polygon fill-rule="evenodd" clip-rule="evenodd" fill="#190629" points="169.784,35.009 268.729,35.009 268.729,81.118 
					148.125,81.118 				"/>
			</g>
			<g>
				<g>
					<path fill="#FFFFFF" d="M150.216,64.984h2.127V52.867h3.089v-1.949h-8.223v1.949h3.007V64.984z M256.79,43.592H142.232h-2.129
						v28.725h2.129H256.79h2.131v-2.113V45.705v-2.113H256.79z M256.79,70.204H142.232V45.705H256.79V70.204z M167.768,54.584
						l1.364,10.399h2.369l1.289-10.399l0.731,10.399h2.094l-1.034-14.066h-2.947l-1.335,9.558l-1.345-9.558h-2.965l-0.973,14.066
						h2.099L167.768,54.584z M178.767,62.642h4.322l0.549,2.342h2.098l-3.618-14.066h-2.416l-3.756,14.066h2.279L178.767,62.642z
						 M180.93,53.695l1.65,6.975h-3.292L180.93,53.695z M208.046,64.984l0.704-2.442h3.853l0.689,2.442h2.164l-3.617-14.066h-2.217
						l-3.755,14.066H208.046z M210.753,53.695l1.448,6.975h-2.988L210.753,53.695z M227.828,62.542h3.848l0.689,2.442h2.166
						l-3.619-14.066h-2.213l-3.756,14.066h2.181L227.828,62.542z M229.826,53.695l1.45,6.975h-2.988L229.826,53.695z
						 M245.213,62.542h3.852l0.685,2.442h2.166l-3.619-14.066h-2.212l-3.754,14.066h2.175L245.213,62.542z M247.21,53.695
						l1.45,6.975h-2.988L247.21,53.695z M218.288,59.099h3.818v5.885h2.127V50.918h-2.127v6.25h-3.818v-6.25h-2.127v14.066h2.127
						V59.099z M242.218,63.039h-4.757V50.918h-2.127v14.066h6.38L242.218,63.039z M203.605,64.984l3.755-14.066h-2.384
						l-2.706,11.191l-2.535-11.191h-2.365l3.614,14.066H203.605z M159.968,65.097c3.411,0,3.768-3.168,3.842-3.736
						c0.073-0.56,0.11-2.705,0.114-3.387v-0.013v-0.022h-0.004c0-0.702-0.056-2.261-0.16-3.384c-0.048-0.52-0.396-3.736-3.806-3.736
						c-3.41,0-3.766,3.165-3.84,3.736c-0.074,0.558-0.115,2.703-0.115,3.384v0.012v0.023c0.004,0.705,0.06,2.264,0.163,3.387
						C156.209,61.879,156.555,65.097,159.968,65.097z M158.174,55.179c0.03-0.37,0.241-2.42,1.787-2.42
						c1.542,0,1.724,1.958,1.753,2.42c0.053,0.843,0.078,1.965,0.082,2.744c-0.004,0.746-0.019,2.474-0.048,2.812
						c-0.03,0.372-0.245,2.42-1.787,2.42c-1.545,0-1.726-1.955-1.752-2.42c-0.053-0.843-0.078-1.968-0.082-2.747
						C158.13,57.24,158.145,55.517,158.174,55.179z M185.894,55.092v0.015c0.085,2.074,1.331,2.962,2.762,3.67
						c1.204,0.601,2.061,1.25,2.061,2.429c0,1.2-0.737,1.672-1.712,1.672c-0.878,0-2.81,0-2.81,0l0.503,2.106c0,0,0.827,0,2.344,0
						c2.146,0,3.955-1.243,3.955-3.913c0-0.183-0.011-0.41-0.029-0.577c-0.189-1.859-1.383-2.693-2.735-3.368
						c-1.209-0.597-2.065-1.197-2.065-2.376c0-1.199,0.742-1.721,1.712-1.721c0.88,0,2.814,0,2.814,0l-0.508-2.11
						c0,0-0.823,0-2.343,0c-2.128,0-3.927,1.231-3.951,3.859l-0.005,0.045v0.006v0.005c0,0.021,0.005,0.037,0.005,0.056
						C185.891,54.938,185.891,55.042,185.894,55.092z"/>
				</g>
			</g>
		</g>
		<rect x="79.4" y="53.226" fill="#FFFFFF" width="16.552" height="17.165"/>
	</g>
</g>
</svg>
