<svg xmlns="http://www.w3.org/2000/svg" width="156" height="156">
  <path class="ball" fill="#FFD69F" d="M147.135 85.768c.873-8.75 1.003-17.603.226-26.36-.613-6.889-2.673-13.56-5.896-19.616a2.378 2.378 0 0 0-.372-.7c-3.563-6.466-8.474-12.189-14.421-16.641-6.655-4.98-14.047-8.244-21.679-11.432-9.917-4.144-20.12-3.669-30.73-3.87-6.469-.121-12.846.338-18.877 1.624 2.194-1.088 4.34-2.259 6.274-3.83 2.994-2.426-1.261-6.626-4.224-4.226-5.383 4.364-12.44 6.025-17.903 10.631-2.01 1.693-4.029 3.363-6.046 5.037-4.164 2.497-7.974 6.358-11.568 9.542-.281.229-.556.456-.833.686-.112.091-.192.188-.281.281-.262.222-.52.441-.779.652-6.946 5.67-12.447 15.011-15.646 23.29-6.223 16.114-5.596 34.926.508 50.931a53.76 53.76 0 0 0 4.729 9.463c.132.316.315.603.555.851 7.249 11.078 17.929 18.607 29.617 25.945 8.025 5.035 15.439 5.867 24.74 6.756 10.747 1.035 21.813 1.982 32.489-.083 17.649-3.408 33.033-17.133 43.247-31.246-.688 4.227-1.848 8.855-4.648 11.261-2.929 2.511 1.316 6.72 4.225 4.22 4.608-3.954 5.613-11.429 6.609-17.035 1.45-8.159 1.352-16.154 1.235-24.412-.01-.706-.22-1.27-.551-1.719zm-11.241-43.33c1.175 9.232.354 17.871-2.219 26.181.007-.172.028-.344.031-.52.414-13.926-5.51-31.617-14.309-43.487 6.988 4.593 12.627 10.672 16.497 17.826zm-24.255-17.89c5.239 4.97 8.155 12.946 10.837 19.481 2.625 6.407 4.376 13.093 5.003 19.952-3.591-8.365-9.549-15.614-17.086-21.407-6.3-4.841-14.318-9.259-21.667-12.249-8.241-3.354-17.34-3.033-26.035-1.871-3.758.5-7.586 1.367-11.408 2.502 11.944-10.409 26.753-16.978 43.163-15.549.395.035.738-.012 1.048-.104 6.091 1.904 11.768 5.094 16.145 9.245zm-52.74 10.658c6.634-1.679 13.666-1.741 20.455-1.308 7.189.463 14.257 5.237 20.466 9.103.276.247.524.537.77.829-9.356-1.444-18.206-2-27.851.09-12.105 2.619-23.303 7.076-34.416 12.455a111.97 111.97 0 0 0-3.113 1.58c-.494-4.592-.599-9.25.33-13.003.029-.111.029-.214.045-.321 7.436-4.291 15.546-7.458 23.314-9.425zm-5.313 43.402c3.33-2.132 7.45-3.478 11.431-4.698 1.19 2.102 2.444 4.189 3.696 6.302.103.172.217.332.319.504-2.457 3.146-5.267 6.031-8.207 8.589-2.76 2.4-5.89 4.57-9.247 6.515-2.392-2.236-4.558-4.593-6.4-6.989a34.64 34.64 0 0 1-2.161-3.204c3.783-1.953 6.981-4.716 10.569-7.019zm-13.273 1.696c-1.519-3.623-2.573-7.443-3.346-11.354a203.456 203.456 0 0 1-.862-4.664 178.474 178.474 0 0 1 7.523-3.856 143.364 143.364 0 0 1 14.133-5.938c.6 5.086 2.281 9.704 4.458 14.156-2.361.816-4.706 1.681-6.996 2.681-5.443 2.37-9.738 6.275-14.91 8.975zm29.911-14.309c-.823.272-1.649.54-2.478.81-2.221-4.527-3.858-9.277-4.182-14.25 2.65-.822 5.325-1.575 8.05-2.247a59.672 59.672 0 0 1 9.69-1.569c-1.313 5.188-2.396 10.426-3.961 15.53a46.38 46.38 0 0 0-7.119 1.726zm4.665 5.048c-.645 1.492-1.412 2.938-2.241 4.353a111.984 111.984 0 0 1-1.985-3.239 56.653 56.653 0 0 1 4.226-1.114zM63.164 94.997c3.513-2.731 6.564-5.822 9.28-9.197a65.636 65.636 0 0 0 5.124 6.097c3.655 3.839 8.492 6.202 12.538 9.574-2.803 3.369-5.872 6.497-9.186 9.295-8.7-1.113-17.431-5.383-24.706-10.998 2.429-1.485 4.765-3.07 6.95-4.771zm12.994-14.293a79.334 79.334 0 0 0 2.817-4.585c1.116-1.974 2.032-4.026 2.83-6.131 6.97-.558 13.78.384 21.266 2.449.314.087.607.111.886.107-1.018 8.857-5.007 16.983-10.18 24.197-6.298-5.356-12.65-9.231-17.619-16.037zm7.676-17.024c1.373-5.007 2.379-10.146 3.693-15.118 5.186.109 10.365.799 15.909 1.768 1.172 5.229 1.07 11.657.888 16.256-6.888-1.882-13.677-3.074-20.49-2.906zM40.019 91.847c1.721 2.46 3.692 4.777 5.851 6.951a84.057 84.057 0 0 1-8.457 3.422c-1.445-2.731-2.808-5.488-4.222-8.09-4.137-7.612-5.69-15.459-7.285-23.642a101.71 101.71 0 0 1 4.798-3.096c.041.231.076.473.113.7 1.391 8.725 4.118 16.488 9.202 23.755zm10.454 11.129c7.102 5.795 15.638 10.111 24.427 12.352-5.151 3.472-10.728 6.19-16.586 7.936-4.336-2.101-8.362-4.588-11.542-7.606-2.519-2.389-4.587-5.245-6.44-8.274a92.88 92.88 0 0 0 10.141-4.408zm32.512 13.796c.703.072 1.406.157 2.105.201 5.883.37 11.593-.798 16.965-3.002-8.05 7.278-18.807 14.654-28.565 14.347a2.83 2.83 0 0 0-1.478.335 159.46 159.46 0 0 1-5.637-1.985c5.912-2.475 11.495-5.835 16.61-9.896zm6.707-5.999a82.414 82.414 0 0 0 7.287-8.339c8.586-11.305 13.231-23.346 13.298-37.595.021-4.389 0-10.128-1.101-15.392 9.425 7.89 15.711 18.662 16.101 31.563.006.247.043.478.096.693-1.677 4.732-4.145 9.29-6.993 13.56-7.676 8.12-17.66 14.102-28.688 15.51zM43.425 18.947c7.66-4.56 17.226-5.633 26.313-5.785C57.594 17.663 46.815 25.947 38.3 36c-4.553 2.224-8.944 4.858-13.013 7.879 2.704-10.229 8.937-19.457 18.138-24.932zM23.858 52.913c1.636-1.425 3.373-2.753 5.154-4.029-.213 3.96.174 8.146.721 12.166a120.121 120.121 0 0 0-5.073 3.218c-.773-3.731-1.019-7.557-.802-11.355zM8.027 59.457c1.627-8.549 7.112-17.851 12.761-24.426a25.104 25.104 0 0 1 2.118-2.163c-2.674 5.436-3.964 11.018-4.392 16.689-4.464 4.233-8.295 8.995-11.211 14.19.218-1.431.454-2.861.724-4.29zm11.477 8.435a176.657 176.657 0 0 0-6.209 4.812c-1.544 1.256-3.345 2.74-4.98 4.41 1.702-7.104 5.317-13.411 10.153-18.871.182 3.199.566 6.422 1.036 9.649zm-6.538 37.268c-2.102-3.857-3.617-7.847-4.687-11.919 1.386 1.668 2.988 3.164 3.872 5.213 1.525 3.525 6.67.479 5.159-3.018-.941-2.174-2.517-3.895-4.079-5.645-2.059-2.316-2.154-4.491-2.033-7.292 2.529-3.198 7.226-6.289 9.131-7.843.082-.065.163-.123.242-.194.291 1.64.592 3.272.893 4.905 1.677 9.089 5.871 16.68 10.223 24.614-5.999 1.617-12.057 2.579-17.749 2.847-.324-.551-.658-1.09-.972-1.668zm17.997 18.779a3.08 3.08 0 0 0-1.321-.05c-4.515-3.402-8.427-7.009-11.826-11.354 5.576-.527 11.264-1.644 16.84-3.284 3.743 6.283 8.261 11.979 14.652 15.803.032.022.063.037.096.059a50.689 50.689 0 0 1-18.441-1.174zm33.564 14.871c-5.901-.536-12.002-.666-17.427-3.29-2.389-1.151-4.7-2.634-6.963-4.187 6.095.34 12.072-.307 17.826-1.809 7.341 3.34 15.328 5.979 22.672 8.026 2.635.736 5.47 1.607 8.378 2.347-8.142.659-16.638-.377-24.486-1.087zm76.172-48.942c-1.48 12.509-5.154 21.347-13.959 30.468-5.512 5.707-11.986 10.525-19.082 14.09-.566-.292-1.273-.355-2.097-.026-6.17 2.466-14.369.383-21.51-1.876 10.635-3.714 20.533-12.556 27.873-19.811 4.425-4.373 8.527-9.383 11.949-14.817a74.247 74.247 0 0 0 4.65-5.771c5.322-7.368 8.827-15.447 11.65-24.043.635-1.936 1.09-3.828 1.458-5.706.723 9.139.143 18.428-.932 27.492z"></path>
</svg>
