<svg width="1920" height="406.181">
  <g class="neco">
    <path fill="#FD8163" d="M0 189.461h1920v216.72H0z"/>
    <path fill="#FC714D" d="M0 260.733h1920V406.18H0z"/>
    <path fill="#B64A2E"
          d="M697.206 298.437h-14.398c-6.724 0-12.291 5.481-12.291 12.291v4.076h38.91v-4.076c0-6.81-5.482-12.291-12.221-12.291zM647.297 292.505h-8.093c-6.008 0-10.875 4.868-10.875 10.875v11.424h29.843V303.38c0-6.007-4.866-10.875-10.875-10.875z"/>
    <path fill="#CF5434"
          d="M684.792 298.437h-14.328a12.265 12.265 0 0 0-12.292 12.291v4.076h38.911v-4.076c0-6.81-5.482-12.291-12.291-12.291zM636.105 292.505h-8.092c-6.008 0-10.876 4.868-10.876 10.875v11.424h29.844V303.38c0-6.007-4.869-10.875-10.876-10.875z"/>
    <g fill="#F06743">
      <path
        d="M1004.857 189.461c-1.049 12.36-11.396 22.074-24.022 22.074H704.543c-2.038 0-3.86.846-5.244 2.217-1.372 1.37-2.216 3.192-2.216 5.328 0 4.094 3.369 7.463 7.46 7.463h53.907c2.16 0 4.188.897 5.636 2.347 1.547 1.449 2.434 3.476 2.434 5.731a8.01 8.01 0 0 0 8.063 8.064H932.05c5.036 0 9.573 2.012 12.806 5.328 3.317 3.232 5.33 7.771 5.33 12.72 0 9.984-8.15 18.035-18.136 18.035H287.185a20.48 20.48 0 0 1-14.52-6.011c-3.719-3.717-6.011-8.857-6.011-14.464 0-11.369 9.178-20.56 20.53-20.56h97.441c2.78 0 5.295-1.114 7.073-2.898 1.771-1.855 2.898-4.279 2.898-7.073 0-5.487-4.473-9.972-9.972-9.972h-26.973c-12.319 0-22.305-10-22.305-22.304v-6.026h669.511zM1920 250.464h-437.782c-7.789 0-14.115 6.406-14.115 14.197 0 7.789-6.324 14.112-14.198 14.112h-280.333c-6.867 0-12.4 5.616-12.4 12.483a12.372 12.372 0 0 0 12.4 12.396H1920v-53.188zM1435.808 215.969a10.43 10.43 0 0 1-3.113 7.461c-1.946 1.945-4.576 3.113-7.474 3.113h-120.712c-6.603 0-11.998 5.311-11.998 11.998 0 3.258-1.293 6.308-3.487 8.438-2.204 2.203-5.168 3.57-8.51 3.57h-167.479c-8.176 0-14.763-6.67-14.763-14.761 0-4.052-1.583-7.742-4.31-10.386-2.628-2.715-6.32-4.295-10.371-4.295h-9.153c-8.103 0-14.763-6.588-14.763-14.765V189.46h296.957c2.295 9.126 10.562 15.919 20.441 15.919h48.147c5.81.001 10.588 4.695 10.588 10.59z"/>
    </g>
    <g>
      <path fill="#CF5434"
            d="M773.464 201.649H654.108V.005h21.688c53.91 0 97.667 43.755 97.667 97.713v103.931zM887.563 201.649h-76.464V88.428h16.744c32.946 0 59.72 26.724 59.72 59.713v53.508z"/>
      <path fill="#B64A2E"
            d="M729.754 52.191v149.458H491.909v-15.944c0-5.832.913-11.475 2.649-16.805 1.313-3.887 3.043-7.717 5.133-11.19 9.462-15.54 26.6-25.978 46.21-25.978 10.011 0 19.011-4.035 25.576-10.603 1.114-1.107 2.176-2.281 3.099-3.519 2.578-3.32 4.577-7.113 5.922-11.191a38.502 38.502 0 0 0 1.594-10.899v-.307c.137-6.497 2.78-12.349 7.035-16.573 4.305-4.351 10.293-6.991 16.881-6.991a23.806 23.806 0 0 0 16.884-7.005c3.513-3.546 5.984-8.175 6.692-13.382.203-1.154.27-2.321.27-3.5v-3.316c0-1.503.13-2.954.229-4.375C632.312 17.593 651.246 0 674.343 0h3.273c28.828 0 52.138 23.35 52.138 52.191zM862.657 126.008v75.642h-75.193v-75.642a48 48 0 0 1 .081-2.785c.279-3.934 1.249-7.676 2.589-11.207 5.599-13.836 19.098-23.592 34.877-23.592 20.804-.001 37.646 16.844 37.646 37.584z"/>
      <path fill="#FC714D"
            d="M713.347 52.191v149.458H475.506v-15.944c0-5.832.913-11.475 2.643-16.805 1.232-3.887 3.044-7.717 5.14-11.19 9.462-15.54 26.6-25.978 46.124-25.978 10.011 0 19.098-4.035 25.659-10.603 1.117-1.107 2.093-2.281 3.102-3.519a35.218 35.218 0 0 0 5.836-11.191c1.103-3.437 1.679-7.114 1.679-10.899v-.307c.052-6.497 2.778-12.349 6.95-16.573 4.306-4.351 10.293-6.991 16.881-6.991a23.812 23.812 0 0 0 16.884-7.005c3.597-3.546 5.985-8.175 6.779-13.382.118-1.154.269-2.321.269-3.5v-3.316c0-1.503.051-2.954.229-4.375C615.822 17.593 634.764 0 657.854 0h3.356c28.742 0 52.137 23.35 52.137 52.191z"/>
      <path fill="#CF5434"
            d="M688.387 45.667c0 1.556-.702 2.965-1.666 3.973-1.049 1.005-2.456 1.623-3.972 1.623h-69.567c.118-1.154.269-2.321.269-3.5v-3.316c0-1.503.051-2.954.229-4.375h69.07c3.112 0 5.637 2.523 5.637 5.595zM518.233 163.349a5.555 5.555 0 0 1-1.666 3.973c-.964.962-2.372 1.579-3.889 1.579h-34.53c1.232-3.887 3.044-7.717 5.14-11.19h29.391c3.03-.001 5.554 2.521 5.554 5.638zM639.24 112.016c0 1.558-.615 2.967-1.664 3.966-.965 1.013-2.387 1.63-3.975 1.63h-75.429a35.218 35.218 0 0 0 5.836-11.191h69.593c3.103-.001 5.639 2.494 5.639 5.595z"/>
      <path fill="#FC714D"
            d="M848.66 126.008v75.642h-75.193v-75.642c0-.936.025-1.847.166-2.785a36.808 36.808 0 0 1 2.587-11.207c5.515-13.836 19.014-23.592 34.796-23.592 20.8-.001 37.644 16.844 37.644 37.584z"/>
      <path fill="#CF5434"
            d="M801.384 117.611c0 1.547-.702 2.954-1.667 3.974-1.048.989-2.457 1.638-3.972 1.638h-22.112a36.808 36.808 0 0 1 2.587-11.207h19.525c3.114 0 5.639 2.531 5.639 5.595zM830.008 157.71a5.606 5.606 0 0 1-1.666 3.973 5.603 5.603 0 0 1-3.973 1.666h-50.902v-11.195h50.902c3.115-.001 5.639 2.442 5.639 5.556z"/>
    </g>
    <g>
      <path fill="#CF5434"
            d="M1264.562 128.777a14.896 14.896 0 0 0-14.926-14.922h-22.384c-23.197 0-42.032 18.815-42.032 42.031v45.763h123.277v-29.018c0-15.912-12.935-28.924-28.933-28.924-8.265.001-15.002-6.665-15.002-14.93z"/>
      <path fill="#B64A2E"
            d="M1246.449 128.777a14.892 14.892 0 0 0-14.923-14.922h-22.382c-23.198 0-42.031 18.815-42.031 42.031v45.763h123.19v-29.018c0-15.912-12.936-28.924-28.925-28.924a14.9 14.9 0 0 1-14.929-14.93z"/>
      <path fill="#FC714D"
            d="M1275.989 172.632v29.018h-123.19v-45.763c0-3.356.359-6.563 1.127-9.678 1.114-4.755 2.962-9.137 5.528-13.083a41.966 41.966 0 0 1 35.362-19.271h22.397a14.888 14.888 0 0 1 14.922 14.922 15.09 15.09 0 0 0 4.346 10.574c2.753 2.666 6.483 4.356 10.575 4.356 15.071 0 27.418 11.452 28.839 26.189.067.9.094 1.811.094 2.736z"/>
      <path fill="#CF5434"
            d="M1207.844 139.659c0 1.795-.681 3.448-1.862 4.625-1.17 1.168-2.832 1.925-4.607 1.925h-47.448c1.114-4.755 2.962-9.137 5.528-13.083h41.92c3.558 0 6.469 2.967 6.469 6.533zM1275.989 172.632v10.28h-34.793a6.524 6.524 0 0 1-6.551-6.551c0-1.77.682-3.436 1.861-4.603 1.254-1.18 2.819-1.861 4.689-1.861h34.699c.068.899.095 1.81.095 2.735z"/>
    </g>
  </g>

  <g class="footer--car">
    <g class="footer--car-holder">
      <svg class="footer--car" xmlns="http://www.w3.org/2000/svg" width="243" height="154">
        <path fill="#86A0D7"
              d="M172.186 88.406v35.519c0 .431-.029.842-.092 1.252a8.163 8.163 0 0 1-2.186 4.37 8.035 8.035 0 0 1-5.797 2.464H26.367c-4.451 0-8.073-3.623-8.073-8.086V88.406h153.892z"/>
        <path fill="#A0B9F0"
              d="M172.186 88.406v35.519c0 .431-.029.842-.092 1.252a8.163 8.163 0 0 1-2.186 4.37H28.679c-4.456 0-8.075-3.622-8.075-8.086V88.406h151.582z"/>
        <path fill="#C2D3F8"
              d="M172.186 88.406v35.519c0 .431-.029.842-.092 1.252H27.262a3.096 3.096 0 0 1-3.098-3.099V88.406h148.022z"/>
        <g class="wheel wheel--1">
          <path class="wheell--1-a" fill="#414252" d="M116.683 136.292v-8.568h-3.522a18.437 18.437 0 0 0-2.219-5.356l2.492-2.493-6.061-6.06-2.493 2.493a18.365 18.365 0 0 0-5.353-2.217v-3.523h-8.572v3.523a18.406 18.406 0 0 0-5.358 2.217l-2.49-2.493-6.059 6.06 2.491 2.493a18.362 18.362 0 0 0-2.217 5.356h-3.524v8.568h3.524a18.26 18.26 0 0 0 2.217 5.356l-2.491 2.494 6.059 6.059 2.49-2.49a18.445 18.445 0 0 0 5.358 2.217v3.525h8.572v-3.525a18.392 18.392 0 0 0 5.353-2.217l2.493 2.49 6.061-6.059-2.492-2.494a18.369 18.369 0 0 0 2.219-5.356h3.522z"/>
          <path class="wheell--1-b" fill="#414252" d="M114.628 129.771v4.474h-1.465c-.953 0-1.784.647-1.999 1.568a16.1 16.1 0 0 1-1.971 4.76 2.057 2.057 0 0 0 .298 2.524l.233.236.802.813-3.15 3.16-1.046-1.047c-.39-.4-.923-.605-1.446-.605-.371 0-.749.102-1.076.306a16.163 16.163 0 0 1-4.763 1.972 2.042 2.042 0 0 0-1.568 1.99v1.477h-4.475v-1.477c0-.942-.645-1.773-1.568-1.99a16.082 16.082 0 0 1-4.76-1.972 2.06 2.06 0 0 0-1.077-.306c-.526 0-1.056.205-1.446.605l-1.05 1.047-3.148-3.16 1.039-1.049c.667-.663.79-1.712.296-2.524a16.222 16.222 0 0 1-1.971-4.76 2.042 2.042 0 0 0-1.998-1.568h-1.47v-4.474h1.47c.5 0 .982-.186 1.343-.501.319-.267.553-.637.655-1.068a16.23 16.23 0 0 1 1.971-4.759 2.062 2.062 0 0 0-.296-2.526l-1.039-1.046 3.148-3.161 1.05 1.05a2.039 2.039 0 0 0 2.523.297 16.068 16.068 0 0 1 4.76-1.971 2.04 2.04 0 0 0 1.568-1.99v-1.478h4.475v1.478a2.04 2.04 0 0 0 1.568 1.99c1.695.4 3.294 1.064 4.763 1.971a2.04 2.04 0 0 0 2.522-.297l1.046-1.05 3.15 3.161-1.035 1.046a2.061 2.061 0 0 0-.298 2.526 16.191 16.191 0 0 1 1.971 4.759 2.041 2.041 0 0 0 1.999 1.569h1.465z"/>
          <path class="wheell--1-c" fill="#54556A" d="M114.628 129.771v4.474h-1.465c-.953 0-1.784.647-1.999 1.568a16.1 16.1 0 0 1-1.971 4.76 2.057 2.057 0 0 0 .298 2.524l.233.236a20.348 20.348 0 0 1-10.896 3.152c-10.187 0-18.629-7.46-20.168-17.216.319-.267.553-.637.655-1.068a16.23 16.23 0 0 1 1.971-4.759 2.062 2.062 0 0 0-.296-2.526l-1.039-1.046 3.148-3.161 1.05 1.05a2.039 2.039 0 0 0 2.523.297 16.068 16.068 0 0 1 4.76-1.971 2.04 2.04 0 0 0 1.568-1.99v-1.478h4.475v1.478a2.04 2.04 0 0 0 1.568 1.99c1.695.4 3.294 1.064 4.763 1.971a2.04 2.04 0 0 0 2.522-.297l1.046-1.05 3.15 3.161-1.035 1.046a2.061 2.061 0 0 0-.298 2.526 16.191 16.191 0 0 1 1.971 4.759 2.041 2.041 0 0 0 1.999 1.569h1.467z"/>
        </g>
        <g class="wheel wheel--2">
          <path class="wheell--2-a" fill="#414252"
                d="M164.457 136.292v-8.568h-3.525a18.32 18.32 0 0 0-2.215-5.356l2.489-2.493-6.058-6.06-2.493 2.493a18.337 18.337 0 0 0-5.356-2.217v-3.523h-8.568v3.523a18.389 18.389 0 0 0-5.357 2.217l-2.489-2.493-6.062 6.06 2.489 2.493a18.301 18.301 0 0 0-2.214 5.356h-3.528v8.568h3.528a18.2 18.2 0 0 0 2.214 5.356l-2.489 2.494 6.062 6.059 2.489-2.49a18.427 18.427 0 0 0 5.357 2.217v3.525h8.568v-3.525a18.342 18.342 0 0 0 5.356-2.217l2.493 2.49 6.058-6.059-2.489-2.494a18.252 18.252 0 0 0 2.215-5.356h3.525z"/>
          <path class="wheell--2-b" fill="#414252"
                d="M162.407 129.771v4.474h-1.476c-.942 0-1.775.647-1.992 1.568a16.233 16.233 0 0 1-1.971 4.76 2.032 2.032 0 0 0 .301 2.524l.777.783.259.266-3.161 3.16-1.035-1.047a2.006 2.006 0 0 0-.749-.475 1.946 1.946 0 0 0-.709-.131c-.37 0-.739.102-1.068.306a15.985 15.985 0 0 1-4.758 1.972 2.054 2.054 0 0 0-1.581 1.99v1.477h-4.462v-1.477c0-.942-.657-1.773-1.581-1.99a16.156 16.156 0 0 1-4.748-1.972 2.089 2.089 0 0 0-1.079-.306c-.534 0-1.058.205-1.447.605l-1.046 1.047-3.16-3.16 1.048-1.049a2.063 2.063 0 0 0 .299-2.524 15.851 15.851 0 0 1-1.97-4.76 2.059 2.059 0 0 0-2.004-1.568h-1.466v-4.474h1.466c.957 0 1.775-.645 2.004-1.569.152-.645.348-1.281.574-1.906.367-.996.831-1.951 1.396-2.853a2.067 2.067 0 0 0-.299-2.526l-.347-.349-.701-.697 3.16-3.161 1.046 1.05c.39.396.913.604 1.447.604a2.1 2.1 0 0 0 1.079-.307 16.154 16.154 0 0 1 4.748-1.971 2.051 2.051 0 0 0 1.581-1.99v-1.478h4.462v1.478c0 .944.657 1.774 1.581 1.99 1.684.4 3.282 1.064 4.759 1.971.329.203.698.307 1.068.307.534 0 1.058-.208 1.458-.604l1.035-1.05 3.161 3.161-1.036 1.046a2.036 2.036 0 0 0-.301 2.526 16.3 16.3 0 0 1 1.971 4.759 2.044 2.044 0 0 0 1.992 1.569h1.475z"/>
          <path class="wheell--2-c" fill="#54556A"
                d="M162.407 129.771v4.474h-1.476c-.942 0-1.775.647-1.992 1.568a16.233 16.233 0 0 1-1.971 4.76 2.032 2.032 0 0 0 .301 2.524l.777.783a19.319 19.319 0 0 1-4.687 1.904c-.75.207-1.518.373-2.3.482-.973.146-1.97.219-2.984.219-11.205 0-20.305-9.018-20.405-20.19-.012-.072-.012-.145-.012-.216 0-1.908.268-3.756.762-5.512.192-.727.438-1.436.728-2.122l1.731-1.736 1.046 1.05c.39.396.913.604 1.447.604a2.1 2.1 0 0 0 1.079-.307 16.154 16.154 0 0 1 4.748-1.971 2.051 2.051 0 0 0 1.581-1.99v-1.478h4.462v1.478c0 .944.657 1.774 1.581 1.99 1.684.4 3.282 1.064 4.759 1.971.329.203.698.307 1.068.307.534 0 1.058-.208 1.458-.604l1.035-1.05 3.161 3.161-1.036 1.046a2.036 2.036 0 0 0-.301 2.526 16.3 16.3 0 0 1 1.971 4.759 2.044 2.044 0 0 0 1.992 1.569h1.477z"/>
        </g>
        <g class="wheel wheel--3">
          <path class="wheell--3-a" fill="#414252"
                d="M68.908 136.292v-8.568h-3.525a18.378 18.378 0 0 0-2.217-5.356l2.493-2.493-6.063-6.06-2.492 2.493a18.365 18.365 0 0 0-5.353-2.217v-3.523h-8.573v3.523a18.417 18.417 0 0 0-5.356 2.217l-2.488-2.493-6.062 6.06 2.493 2.493a18.285 18.285 0 0 0-2.219 5.356h-3.525v8.568h3.525a18.184 18.184 0 0 0 2.219 5.356l-2.493 2.494 6.062 6.059 2.488-2.49a18.456 18.456 0 0 0 5.356 2.217v3.525h8.573v-3.525a18.392 18.392 0 0 0 5.353-2.217l2.492 2.49 6.063-6.059-2.493-2.494a18.31 18.31 0 0 0 2.217-5.356h3.525z"/>
          <path class="wheell--3-b" fill="#414252"
                d="M66.854 129.771v4.474h-1.47c-.955 0-1.772.647-1.999 1.568a15.86 15.86 0 0 1-1.969 4.76 2.056 2.056 0 0 0 .296 2.524l.481.484.564.564-3.161 3.16-1.045-1.047a1.869 1.869 0 0 0-1.18-.575 1.165 1.165 0 0 0-.268-.03 2.08 2.08 0 0 0-1.076.306c-.063.032-.114.073-.174.105a15.875 15.875 0 0 1-4.578 1.866 2.052 2.052 0 0 0-1.579 1.99v1.477h-4.464v-1.477c0-.942-.655-1.773-1.579-1.99a16.35 16.35 0 0 1-4.76-1.972 2.012 2.012 0 0 0-1.068-.306c-.531 0-1.054.205-1.453.605l-1.039 1.047-3.158-3.16 1.036-1.049a2.033 2.033 0 0 0 .297-2.524 16.438 16.438 0 0 1-1.97-4.76 2.043 2.043 0 0 0-1.989-1.568H28.07v-4.474h1.479c.839 0 1.588-.512 1.885-1.271.044-.093.086-.194.104-.299a16.474 16.474 0 0 1 1.97-4.759 2.036 2.036 0 0 0-.297-2.526l-.976-.983-.061-.063.112-.111 3.046-3.05 1.039 1.05a2.06 2.06 0 0 0 1.453.604c.371 0 .742-.104 1.068-.307a16.347 16.347 0 0 1 4.76-1.971 2.05 2.05 0 0 0 1.579-1.99v-1.478h4.464v1.478a2.05 2.05 0 0 0 1.579 1.99c1.683.4 3.284 1.064 4.752 1.971.338.203.709.307 1.076.307.534 0 1.058-.208 1.447-.604l1.045-1.05 3.161 3.161-1.046 1.046a2.06 2.06 0 0 0-.296 2.526 15.923 15.923 0 0 1 1.969 4.759 2.05 2.05 0 0 0 1.999 1.569h1.473z"/>
          <path class="wheell--3-c" fill="#54556A"
                d="M66.854 129.771v4.474h-1.47c-.955 0-1.772.647-1.999 1.568a15.86 15.86 0 0 1-1.969 4.76 2.056 2.056 0 0 0 .296 2.524l.481.484a20.061 20.061 0 0 1-4.821 2.103c-.502.142-1.006.266-1.518.381a20.69 20.69 0 0 1-4.154.421c-10.457 0-19.075-7.85-20.266-17.985a21.669 21.669 0 0 1-.141-2.421c0-2.144.325-4.208.942-6.146a.99.99 0 0 1 .052-.174l3.046-3.05 1.039 1.05a2.06 2.06 0 0 0 1.453.604c.371 0 .742-.104 1.068-.307a16.347 16.347 0 0 1 4.76-1.971 2.05 2.05 0 0 0 1.579-1.99v-1.478h4.464v1.478a2.05 2.05 0 0 0 1.579 1.99c1.683.4 3.284 1.064 4.752 1.971.338.203.709.307 1.076.307.534 0 1.058-.208 1.447-.604l1.045-1.05 3.161 3.161-1.046 1.046a2.06 2.06 0 0 0-.296 2.526 15.923 15.923 0 0 1 1.969 4.759 2.05 2.05 0 0 0 1.999 1.569h1.472z"/>

        </g>
        <path fill="#86A0D7"
              d="M148.875 131.979a5.857 5.857 0 0 1-.972 3.242 5.888 5.888 0 0 1-4.927 2.656 5.905 5.905 0 0 1-5.899-5.898 5.86 5.86 0 0 1 3.169-5.222 5.756 5.756 0 0 1 2.73-.677 5.891 5.891 0 0 1 5.899 5.899zM101.107 131.979a5.793 5.793 0 0 1-.994 3.253 5.868 5.868 0 0 1-4.905 2.646 5.898 5.898 0 0 1-5.896-5.898 5.864 5.864 0 0 1 3.16-5.222 5.827 5.827 0 0 1 2.736-.677 5.897 5.897 0 0 1 5.899 5.898z"/>
        <path fill="#C2D3F8"
              d="M148.875 131.979a5.857 5.857 0 0 1-.972 3.242 5.76 5.76 0 0 1-2.73.675 5.888 5.888 0 0 1-5.898-5.898c0-1.19.356-2.307.972-3.24a5.756 5.756 0 0 1 2.73-.677 5.89 5.89 0 0 1 5.898 5.898zM101.107 131.979a5.793 5.793 0 0 1-.994 3.253 5.791 5.791 0 0 1-2.719.664 5.898 5.898 0 0 1-5.9-5.898c0-1.19.361-2.307.978-3.24a5.827 5.827 0 0 1 2.736-.677 5.897 5.897 0 0 1 5.899 5.898z"/>
        <path fill="#E1EAFD"
              d="M145.511 129.924a1.248 1.248 0 1 1-2.495-.003 1.248 1.248 0 0 1 2.495.003zM97.55 129.924a1.248 1.248 0 1 1-1.246-1.251c.686 0 1.246.56 1.246 1.251z"/>
        <path fill="#86A0D7"
              d="M53.329 131.979a5.834 5.834 0 0 1-.973 3.242 5.905 5.905 0 0 1-4.926 2.656 5.898 5.898 0 1 1 5.899-5.898z"/>
        <path fill="#C2D3F8"
              d="M53.329 131.979a5.834 5.834 0 0 1-.973 3.242 5.897 5.897 0 0 1-8.638-5.223c0-1.201.37-2.317.993-3.253a5.807 5.807 0 0 1 2.72-.664 5.897 5.897 0 0 1 5.898 5.898z"/>
        <path fill="#E1EAFD" d="M49.771 129.924a1.248 1.248 0 1 1-1.248-1.251c.692 0 1.248.56 1.248 1.251z"/>
        <path fill="#86A0D7"
              d="M172.186 85.595v2.812h-68.227V62.245c0-5.1 4.137-9.235 9.233-9.235h25.647c4.467 0 8.755 1.714 11.975 4.791L166.8 73.017a17.376 17.376 0 0 1 5.386 12.578z"/>
        <path fill="#A0B9F0"
              d="M172.186 85.595v2.812h-62.295V62.245c0-5.1 4.133-9.235 9.233-9.235h19.716c4.467 0 8.755 1.714 11.975 4.791L166.8 73.017a17.376 17.376 0 0 1 5.386 12.578z"/>
        <path fill="#C2D3F8"
              d="M172.186 85.595v2.812h-55.503V62.245c0-5.1 4.134-9.235 9.234-9.235h12.923c4.467 0 8.755 1.714 11.975 4.791L166.8 73.017a17.376 17.376 0 0 1 5.386 12.578z"/>
        <path class="antena--1" fill="#414252" d="M27.398 79.174c-.849 0-1.539-.787-1.539-1.759V35.274c0-.968.69-1.755 1.539-1.755.85 0 1.54.787 1.54 1.755v42.141c0 .972-.69 1.759-1.54 1.759z"/>
        <g class="antena-holder">
          <g class="antena">
            <path fill="#BA2A2C"
                  d="M31.16 3.766v15.391h-7.52V3.766A3.76 3.76 0 0 1 27.393 0h.014a3.766 3.766 0 0 1 3.753 3.766z"/>
            <path fill="#F0373A"
                  d="M31.16 3.766v15.391h-3.754V3.766a3.76 3.76 0 0 1 1.877-3.26 3.764 3.764 0 0 1 1.877 3.26z"/>
            <path fill="#86A0D7"
                  d="M54.798 11.636a27.266 27.266 0 0 1-4.813 14.373c-.114.162-.237.339-.359.504C44.65 33.394 36.535 37.88 27.393 37.88 12.653 37.88.615 26.235 0 11.636h54.798z"/>
            <path fill="#A0B9F0"
                  d="M54.798 11.636a27.266 27.266 0 0 1-4.813 14.373c-.114.162-.237.339-.359.504a27.323 27.323 0 0 1-19.296 7.939c-13.563 0-24.84-9.86-27.024-22.816h51.492z"/>
            <path fill="#C2D3F8"
                  d="M54.798 11.636a27.266 27.266 0 0 1-4.813 14.373 27.258 27.258 0 0 1-15.82 5.028c-12.353 0-22.795-8.168-26.223-19.401h46.856z"/>
          </g>
        </g>
        <g>
            </g>
        <path fill="#BA2A2C"
              d="M36.506 79.431v8.976H18.294v-8.976a4.61 4.61 0 0 1 4.616-4.617h8.978a4.611 4.611 0 0 1 4.618 4.617z"/>
        <path fill="#F0373A"
              d="M36.506 79.431v8.976H20.604v-8.976a4.609 4.609 0 0 1 4.613-4.617h6.671a4.611 4.611 0 0 1 4.618 4.617z"/>
        <path fill="#FC3A3C"
              d="M36.506 79.431v8.976H24.164v-8.976a4.61 4.61 0 0 1 4.614-4.617h3.109a4.612 4.612 0 0 1 4.619 4.617z"/>
        <path fill="#FD9496"
              d="M31.624 85.072a1.291 1.291 0 0 1-1.291-1.29v-4.343a1.291 1.291 0 0 1 2.581 0v4.343a1.29 1.29 0 0 1-1.29 1.29z"/>
        <g>
          <path fill="#414252"
                d="M231.457 92.175a3.569 3.569 0 0 1-2.537-1.049 3.592 3.592 0 0 1 0-5.079l6.247-6.251V61.62l-5.198-5.195h-14.237l-5.192 5.195v18.176l6.247 6.251a3.594 3.594 0 0 1 0 5.079 3.597 3.597 0 0 1-5.081 0l-7.299-7.302a3.607 3.607 0 0 1-1.05-2.54V60.132a3.6 3.6 0 0 1 1.05-2.539l7.299-7.299a3.593 3.593 0 0 1 2.539-1.054h17.213c.953 0 1.866.381 2.54 1.054l7.298 7.299a3.582 3.582 0 0 1 1.053 2.539v21.152a3.59 3.59 0 0 1-1.053 2.54l-7.298 7.302a3.58 3.58 0 0 1-2.541 1.049z"/>
          <path fill="#54556A"
                d="M214.244 90.124c-.412 0-.798-.162-1.086-.449l-7.301-7.3a1.547 1.547 0 0 1-.449-1.091V60.132c0-.41.16-.797.449-1.087l7.301-7.3a1.517 1.517 0 0 1 1.086-.451h17.213c.403 0 .801.161 1.09.451l7.298 7.3c.292.29.452.677.452 1.087v21.152c0 .411-.16.797-.452 1.091l-7.298 7.3a1.547 1.547 0 0 1-2.177 0 1.521 1.521 0 0 1-.453-1.088c0-.413.159-.798.453-1.09l6.247-6.251c.386-.382.601-.904.601-1.45V61.62c0-.544-.215-1.064-.601-1.45l-5.197-5.197a2.044 2.044 0 0 0-1.451-.602h-14.237a2.06 2.06 0 0 0-1.45.602l-5.197 5.197c-.383.386-.6.906-.6 1.45v18.176c0 .546.217 1.068.6 1.45l6.251 6.251c.597.6.597 1.576-.004 2.178a1.536 1.536 0 0 1-1.088.449z"/>
          <path fill="#797B97"
                d="M231.457 89.101a.506.506 0 0 1-.363-.153.497.497 0 0 1-.148-.36c0-.14.051-.266.148-.363l6.248-6.248c.581-.58.904-1.355.904-2.18V61.62c0-.824-.323-1.596-.905-2.179l-5.194-5.196a3.07 3.07 0 0 0-2.178-.899h-14.237c-.818 0-1.595.318-2.174.899l-5.195 5.196a3.055 3.055 0 0 0-.902 2.179v18.176c0 .824.319 1.598.902 2.18l6.246 6.248c.2.201.2.525 0 .724a.51.51 0 0 1-.727 0l-7.296-7.298a.496.496 0 0 1-.153-.365V60.132c0-.139.053-.263.153-.363l7.296-7.299a.514.514 0 0 1 .363-.15h17.213c.133 0 .269.057.363.15l7.301 7.299a.513.513 0 0 1 .148.363v21.152a.5.5 0 0 1-.148.363l-7.301 7.3a.504.504 0 0 1-.364.154z"/>
        </g>
        <g>
          <path fill="#414252"
                d="M222.847 56.602a3.58 3.58 0 0 1-2.022-.624l-39.16-26.768-33.635 26.615a3.593 3.593 0 0 1-5.045-.586 3.594 3.594 0 0 1 .59-5.044l35.708-28.257a3.59 3.59 0 0 1 4.253-.148l41.342 28.256a3.587 3.587 0 0 1 .938 4.989 3.582 3.582 0 0 1-2.969 1.567z"/>
          <path fill="#54556A"
                d="M222.847 54.552c-.308 0-.607-.094-.864-.27l-39.159-26.766a2.05 2.05 0 0 0-2.431.083l-33.635 26.619a1.534 1.534 0 0 1-2.162-.252 1.545 1.545 0 0 1 .252-2.163l35.708-28.255c.273-.219.604-.332.953-.332.313 0 .612.092.871.269l41.34 28.257a1.54 1.54 0 0 1-.873 2.81z"/>
          <path fill="#797B97"
                d="M222.847 53.526a.48.48 0 0 1-.285-.092L183.404 26.67a3.047 3.047 0 0 0-1.739-.54 3.08 3.08 0 0 0-1.907.667L146.12 53.414a.51.51 0 0 1-.719-.086.512.512 0 0 1 .086-.72l35.707-28.256a.468.468 0 0 1 .315-.111c.107 0 .202.03.289.09l41.343 28.257a.506.506 0 0 1 .134.711.52.52 0 0 1-.428.227z"/>
        </g>
        <path fill="#E1EAFD"
              d="M79.762 98.273c0-1.209.98-2.188 2.189-2.188h38.313a2.19 2.19 0 0 1 2.191 2.188c0 1.21-.982 2.191-2.191 2.191H81.951a2.19 2.19 0 0 1-2.189-2.191zM165.052 81.816a1.07 1.07 0 0 1-1.509.124l-14.29-12.123a1.073 1.073 0 0 1 1.388-1.636l14.289 12.123c.449.387.505 1.061.122 1.512z"/>
        <g>
          <path fill="#BA2A2C"
                d="M154.517 53.01c0 1.838-.57 3.55-1.547 4.958a8.693 8.693 0 0 1-7.17 3.764c-4.815 0-8.723-3.909-8.723-8.722a8.704 8.704 0 0 1 4.627-7.691 8.604 8.604 0 0 1 4.096-1.025 8.715 8.715 0 0 1 8.717 8.716z"/>
          <path fill="#F0373A"
                d="M154.517 53.01c0 1.838-.57 3.55-1.547 4.958a8.63 8.63 0 0 1-4.095 1.026c-4.812 0-8.721-3.91-8.721-8.724 0-1.845.574-3.549 1.55-4.952a8.717 8.717 0 0 1 12.813 7.692z"/>
          <circle cx="148.877" cy="51.593" r="2.351" fill="#FD9496"/>
        </g>
        <g>
          <path fill="#BA2A2C"
                d="M189.885 25.056c0 1.835-.578 3.55-1.551 4.953a8.683 8.683 0 0 1-7.173 3.767c-4.811 0-8.719-3.909-8.719-8.72a8.703 8.703 0 0 1 4.626-7.694 8.617 8.617 0 0 1 4.093-1.027 8.722 8.722 0 0 1 8.724 8.721z"/>
          <path fill="#F0373A"
                d="M189.885 25.056c0 1.835-.578 3.55-1.551 4.953a8.605 8.605 0 0 1-4.092 1.028c-4.814 0-8.721-3.909-8.721-8.725a8.65 8.65 0 0 1 1.547-4.951 8.617 8.617 0 0 1 4.093-1.027 8.723 8.723 0 0 1 8.724 8.722z"/>
          <path fill="#FD9496" d="M186.59 23.636a2.351 2.351 0 0 1-4.701 0 2.35 2.35 0 0 1 4.701 0z"/>
        </g>
        <g>
          <path fill="#BA2A2C"
                d="M230.406 53.01c0 1.838-.574 3.55-1.547 4.958a8.701 8.701 0 0 1-7.173 3.764c-4.813 0-8.722-3.909-8.722-8.722a8.708 8.708 0 0 1 4.629-7.691 8.601 8.601 0 0 1 4.093-1.025 8.716 8.716 0 0 1 8.72 8.716z"/>
          <path fill="#F0373A"
                d="M230.406 53.01c0 1.838-.574 3.55-1.547 4.958a8.653 8.653 0 0 1-4.094 1.026c-4.813 0-8.723-3.91-8.723-8.724 0-1.845.576-3.549 1.551-4.952a8.601 8.601 0 0 1 4.093-1.025 8.717 8.717 0 0 1 8.72 8.717z"/>
          <circle cx="224.767" cy="51.593" r="2.35" fill="#FD9496"/>
        </g>
      </svg>
    </g>
  </g>
</svg>
