<svg width="1920" height="406.181">
  <path fill="#FD8163" d="M0 189.461h1920v216.72H0z"/>
  <path fill="#FC714D" d="M0 260.733h1920V406.18H0z"/>
  <path fill="#B64A2E" d="M697.206 298.437h-14.398c-6.724 0-12.291 5.481-12.291 12.291v4.076h38.91v-4.076c0-6.81-5.482-12.291-12.221-12.291zM647.297 292.505h-8.093c-6.008 0-10.875 4.868-10.875 10.875v11.424h29.843V303.38c0-6.007-4.866-10.875-10.875-10.875z"/>
  <path fill="#CF5434" d="M684.792 298.437h-14.328a12.265 12.265 0 0 0-12.292 12.291v4.076h38.911v-4.076c0-6.81-5.482-12.291-12.291-12.291zM636.105 292.505h-8.092c-6.008 0-10.876 4.868-10.876 10.875v11.424h29.844V303.38c0-6.007-4.869-10.875-10.876-10.875z"/>
  <g fill="#F06743">
    <path d="M1004.857 189.461c-1.049 12.36-11.396 22.074-24.022 22.074H704.543c-2.038 0-3.86.846-5.244 2.217-1.372 1.37-2.216 3.192-2.216 5.328 0 4.094 3.369 7.463 7.46 7.463h53.907c2.16 0 4.188.897 5.636 2.347 1.547 1.449 2.434 3.476 2.434 5.731a8.01 8.01 0 0 0 8.063 8.064H932.05c5.036 0 9.573 2.012 12.806 5.328 3.317 3.232 5.33 7.771 5.33 12.72 0 9.984-8.15 18.035-18.136 18.035H287.185a20.48 20.48 0 0 1-14.52-6.011c-3.719-3.717-6.011-8.857-6.011-14.464 0-11.369 9.178-20.56 20.53-20.56h97.441c2.78 0 5.295-1.114 7.073-2.898 1.771-1.855 2.898-4.279 2.898-7.073 0-5.487-4.473-9.972-9.972-9.972h-26.973c-12.319 0-22.305-10-22.305-22.304v-6.026h669.511zM1920 250.464h-437.782c-7.789 0-14.115 6.406-14.115 14.197 0 7.789-6.324 14.112-14.198 14.112h-280.333c-6.867 0-12.4 5.616-12.4 12.483a12.372 12.372 0 0 0 12.4 12.396H1920v-53.188zM1435.808 215.969a10.43 10.43 0 0 1-3.113 7.461c-1.946 1.945-4.576 3.113-7.474 3.113h-120.712c-6.603 0-11.998 5.311-11.998 11.998 0 3.258-1.293 6.308-3.487 8.438-2.204 2.203-5.168 3.57-8.51 3.57h-167.479c-8.176 0-14.763-6.67-14.763-14.761 0-4.052-1.583-7.742-4.31-10.386-2.628-2.715-6.32-4.295-10.371-4.295h-9.153c-8.103 0-14.763-6.588-14.763-14.765V189.46h296.957c2.295 9.126 10.562 15.919 20.441 15.919h48.147c5.81.001 10.588 4.695 10.588 10.59z"/>
  </g>
  <g>
    <path fill="#CF5434" d="M773.464 201.649H654.108V.005h21.688c53.91 0 97.667 43.755 97.667 97.713v103.931zM887.563 201.649h-76.464V88.428h16.744c32.946 0 59.72 26.724 59.72 59.713v53.508z"/>
    <path fill="#B64A2E" d="M729.754 52.191v149.458H491.909v-15.944c0-5.832.913-11.475 2.649-16.805 1.313-3.887 3.043-7.717 5.133-11.19 9.462-15.54 26.6-25.978 46.21-25.978 10.011 0 19.011-4.035 25.576-10.603 1.114-1.107 2.176-2.281 3.099-3.519 2.578-3.32 4.577-7.113 5.922-11.191a38.502 38.502 0 0 0 1.594-10.899v-.307c.137-6.497 2.78-12.349 7.035-16.573 4.305-4.351 10.293-6.991 16.881-6.991a23.806 23.806 0 0 0 16.884-7.005c3.513-3.546 5.984-8.175 6.692-13.382.203-1.154.27-2.321.27-3.5v-3.316c0-1.503.13-2.954.229-4.375C632.312 17.593 651.246 0 674.343 0h3.273c28.828 0 52.138 23.35 52.138 52.191zM862.657 126.008v75.642h-75.193v-75.642a48 48 0 0 1 .081-2.785c.279-3.934 1.249-7.676 2.589-11.207 5.599-13.836 19.098-23.592 34.877-23.592 20.804-.001 37.646 16.844 37.646 37.584z"/>
    <path fill="#FC714D" d="M713.347 52.191v149.458H475.506v-15.944c0-5.832.913-11.475 2.643-16.805 1.232-3.887 3.044-7.717 5.14-11.19 9.462-15.54 26.6-25.978 46.124-25.978 10.011 0 19.098-4.035 25.659-10.603 1.117-1.107 2.093-2.281 3.102-3.519a35.218 35.218 0 0 0 5.836-11.191c1.103-3.437 1.679-7.114 1.679-10.899v-.307c.052-6.497 2.778-12.349 6.95-16.573 4.306-4.351 10.293-6.991 16.881-6.991a23.812 23.812 0 0 0 16.884-7.005c3.597-3.546 5.985-8.175 6.779-13.382.118-1.154.269-2.321.269-3.5v-3.316c0-1.503.051-2.954.229-4.375C615.822 17.593 634.764 0 657.854 0h3.356c28.742 0 52.137 23.35 52.137 52.191z"/>
    <path fill="#CF5434" d="M688.387 45.667c0 1.556-.702 2.965-1.666 3.973-1.049 1.005-2.456 1.623-3.972 1.623h-69.567c.118-1.154.269-2.321.269-3.5v-3.316c0-1.503.051-2.954.229-4.375h69.07c3.112 0 5.637 2.523 5.637 5.595zM518.233 163.349a5.555 5.555 0 0 1-1.666 3.973c-.964.962-2.372 1.579-3.889 1.579h-34.53c1.232-3.887 3.044-7.717 5.14-11.19h29.391c3.03-.001 5.554 2.521 5.554 5.638zM639.24 112.016c0 1.558-.615 2.967-1.664 3.966-.965 1.013-2.387 1.63-3.975 1.63h-75.429a35.218 35.218 0 0 0 5.836-11.191h69.593c3.103-.001 5.639 2.494 5.639 5.595z"/>
    <path fill="#FC714D" d="M848.66 126.008v75.642h-75.193v-75.642c0-.936.025-1.847.166-2.785a36.808 36.808 0 0 1 2.587-11.207c5.515-13.836 19.014-23.592 34.796-23.592 20.8-.001 37.644 16.844 37.644 37.584z"/>
    <path fill="#CF5434" d="M801.384 117.611c0 1.547-.702 2.954-1.667 3.974-1.048.989-2.457 1.638-3.972 1.638h-22.112a36.808 36.808 0 0 1 2.587-11.207h19.525c3.114 0 5.639 2.531 5.639 5.595zM830.008 157.71a5.606 5.606 0 0 1-1.666 3.973 5.603 5.603 0 0 1-3.973 1.666h-50.902v-11.195h50.902c3.115-.001 5.639 2.442 5.639 5.556z"/>
  </g>
  <g>
    <path fill="#CF5434" d="M1264.562 128.777a14.896 14.896 0 0 0-14.926-14.922h-22.384c-23.197 0-42.032 18.815-42.032 42.031v45.763h123.277v-29.018c0-15.912-12.935-28.924-28.933-28.924-8.265.001-15.002-6.665-15.002-14.93z"/>
    <path fill="#B64A2E" d="M1246.449 128.777a14.892 14.892 0 0 0-14.923-14.922h-22.382c-23.198 0-42.031 18.815-42.031 42.031v45.763h123.19v-29.018c0-15.912-12.936-28.924-28.925-28.924a14.9 14.9 0 0 1-14.929-14.93z"/>
    <path fill="#FC714D" d="M1275.989 172.632v29.018h-123.19v-45.763c0-3.356.359-6.563 1.127-9.678 1.114-4.755 2.962-9.137 5.528-13.083a41.966 41.966 0 0 1 35.362-19.271h22.397a14.888 14.888 0 0 1 14.922 14.922 15.09 15.09 0 0 0 4.346 10.574c2.753 2.666 6.483 4.356 10.575 4.356 15.071 0 27.418 11.452 28.839 26.189.067.9.094 1.811.094 2.736z"/>
    <path fill="#CF5434" d="M1207.844 139.659c0 1.795-.681 3.448-1.862 4.625-1.17 1.168-2.832 1.925-4.607 1.925h-47.448c1.114-4.755 2.962-9.137 5.528-13.083h41.92c3.558 0 6.469 2.967 6.469 6.533zM1275.989 172.632v10.28h-34.793a6.524 6.524 0 0 1-6.551-6.551c0-1.77.682-3.436 1.861-4.603 1.254-1.18 2.819-1.861 4.689-1.861h34.699c.068.899.095 1.81.095 2.735z"/>
  </g>
</svg>
