<svg width="1920" height="406.181">
  <g class="neco">
    <path fill="#FD8163" d="M0 189.461h1920v216.72H0z"/>
    <path fill="#FC714D" d="M0 260.733h1920V406.18H0z"/>
    <path fill="#B64A2E"
          d="M697.206 298.437h-14.398c-6.724 0-12.291 5.481-12.291 12.291v4.076h38.91v-4.076c0-6.81-5.482-12.291-12.221-12.291zM647.297 292.505h-8.093c-6.008 0-10.875 4.868-10.875 10.875v11.424h29.843V303.38c0-6.007-4.866-10.875-10.875-10.875z"/>
    <path fill="#CF5434"
          d="M684.792 298.437h-14.328a12.265 12.265 0 0 0-12.292 12.291v4.076h38.911v-4.076c0-6.81-5.482-12.291-12.291-12.291zM636.105 292.505h-8.092c-6.008 0-10.876 4.868-10.876 10.875v11.424h29.844V303.38c0-6.007-4.869-10.875-10.876-10.875z"/>
    <g fill="#F06743">
      <path
        d="M1004.857 189.461c-1.049 12.36-11.396 22.074-24.022 22.074H704.543c-2.038 0-3.86.846-5.244 2.217-1.372 1.37-2.216 3.192-2.216 5.328 0 4.094 3.369 7.463 7.46 7.463h53.907c2.16 0 4.188.897 5.636 2.347 1.547 1.449 2.434 3.476 2.434 5.731a8.01 8.01 0 0 0 8.063 8.064H932.05c5.036 0 9.573 2.012 12.806 5.328 3.317 3.232 5.33 7.771 5.33 12.72 0 9.984-8.15 18.035-18.136 18.035H287.185a20.48 20.48 0 0 1-14.52-6.011c-3.719-3.717-6.011-8.857-6.011-14.464 0-11.369 9.178-20.56 20.53-20.56h97.441c2.78 0 5.295-1.114 7.073-2.898 1.771-1.855 2.898-4.279 2.898-7.073 0-5.487-4.473-9.972-9.972-9.972h-26.973c-12.319 0-22.305-10-22.305-22.304v-6.026h669.511zM1920 250.464h-437.782c-7.789 0-14.115 6.406-14.115 14.197 0 7.789-6.324 14.112-14.198 14.112h-280.333c-6.867 0-12.4 5.616-12.4 12.483a12.372 12.372 0 0 0 12.4 12.396H1920v-53.188zM1435.808 215.969a10.43 10.43 0 0 1-3.113 7.461c-1.946 1.945-4.576 3.113-7.474 3.113h-120.712c-6.603 0-11.998 5.311-11.998 11.998 0 3.258-1.293 6.308-3.487 8.438-2.204 2.203-5.168 3.57-8.51 3.57h-167.479c-8.176 0-14.763-6.67-14.763-14.761 0-4.052-1.583-7.742-4.31-10.386-2.628-2.715-6.32-4.295-10.371-4.295h-9.153c-8.103 0-14.763-6.588-14.763-14.765V189.46h296.957c2.295 9.126 10.562 15.919 20.441 15.919h48.147c5.81.001 10.588 4.695 10.588 10.59z"/>
    </g>
    <g>
      <path fill="#CF5434"
            d="M773.464 201.649H654.108V.005h21.688c53.91 0 97.667 43.755 97.667 97.713v103.931zM887.563 201.649h-76.464V88.428h16.744c32.946 0 59.72 26.724 59.72 59.713v53.508z"/>
      <path fill="#B64A2E"
            d="M729.754 52.191v149.458H491.909v-15.944c0-5.832.913-11.475 2.649-16.805 1.313-3.887 3.043-7.717 5.133-11.19 9.462-15.54 26.6-25.978 46.21-25.978 10.011 0 19.011-4.035 25.576-10.603 1.114-1.107 2.176-2.281 3.099-3.519 2.578-3.32 4.577-7.113 5.922-11.191a38.502 38.502 0 0 0 1.594-10.899v-.307c.137-6.497 2.78-12.349 7.035-16.573 4.305-4.351 10.293-6.991 16.881-6.991a23.806 23.806 0 0 0 16.884-7.005c3.513-3.546 5.984-8.175 6.692-13.382.203-1.154.27-2.321.27-3.5v-3.316c0-1.503.13-2.954.229-4.375C632.312 17.593 651.246 0 674.343 0h3.273c28.828 0 52.138 23.35 52.138 52.191zM862.657 126.008v75.642h-75.193v-75.642a48 48 0 0 1 .081-2.785c.279-3.934 1.249-7.676 2.589-11.207 5.599-13.836 19.098-23.592 34.877-23.592 20.804-.001 37.646 16.844 37.646 37.584z"/>
      <path fill="#FC714D"
            d="M713.347 52.191v149.458H475.506v-15.944c0-5.832.913-11.475 2.643-16.805 1.232-3.887 3.044-7.717 5.14-11.19 9.462-15.54 26.6-25.978 46.124-25.978 10.011 0 19.098-4.035 25.659-10.603 1.117-1.107 2.093-2.281 3.102-3.519a35.218 35.218 0 0 0 5.836-11.191c1.103-3.437 1.679-7.114 1.679-10.899v-.307c.052-6.497 2.778-12.349 6.95-16.573 4.306-4.351 10.293-6.991 16.881-6.991a23.812 23.812 0 0 0 16.884-7.005c3.597-3.546 5.985-8.175 6.779-13.382.118-1.154.269-2.321.269-3.5v-3.316c0-1.503.051-2.954.229-4.375C615.822 17.593 634.764 0 657.854 0h3.356c28.742 0 52.137 23.35 52.137 52.191z"/>
      <path fill="#CF5434"
            d="M688.387 45.667c0 1.556-.702 2.965-1.666 3.973-1.049 1.005-2.456 1.623-3.972 1.623h-69.567c.118-1.154.269-2.321.269-3.5v-3.316c0-1.503.051-2.954.229-4.375h69.07c3.112 0 5.637 2.523 5.637 5.595zM518.233 163.349a5.555 5.555 0 0 1-1.666 3.973c-.964.962-2.372 1.579-3.889 1.579h-34.53c1.232-3.887 3.044-7.717 5.14-11.19h29.391c3.03-.001 5.554 2.521 5.554 5.638zM639.24 112.016c0 1.558-.615 2.967-1.664 3.966-.965 1.013-2.387 1.63-3.975 1.63h-75.429a35.218 35.218 0 0 0 5.836-11.191h69.593c3.103-.001 5.639 2.494 5.639 5.595z"/>
      <path fill="#FC714D"
            d="M848.66 126.008v75.642h-75.193v-75.642c0-.936.025-1.847.166-2.785a36.808 36.808 0 0 1 2.587-11.207c5.515-13.836 19.014-23.592 34.796-23.592 20.8-.001 37.644 16.844 37.644 37.584z"/>
      <path fill="#CF5434"
            d="M801.384 117.611c0 1.547-.702 2.954-1.667 3.974-1.048.989-2.457 1.638-3.972 1.638h-22.112a36.808 36.808 0 0 1 2.587-11.207h19.525c3.114 0 5.639 2.531 5.639 5.595zM830.008 157.71a5.606 5.606 0 0 1-1.666 3.973 5.603 5.603 0 0 1-3.973 1.666h-50.902v-11.195h50.902c3.115-.001 5.639 2.442 5.639 5.556z"/>
    </g>
    <g>
      <path fill="#CF5434"
            d="M1264.562 128.777a14.896 14.896 0 0 0-14.926-14.922h-22.384c-23.197 0-42.032 18.815-42.032 42.031v45.763h123.277v-29.018c0-15.912-12.935-28.924-28.933-28.924-8.265.001-15.002-6.665-15.002-14.93z"/>
      <path fill="#B64A2E"
            d="M1246.449 128.777a14.892 14.892 0 0 0-14.923-14.922h-22.382c-23.198 0-42.031 18.815-42.031 42.031v45.763h123.19v-29.018c0-15.912-12.936-28.924-28.925-28.924a14.9 14.9 0 0 1-14.929-14.93z"/>
      <path fill="#FC714D"
            d="M1275.989 172.632v29.018h-123.19v-45.763c0-3.356.359-6.563 1.127-9.678 1.114-4.755 2.962-9.137 5.528-13.083a41.966 41.966 0 0 1 35.362-19.271h22.397a14.888 14.888 0 0 1 14.922 14.922 15.09 15.09 0 0 0 4.346 10.574c2.753 2.666 6.483 4.356 10.575 4.356 15.071 0 27.418 11.452 28.839 26.189.067.9.094 1.811.094 2.736z"/>
      <path fill="#CF5434"
            d="M1207.844 139.659c0 1.795-.681 3.448-1.862 4.625-1.17 1.168-2.832 1.925-4.607 1.925h-47.448c1.114-4.755 2.962-9.137 5.528-13.083h41.92c3.558 0 6.469 2.967 6.469 6.533zM1275.989 172.632v10.28h-34.793a6.524 6.524 0 0 1-6.551-6.551c0-1.77.682-3.436 1.861-4.603 1.254-1.18 2.819-1.861 4.689-1.861h34.699c.068.899.095 1.81.095 2.735z"/>
    </g>
  </g>
  <g class="emiter">
    <svg class="emiter" xmlns="http://www.w3.org/2000/svg" width="279" height="334">
      <path fill="#54556A" d="M69.747 252.625a5.22 5.22 0 0 1-2.481-.627L31.082 232.51a5.244 5.244 0 1 1 4.975-9.234l36.184 19.486a5.247 5.247 0 0 1 2.13 7.105 5.249 5.249 0 0 1-4.624 2.758z"/>
      <path fill="#797B97" d="M69.747 249.629c-.37 0-.729-.09-1.062-.27l-36.179-19.488a2.249 2.249 0 0 1 1.072-4.227c.37 0 .725.09 1.058.27l36.183 19.484c.527.287.912.762 1.084 1.338a2.246 2.246 0 0 1-2.156 2.893z"/>
      <path fill="#54556A" d="M209.249 252.625a5.25 5.25 0 0 1-4.625-2.758 5.247 5.247 0 0 1 2.132-7.105l36.184-19.486a5.239 5.239 0 0 1 7.104 2.129 5.247 5.247 0 0 1-2.13 7.105l-36.184 19.488a5.206 5.206 0 0 1-2.481.627z"/>
      <path fill="#797B97" d="M209.249 249.629c-.83 0-1.593-.453-1.985-1.186a2.254 2.254 0 0 1 .912-3.045l36.184-19.484a2.247 2.247 0 0 1 3.046.915 2.251 2.251 0 0 1-.912 3.043L210.31 249.36a2.21 2.21 0 0 1-1.061.269z"/>
      <path fill="#54556A" d="M12.625 331.051a5.248 5.248 0 0 1-5.136-6.344l24.724-115.541c2.108-9.855 10.951-17.002 21.027-17.002h6.335c2.897 0 5.244 2.346 5.244 5.242s-2.347 5.246-5.244 5.246H53.24c-5.162 0-9.691 3.664-10.771 8.709L17.75 326.902a5.25 5.25 0 0 1-5.125 4.149z"/>
      <path fill="#797B97" d="M12.614 328.053c-.153 0-.307-.016-.459-.051a2.218 2.218 0 0 1-1.42-.977 2.229 2.229 0 0 1-.314-1.693l24.724-115.539c1.816-8.479 9.426-14.633 18.097-14.633h6.335a2.25 2.25 0 0 1 2.247 2.246 2.25 2.25 0 0 1-2.247 2.248h-6.335c-6.567 0-12.327 4.66-13.702 11.08L14.82 326.275a2.26 2.26 0 0 1-2.194 1.777h-.012z"/>
      <path fill="#FDB70B" d="M17.997 333.797H7.244c-4 0-7.244-3.244-7.244-7.242a7.245 7.245 0 0 1 7.244-7.246h10.753a7.244 7.244 0 0 1 0 14.488z"/>
      <path fill="#54556A" d="M266.37 331.051a5.25 5.25 0 0 1-5.125-4.148l-24.72-115.541c-1.08-5.045-5.61-8.709-10.771-8.709h-6.332c-2.896 0-5.247-2.35-5.247-5.246s2.351-5.242 5.247-5.242h6.332c10.076 0 18.919 7.146 21.027 17.002l24.724 115.541a5.249 5.249 0 0 1-5.135 6.343z"/>
      <path fill="#797B97" d="M266.37 328.053a2.25 2.25 0 0 1-2.19-1.777l-24.724-115.541c-1.372-6.42-7.136-11.08-13.702-11.08h-6.332a2.25 2.25 0 0 1-2.25-2.248 2.25 2.25 0 0 1 2.25-2.246h6.332c8.671 0 16.284 6.154 18.097 14.633l24.725 115.539c.123.59.011 1.191-.311 1.693a2.233 2.233 0 0 1-1.895 1.027z"/>
      <path fill="#FDB70B" d="M260.999 333.797h10.753a7.245 7.245 0 0 0 0-14.488h-10.753a7.244 7.244 0 0 0 0 14.488z"/>
      <path fill="#D27800" d="M225.421 153.973v71.424H53.582v-71.424a73.412 73.412 0 0 1 3.461-22.357c9.471-29.625 37.207-51.071 69.967-51.071h24.982c32.756 0 60.498 21.446 69.954 51.071a73.114 73.114 0 0 1 3.475 22.357z"/>
      <path fill="#E99A00" d="M225.421 153.973v71.424H76.807v-71.424a73.384 73.384 0 0 1 3.465-22.357c9.467-29.625 37.207-51.071 69.967-51.071h1.753c1.664 0 3.297.06 4.93.165 30.584 2.026 56.046 22.781 65.023 50.906a73.084 73.084 0 0 1 3.476 22.357z"/>
      <path fill="#414252" d="M110.527 145.477h57.943c7.173 0 12.988 5.814 12.988 12.988V225.4h-83.92v-66.936c.001-7.173 5.813-12.987 12.989-12.987z"/>
      <path fill="#797B97" d="M105.029 210.094a2.621 2.621 0 1 1 .005 5.243 2.621 2.621 0 0 1-.005-5.243zM105.029 194.785a2.621 2.621 0 1 1 0 5.244 2.622 2.622 0 0 1 0-5.244zM105.029 179.479a2.622 2.622 0 1 1 .004 5.244 2.622 2.622 0 0 1-.004-5.244zM105.029 164.169a2.622 2.622 0 1 1 .003 5.245 2.622 2.622 0 0 1-.003-5.245z"/>
      <circle cx="124.19" cy="152.971" r="2.622" fill="#797B97"/>
      <circle cx="107.653" cy="152.971" r="2.624" fill="#797B97"/>
      <circle cx="139.499" cy="152.971" r="2.622" fill="#797B97"/>
      <circle cx="154.806" cy="152.971" r="2.624" fill="#797B97"/>
      <circle cx="170.592" cy="152.971" r="2.622" fill="#797B97"/>
      <path fill="#797B97" d="M173.965 169.414a2.622 2.622 0 1 1 0-5.245 2.625 2.625 0 0 1 2.624 2.624 2.625 2.625 0 0 1-2.624 2.621zM173.965 184.721a2.621 2.621 0 1 1 0-5.242 2.624 2.624 0 0 1 2.624 2.619 2.624 2.624 0 0 1-2.624 2.623zM173.965 200.029a2.623 2.623 0 1 1 0-5.244c1.446 0 2.624 1.172 2.624 2.621s-1.178 2.623-2.624 2.623zM173.965 215.336a2.62 2.62 0 1 1 0-5.242 2.624 2.624 0 0 1 2.624 2.623 2.623 2.623 0 0 1-2.624 2.619z"/>
      <path fill="#54556A" d="M167.966 164.21v61.187h-56.945V164.21a4.815 4.815 0 0 1 4.811-4.81h47.34c2.649 0 4.794 2.157 4.794 4.81z"/>
      <path fill="#797B97" d="M167.966 164.21v61.187h-42.335V164.21a4.814 4.814 0 0 1 4.81-4.81h32.73c2.65 0 4.795 2.157 4.795 4.81z"/>
      <path fill="#93A8A9" d="M159.355 184.066c0 10.965-8.892 19.855-19.858 19.855-10.966 0-19.855-8.891-19.855-19.855 0-10.969 8.89-19.856 19.855-19.856 10.966 0 19.858 8.888 19.858 19.856z"/>
      <path fill="#05BBCF" d="M154.104 184.066a14.5 14.5 0 0 1-4.437 10.475 14.538 14.538 0 0 1-10.175 4.137c-8.06 0-14.608-6.551-14.608-14.611 0-7.883 6.264-14.313 14.068-14.598.183-.016.362-.016.54-.016 8.078 0 14.612 6.549 14.612 14.613z"/>
      <path fill="#61E5EC" d="M154.104 184.066a14.5 14.5 0 0 1-4.437 10.475c-.179.016-.374.016-.553.016-8.062 0-14.61-6.549-14.61-14.611 0-4.107 1.708-7.838 4.448-10.477.183-.016.362-.016.54-.016 8.078 0 14.612 6.549 14.612 14.613z"/>
      <g fill="#414252">
        <path d="M225.421 153.973v71.424H198.88v-83.844c0-5.486 4.437-9.938 9.92-9.938h13.146a73.125 73.125 0 0 1 3.475 22.358zM80.119 141.553v83.844H53.582v-71.424a73.412 73.412 0 0 1 3.461-22.357h13.141c5.487-.001 9.935 4.45 9.935 9.937z"/>
      </g>
      <g>
        <path fill="#797B97" d="M211.865 152.22a2.621 2.621 0 1 1 2.623-2.62 2.62 2.62 0 0 1-2.623 2.62zM211.865 162.338a2.624 2.624 0 0 1 0-5.248 2.625 2.625 0 0 1 0 5.248zM211.865 172.451a2.621 2.621 0 1 1 2.623-2.621 2.621 2.621 0 0 1-2.623 2.621zM211.865 182.564a2.62 2.62 0 0 1 0-5.242 2.62 2.62 0 1 1 0 5.242zM211.865 192.684a2.622 2.622 0 1 1 .003-5.243 2.622 2.622 0 0 1-.003 5.243zM211.865 202.797a2.623 2.623 0 1 1 2.623-2.621 2.621 2.621 0 0 1-2.623 2.621zM211.865 212.914a2.623 2.623 0 0 1-2.62-2.623 2.623 2.623 0 0 1 2.62-2.625 2.624 2.624 0 0 1 0 5.248z"/>
        <g>
          <circle cx="67.13" cy="149.598" r="2.622" fill="#797B97"/>
          <path fill="#797B97" d="M67.13 162.338a2.623 2.623 0 1 1-.002-5.246 2.623 2.623 0 0 1 .002 5.246z"/>
          <circle cx="67.13" cy="169.829" r="2.622" fill="#797B97"/>
          <path fill="#797B97" d="M67.13 182.564a2.622 2.622 0 1 1 0-5.242 2.624 2.624 0 0 1 2.624 2.623 2.623 2.623 0 0 1-2.624 2.619zM67.13 192.684a2.623 2.623 0 1 1-.002-5.246 2.623 2.623 0 0 1 .002 5.246z"/>
          <circle cx="67.13" cy="200.175" r="2.622" fill="#797B97"/>
          <circle cx="67.13" cy="210.29" r="2.624" fill="#797B97"/>
        </g>
      </g>
      <g>
        <path fill="#414252" d="M152.231 80.544c0 1.604-.301 3.132-.841 4.543-1.828 4.795-6.458 8.197-11.898 8.197-7.029 0-12.736-5.709-12.736-12.74 0-4.496 2.321-8.436 5.842-10.712a12.69 12.69 0 0 1 6.894-2.024c7.043.001 12.739 5.71 12.739 12.736z"/>
        <path fill="#797B97" d="M152.231 80.544c0 1.604-.301 3.132-.841 4.543a12.692 12.692 0 0 1-6.892 2.021c-7.027 0-12.739-5.692-12.739-12.736 0-1.605.301-3.134.839-4.54a12.69 12.69 0 0 1 6.894-2.024c7.043.001 12.739 5.71 12.739 12.736z"/>
      </g>
      <g>
        <path fill="#414252" d="M146.057 63.922c0 .577-.108 1.126-.303 1.631a4.572 4.572 0 0 1-8.847-1.632 4.568 4.568 0 0 1 4.575-4.575 4.577 4.577 0 0 1 4.575 4.576z"/>
        <path fill="#797B97" d="M146.057 63.922c0 .577-.108 1.126-.303 1.631a4.565 4.565 0 0 1-2.474.725 4.57 4.57 0 0 1-4.575-4.575c0-.576.105-1.125.299-1.63a4.577 4.577 0 0 1 7.053 3.849z"/>
      </g>
      <path fill="#414252" d="M215.427 225.396v21.488c0 7.162-5.815 12.977-12.996 12.977H76.553c-7.161 0-12.977-5.814-12.977-12.977v-21.488h151.851z"/>
      <path fill="#4F5063" d="M215.427 225.396v21.488c0 7.162-5.815 12.977-12.996 12.977H89.291c-7.161 0-12.977-5.814-12.977-12.977v-21.488h139.113z"/>
      <path fill="#54556A" d="M215.427 225.396v21.488c0 7.162-5.815 12.977-12.996 12.977h-85.385c-7.18 0-12.995-5.814-12.995-12.977v-21.488h111.376z"/>
      <path fill="#797B97" d="M186.953 225.396h10.986v34.465h-10.986z"/>
      <circle cx="142.681" cy="180.51" r="3.189" fill="#B7FAFF"/>
      <g class="emiter--parabola">
        <path fill="#BA2A2C" d="M179.563 24.32l-16.232 16.707-8.167-7.931 16.232-16.707c2.197-2.261 5.801-2.313 8.051-.127l.011.011a5.74 5.74 0 0 1 1.507 2.526 5.695 5.695 0 0 1-1.402 5.521z"/>
        <path fill="#F0373A" d="M179.563 24.32l-16.232 16.707-4.078-3.958 16.232-16.707a5.702 5.702 0 0 1 5.479-1.563 5.692 5.692 0 0 1-1.401 5.521z"/>
        <path fill="#86A0D7" d="M196.925 57.8a41.234 41.234 0 0 1-21.304 10.695c-12.663 2.224-26.205-1.469-36.129-11.11C123.485 41.833 122.704 16.498 137.434 0l59.491 57.8z"/>
        <path fill="#A0B9F0" d="M196.925 57.8a41.234 41.234 0 0 1-21.304 10.695c-10.563.11-21.163-3.801-29.329-11.736-14.726-14.304-16.565-36.901-5.27-53.277L196.925 57.8z"/>
        <path fill="#C2D3F8" d="M196.925 57.8a41.234 41.234 0 0 1-20.385 10.527 41.247 41.247 0 0 1-22.478-11.228c-13.41-13.031-16.135-32.913-8.006-48.723L196.925 57.8z"/>
      </g>
    </svg>
  </g>
  <g class="astroman">
    <svg class="astroman" xmlns="http://www.w3.org/2000/svg" width="269" height="164">
      <path fill="#CF5434" d="M109.676 162.925H15.973a7.48 7.48 0 0 1-7.482-7.481 7.48 7.48 0 0 1 7.482-7.482h93.703c4.131 0 7.48 3.35 7.48 7.482a7.481 7.481 0 0 1-7.48 7.481z"/>
      <path fill="#FFF" d="M71.107 70.323l62.269.17a8.55 8.55 0 0 0 8.611-8.494 8.549 8.549 0 0 0-8.489-8.609l-62.272-.173-.119 17.106z"/>
      <path fill="#91B7C9" d="M72.524 120.69l-26.266.185c-11.695.082-21.243-9.334-21.323-21.028l-.279-39.686c-.088-12.975 10.449-23.665 23.423-23.755l21.44-.15c12.975-.091 23.666 10.452 23.757 23.424l.275 39.688c.082 11.694-9.331 21.24-21.027 21.322z"/>
      <path fill="#DFE8E6" d="M26.544 147.525l34.635.144.063-13.76-20.882-.088c-7.596-.032-13.783 6.103-13.816 13.704z"/>
      <path fill="#6E98AD" d="M26.54 147.528l34.635.149-.036 8.47-34.636-.15z"/>
      <path fill="#DFE8E6" d="M40.365 97.271l-.151 36.55 21.028.088.079-19.192c.021-4.481 2.417-8.262 5.875-10.36-2.321-2.354 3.56-4.71 1.063-7.001l-27.894-.085z"/>
      <path fill="#FFF" d="M85.818 97.31l-19.966.048-.079-.287c-1.529 3.022-3.163 5.92-4.801 8.79a12.075 12.075 0 0 1 3.858 8.853l.044 19.197 21.03-.054-.086-36.547zM99.548 147.586l-34.637.083-.032-13.758 20.877-.053c7.599-.018 13.774 6.13 13.792 13.728z"/>
      <path fill="#ADCEDE" d="M99.563 156.062l-34.637.083-.02-8.475 34.636-.083z"/>
      <path fill="#DFE8E6" d="M22.389 70.5l24.253-.172c4.724-.034 8.526-3.89 8.491-8.611a8.55 8.55 0 0 0-8.608-8.493l-24.255.169a3.419 3.419 0 0 1-3.438-3.39l-.148-21.374a8.552 8.552 0 0 0-17.103.121l.148 21.372c.079 11.315 9.347 20.456 20.66 20.378z"/>
      <path fill="#FFF" d="M81.625 25.012l.705-3.223-2.294-2.372 3.224.708 2.37-2.293-.706 3.22 2.297 2.37-3.226-.703z"/>
      <ellipse cx="59.119" cy="27.667" fill="#FFF" rx="30.467" ry="27.665" transform="translate(-.191 .413)"/>
      <path fill="#DFE8E6" d="M87.45 37.81c-5.366 7.699-14.791 12.846-25.563 12.923-16.827.116-30.551-12.175-30.658-27.454a25.31 25.31 0 0 1 2.136-10.355c-3.016 4.329-4.754 9.458-4.712 14.956.104 15.279 13.831 27.568 30.658 27.452 12.8-.092 23.698-7.336 28.139-17.522z"/>
      <path fill="#1990C7" d="M80.205 22.965l.064 9.107c.048 6.894-5.557 12.578-12.452 12.626l-17.162.121c-6.901.048-12.585-5.559-12.633-12.449l-.065-9.112c-.046-6.891 5.557-12.574 12.46-12.624l17.164-.119c6.893-.047 12.575 5.557 12.624 12.45z"/>
      <path fill="#19ADC7" d="M80.205 22.965l.035 4.985c-6.198 1.67-13.408 2.644-21.105 2.695-7.698.055-14.921-.817-21.143-2.399l-.034-4.988c-.046-6.891 5.557-12.574 12.46-12.624l17.164-.119c6.892-.047 12.574 5.557 12.623 12.45z"/>
      <path fill="#6E98AD" d="M28.726 38.558a4.185 4.185 0 0 1-4.2-4.143l-.071-10.277a4.18 4.18 0 0 1 4.14-4.198 4.185 4.185 0 0 1 4.202 4.14l.07 10.277a4.186 4.186 0 0 1-4.141 4.201z"/>
      <path fill="#ADCEDE" d="M89.659 38.13a4.183 4.183 0 0 1-4.2-4.141l-.074-10.275a4.186 4.186 0 0 1 4.145-4.2 4.181 4.181 0 0 1 4.2 4.143l.07 10.275a4.183 4.183 0 0 1-4.141 4.198z"/>
      <path fill="#FFF" d="M85.904 97.583l-53.344.373-.227-31.868c-.06-8.443 6.8-15.397 15.242-15.455l22.649-.161c8.442-.059 15.398 6.8 15.458 15.241l.222 31.87z"/>
      <path fill="#DFE8E6" d="M43.408 104.047l-.748-39.293c-.045-6.291 3.76-11.752 9.191-14.152l-4.276.03c-8.442.058-15.302 7.011-15.242 15.455l.227 31.868 10.848 6.092z"/>
      <path fill="#ADCEDE" d="M73.437 57.654l-27.648.19c-3.573.026-6.517-2.876-6.543-6.449-.025-3.574 2.878-6.519 6.45-6.544l27.649-.193c3.574-.024 6.518 2.88 6.543 6.452.025 3.575-2.876 6.517-6.451 6.544z"/>
      <path fill="#6E98AD" d="M16.943 42.027l-14.035.098a2.883 2.883 0 0 1-2.902-2.862L0 38.251a2.878 2.878 0 0 1 2.859-2.901l14.037-.1a2.882 2.882 0 0 1 2.9 2.861l.008 1.015a2.883 2.883 0 0 1-2.861 2.901zM62.106 115.921l-22.912 1.882a2.457 2.457 0 0 1-2.65-2.249 2.456 2.456 0 0 1 2.246-2.649l22.912-1.885a2.46 2.46 0 0 1 2.65 2.252 2.456 2.456 0 0 1-2.246 2.649z"/>
      <path fill="#ADCEDE" d="M65.076 116.7l22.904 1.924a2.458 2.458 0 0 0 2.658-2.243 2.461 2.461 0 0 0-2.242-2.655l-22.909-1.924a2.456 2.456 0 0 0-2.654 2.242 2.454 2.454 0 0 0 2.243 2.656zM43.53 66.344l32.458-.227.126 17.908-32.458.227z"/>
      <path fill="#FFF" d="M73.336 78.846a2.783 2.783 0 0 1-2.76 2.799 2.78 2.78 0 1 1 2.76-2.799z"/>
      <circle cx="70.504" cy="71.303" r="1.14" fill="#FFF"/>
      <path fill="#FFF" d="M48.403 69.968l13.336-.093.01 1.488-13.335.093zM48.436 74.517l13.338-.093.01 1.488-13.337.093zM48.466 79.073l13.336-.095.01 1.488-13.336.095z"/>
      <path fill="#ADCEDE" d="M108.329 54.178l-.099 14.036a2.88 2.88 0 0 0 2.864 2.901l1.012.008a2.88 2.88 0 0 0 2.9-2.861l.097-14.035a2.875 2.875 0 0 0-2.857-2.9l-1.015-.008a2.882 2.882 0 0 0-2.902 2.859z"/>
      <g>
        <g fill-rule="evenodd" clip-rule="evenodd">
          <path fill="#CF5434" d="M153.404 164c24.432 0 44.36-4.156 44.36-9.249 0-5.098-19.928-9.249-44.36-9.249-24.431 0-44.362 4.151-44.362 9.249 0 5.093 19.931 9.249 44.362 9.249z"/>
          <path fill="#CC9A8F" d="M122.016 33.258h9.659V156.531l-.042.039-.006.008-.053.045-.014.012-.038.03-.04.032-.015.011-.056.04-.119.087-.059.037v.006l-.063.039-.029.017-.031.02-.058.039h-.003l-.071.037-.022.019-.045.02-.053.03-.014.008-.071.04-.014.007-.056.03-.045.022-.029.013-.07.034-.012.005-.067.029-.037.024-.037.013-.073.032h-.008l-.077.034-.031.01-.048.024-.063.027-.018.002-.082.035-.022.007-.058.023-.061.022-.026.008-.085.029-.011.003-.074.026-.049.016-.037.009-.088.028h-.005l-.088.029-.037.009-.052.015-.078.022-.014.006-.09.019-.029.012-.067.015-.066.017-.027.006-.096.024h-.014l-.082.02-.06.015-.037.008-.096.016-.004.005-.096.016-.048.009-.053.011-.092.017h-.007l-.101.014-.037.01-.066.007-.082.013h-.019l-.102.017-.027.006-.082.006-.066.009-.037.006-.108.013h-.008l-.095.012-.056.005-.053.001-.099.013h-.008l-.107.008-.044.003-.064.005-.093.007h-.018l-.108.009h-.029l-.164.006-.029.002h-.129l-.097.005h-.515l-.034-.005H125.67l-.049-.002h-.025l-.072-.006h-.07l-.07-.003-.074-.006h-.007l-.064-.004-.071-.003-.024-.005-.045-.003-.068-.005-.044-.003h-.026l-.07-.013-.056-.001h-.015l-.067-.009-.066-.008h-.007l-.064-.005-.066-.008-.071-.009-.062-.008-.037-.004-.034-.006-.067-.011-.049-.006-.013-.002-.068-.011-.062-.007-.005-.003-.066-.013-.063-.008h-.012l-.054-.01-.064-.013-.026-.005-.04-.009-.064-.014-.04-.002-.023-.008-.064-.013-.063-.014-.06-.01-.063-.013-.063-.018-.059-.012-.019-.006-.043-.011-.06-.015-.03-.006-.03-.012-.059-.012-.06-.014-.059-.021-.057-.015-.062-.016-.055-.019-.056-.016-.059-.017-.222-.072-.049-.017-.005-.005-.054-.017-.055-.023-.052-.02-.053-.017-.053-.022-.05-.02v-2.504z"/>
          <path fill="#C98C77" d="M126.848 33.258h-4.832V156.531l.045.039v.006l.045.037.027.022.02.017.048.037.008.008.042.032.053.038.05.039.053.032.052.04h.001l.057.034.031.022.025.014.056.035.012.01.048.027.045.029.016.003.059.036.026.011.037.021.06.034h.004l.065.035.034.017.029.013.067.034.013.005.052.024.054.029.016.001.066.036.029.008.041.015.072.029.074.031.042.02.029.01.074.027.016.007.059.023.059.022.019.001.074.028.029.011.045.014.077.028h.005l.077.024.048.013.029.011.083.021.014.006.067.021.066.016.016.006.082.019.033.012.052.01.085.022.085.02.048.01.037.007.085.022.019.006.07.013.072.016h.013l.093.016.034.009.056.011.089.017.088.014.055.01.037.005.093.013.019.002.07.009.074.014h.024l.091.012.093.011.097.011.097.012.092.006.096.013h.023l.074.008.077.003.023.005.096.003.041.004h.059v-3.16z"/>
          <path fill="#260D3F" d="M122.016 33.258h4.832c1.549 0 3.218 2.739 4.827 1.751h54.967l-7.26 23.057 7.26 23.052h-54.967c-1.49.729-3.218 1.226-4.827 1.226-1.611 0-3.456-.615-4.832-1.226v-47.86z"/>
          <path fill="#190629" d="M126.848 33.258h4.827v47.86c-1.49.729-3.218 1.226-4.827 1.226V33.258zM169.784 35.009h98.945v46.109H148.125z"/>
        </g>
        <path fill="#FFF" d="M150.216 64.984h2.127V52.867h3.089v-1.949h-8.223v1.949h3.007v12.117zM256.79 43.592H140.103v28.725H258.921V43.592h-2.131zm0 26.612H142.232V45.705H256.79v24.499zm-89.022-15.62l1.364 10.399h2.369l1.289-10.399.731 10.399h2.094l-1.034-14.066h-2.947l-1.335 9.558-1.345-9.558h-2.965l-.973 14.066h2.099l.653-10.399zm10.999 8.058h4.322l.549 2.342h2.098l-3.618-14.066h-2.416l-3.756 14.066h2.279l.542-2.342zm2.163-8.947l1.65 6.975h-3.292l1.642-6.975zm27.116 11.289l.704-2.442h3.853l.689 2.442h2.164l-3.617-14.066h-2.217l-3.755 14.066h2.179zm2.707-11.289l1.448 6.975h-2.988l1.54-6.975zm17.075 8.847h3.848l.689 2.442h2.166l-3.619-14.066h-2.213l-3.756 14.066h2.181l.704-2.442zm1.998-8.847l1.45 6.975h-2.988l1.538-6.975zm15.387 8.847h3.852l.685 2.442h2.166l-3.619-14.066h-2.212l-3.754 14.066h2.175l.707-2.442zm1.997-8.847l1.45 6.975h-2.988l1.538-6.975zm-28.922 5.404h3.818v5.885h2.127V50.918h-2.127v6.25h-3.818v-6.25h-2.127v14.066h2.127v-5.885zm23.93 3.94h-4.757V50.918h-2.127v14.066h6.38l.504-1.945zm-38.613 1.945l3.755-14.066h-2.384l-2.706 11.191-2.535-11.191h-2.365l3.614 14.066h2.621zm-43.637.113c3.411 0 3.768-3.168 3.842-3.736.073-.56.11-2.705.114-3.387V57.939h-.004c0-.702-.056-2.261-.16-3.384-.048-.52-.396-3.736-3.806-3.736s-3.766 3.165-3.84 3.736c-.074.558-.115 2.703-.115 3.384v.035c.004.705.06 2.264.163 3.387.047.518.393 3.736 3.806 3.736zm-1.794-9.918c.03-.37.241-2.42 1.787-2.42 1.542 0 1.724 1.958 1.753 2.42.053.843.078 1.965.082 2.744-.004.746-.019 2.474-.048 2.812-.03.372-.245 2.42-1.787 2.42-1.545 0-1.726-1.955-1.752-2.42a53.48 53.48 0 0 1-.082-2.747c.003-.748.018-2.471.047-2.809zm27.72-.087v.015c.085 2.074 1.331 2.962 2.762 3.67 1.204.601 2.061 1.25 2.061 2.429 0 1.2-.737 1.672-1.712 1.672h-2.81l.503 2.106h2.344c2.146 0 3.955-1.243 3.955-3.913 0-.183-.011-.41-.029-.577-.189-1.859-1.383-2.693-2.735-3.368-1.209-.597-2.065-1.197-2.065-2.376 0-1.199.742-1.721 1.712-1.721h2.814l-.508-2.11h-2.343c-2.128 0-3.927 1.231-3.951 3.859l-.005.045v.011c0 .021.005.037.005.056-.001.048-.001.152.002.202z"/>
      </g>
      <path fill="#FFF" d="M79.4 53.226h16.552v17.165H79.4z"/>
    </svg>
  </g>

  <g class="footer--car">
    <g class="footer--car-holder">
      <svg class="footer--car" xmlns="http://www.w3.org/2000/svg" width="243" height="154">
        <path fill="#86A0D7"
              d="M172.186 88.406v35.519c0 .431-.029.842-.092 1.252a8.163 8.163 0 0 1-2.186 4.37 8.035 8.035 0 0 1-5.797 2.464H26.367c-4.451 0-8.073-3.623-8.073-8.086V88.406h153.892z"/>
        <path fill="#A0B9F0"
              d="M172.186 88.406v35.519c0 .431-.029.842-.092 1.252a8.163 8.163 0 0 1-2.186 4.37H28.679c-4.456 0-8.075-3.622-8.075-8.086V88.406h151.582z"/>
        <path fill="#C2D3F8"
              d="M172.186 88.406v35.519c0 .431-.029.842-.092 1.252H27.262a3.096 3.096 0 0 1-3.098-3.099V88.406h148.022z"/>
        <g class="wheel wheel--1">
          <path class="wheell--1-a" fill="#414252" d="M116.683 136.292v-8.568h-3.522a18.437 18.437 0 0 0-2.219-5.356l2.492-2.493-6.061-6.06-2.493 2.493a18.365 18.365 0 0 0-5.353-2.217v-3.523h-8.572v3.523a18.406 18.406 0 0 0-5.358 2.217l-2.49-2.493-6.059 6.06 2.491 2.493a18.362 18.362 0 0 0-2.217 5.356h-3.524v8.568h3.524a18.26 18.26 0 0 0 2.217 5.356l-2.491 2.494 6.059 6.059 2.49-2.49a18.445 18.445 0 0 0 5.358 2.217v3.525h8.572v-3.525a18.392 18.392 0 0 0 5.353-2.217l2.493 2.49 6.061-6.059-2.492-2.494a18.369 18.369 0 0 0 2.219-5.356h3.522z"/>
          <path class="wheell--1-b" fill="#414252" d="M114.628 129.771v4.474h-1.465c-.953 0-1.784.647-1.999 1.568a16.1 16.1 0 0 1-1.971 4.76 2.057 2.057 0 0 0 .298 2.524l.233.236.802.813-3.15 3.16-1.046-1.047c-.39-.4-.923-.605-1.446-.605-.371 0-.749.102-1.076.306a16.163 16.163 0 0 1-4.763 1.972 2.042 2.042 0 0 0-1.568 1.99v1.477h-4.475v-1.477c0-.942-.645-1.773-1.568-1.99a16.082 16.082 0 0 1-4.76-1.972 2.06 2.06 0 0 0-1.077-.306c-.526 0-1.056.205-1.446.605l-1.05 1.047-3.148-3.16 1.039-1.049c.667-.663.79-1.712.296-2.524a16.222 16.222 0 0 1-1.971-4.76 2.042 2.042 0 0 0-1.998-1.568h-1.47v-4.474h1.47c.5 0 .982-.186 1.343-.501.319-.267.553-.637.655-1.068a16.23 16.23 0 0 1 1.971-4.759 2.062 2.062 0 0 0-.296-2.526l-1.039-1.046 3.148-3.161 1.05 1.05a2.039 2.039 0 0 0 2.523.297 16.068 16.068 0 0 1 4.76-1.971 2.04 2.04 0 0 0 1.568-1.99v-1.478h4.475v1.478a2.04 2.04 0 0 0 1.568 1.99c1.695.4 3.294 1.064 4.763 1.971a2.04 2.04 0 0 0 2.522-.297l1.046-1.05 3.15 3.161-1.035 1.046a2.061 2.061 0 0 0-.298 2.526 16.191 16.191 0 0 1 1.971 4.759 2.041 2.041 0 0 0 1.999 1.569h1.465z"/>
          <path class="wheell--1-c" fill="#54556A" d="M114.628 129.771v4.474h-1.465c-.953 0-1.784.647-1.999 1.568a16.1 16.1 0 0 1-1.971 4.76 2.057 2.057 0 0 0 .298 2.524l.233.236a20.348 20.348 0 0 1-10.896 3.152c-10.187 0-18.629-7.46-20.168-17.216.319-.267.553-.637.655-1.068a16.23 16.23 0 0 1 1.971-4.759 2.062 2.062 0 0 0-.296-2.526l-1.039-1.046 3.148-3.161 1.05 1.05a2.039 2.039 0 0 0 2.523.297 16.068 16.068 0 0 1 4.76-1.971 2.04 2.04 0 0 0 1.568-1.99v-1.478h4.475v1.478a2.04 2.04 0 0 0 1.568 1.99c1.695.4 3.294 1.064 4.763 1.971a2.04 2.04 0 0 0 2.522-.297l1.046-1.05 3.15 3.161-1.035 1.046a2.061 2.061 0 0 0-.298 2.526 16.191 16.191 0 0 1 1.971 4.759 2.041 2.041 0 0 0 1.999 1.569h1.467z"/>
        </g>
        <g class="wheel wheel--2">
          <path class="wheell--2-a" fill="#414252"
                d="M164.457 136.292v-8.568h-3.525a18.32 18.32 0 0 0-2.215-5.356l2.489-2.493-6.058-6.06-2.493 2.493a18.337 18.337 0 0 0-5.356-2.217v-3.523h-8.568v3.523a18.389 18.389 0 0 0-5.357 2.217l-2.489-2.493-6.062 6.06 2.489 2.493a18.301 18.301 0 0 0-2.214 5.356h-3.528v8.568h3.528a18.2 18.2 0 0 0 2.214 5.356l-2.489 2.494 6.062 6.059 2.489-2.49a18.427 18.427 0 0 0 5.357 2.217v3.525h8.568v-3.525a18.342 18.342 0 0 0 5.356-2.217l2.493 2.49 6.058-6.059-2.489-2.494a18.252 18.252 0 0 0 2.215-5.356h3.525z"/>
          <path class="wheell--2-b" fill="#414252"
                d="M162.407 129.771v4.474h-1.476c-.942 0-1.775.647-1.992 1.568a16.233 16.233 0 0 1-1.971 4.76 2.032 2.032 0 0 0 .301 2.524l.777.783.259.266-3.161 3.16-1.035-1.047a2.006 2.006 0 0 0-.749-.475 1.946 1.946 0 0 0-.709-.131c-.37 0-.739.102-1.068.306a15.985 15.985 0 0 1-4.758 1.972 2.054 2.054 0 0 0-1.581 1.99v1.477h-4.462v-1.477c0-.942-.657-1.773-1.581-1.99a16.156 16.156 0 0 1-4.748-1.972 2.089 2.089 0 0 0-1.079-.306c-.534 0-1.058.205-1.447.605l-1.046 1.047-3.16-3.16 1.048-1.049a2.063 2.063 0 0 0 .299-2.524 15.851 15.851 0 0 1-1.97-4.76 2.059 2.059 0 0 0-2.004-1.568h-1.466v-4.474h1.466c.957 0 1.775-.645 2.004-1.569.152-.645.348-1.281.574-1.906.367-.996.831-1.951 1.396-2.853a2.067 2.067 0 0 0-.299-2.526l-.347-.349-.701-.697 3.16-3.161 1.046 1.05c.39.396.913.604 1.447.604a2.1 2.1 0 0 0 1.079-.307 16.154 16.154 0 0 1 4.748-1.971 2.051 2.051 0 0 0 1.581-1.99v-1.478h4.462v1.478c0 .944.657 1.774 1.581 1.99 1.684.4 3.282 1.064 4.759 1.971.329.203.698.307 1.068.307.534 0 1.058-.208 1.458-.604l1.035-1.05 3.161 3.161-1.036 1.046a2.036 2.036 0 0 0-.301 2.526 16.3 16.3 0 0 1 1.971 4.759 2.044 2.044 0 0 0 1.992 1.569h1.475z"/>
          <path class="wheell--2-c" fill="#54556A"
                d="M162.407 129.771v4.474h-1.476c-.942 0-1.775.647-1.992 1.568a16.233 16.233 0 0 1-1.971 4.76 2.032 2.032 0 0 0 .301 2.524l.777.783a19.319 19.319 0 0 1-4.687 1.904c-.75.207-1.518.373-2.3.482-.973.146-1.97.219-2.984.219-11.205 0-20.305-9.018-20.405-20.19-.012-.072-.012-.145-.012-.216 0-1.908.268-3.756.762-5.512.192-.727.438-1.436.728-2.122l1.731-1.736 1.046 1.05c.39.396.913.604 1.447.604a2.1 2.1 0 0 0 1.079-.307 16.154 16.154 0 0 1 4.748-1.971 2.051 2.051 0 0 0 1.581-1.99v-1.478h4.462v1.478c0 .944.657 1.774 1.581 1.99 1.684.4 3.282 1.064 4.759 1.971.329.203.698.307 1.068.307.534 0 1.058-.208 1.458-.604l1.035-1.05 3.161 3.161-1.036 1.046a2.036 2.036 0 0 0-.301 2.526 16.3 16.3 0 0 1 1.971 4.759 2.044 2.044 0 0 0 1.992 1.569h1.477z"/>
        </g>
        <g class="wheel wheel--3">
          <path class="wheell--3-a" fill="#414252"
                d="M68.908 136.292v-8.568h-3.525a18.378 18.378 0 0 0-2.217-5.356l2.493-2.493-6.063-6.06-2.492 2.493a18.365 18.365 0 0 0-5.353-2.217v-3.523h-8.573v3.523a18.417 18.417 0 0 0-5.356 2.217l-2.488-2.493-6.062 6.06 2.493 2.493a18.285 18.285 0 0 0-2.219 5.356h-3.525v8.568h3.525a18.184 18.184 0 0 0 2.219 5.356l-2.493 2.494 6.062 6.059 2.488-2.49a18.456 18.456 0 0 0 5.356 2.217v3.525h8.573v-3.525a18.392 18.392 0 0 0 5.353-2.217l2.492 2.49 6.063-6.059-2.493-2.494a18.31 18.31 0 0 0 2.217-5.356h3.525z"/>
          <path class="wheell--3-b" fill="#414252"
                d="M66.854 129.771v4.474h-1.47c-.955 0-1.772.647-1.999 1.568a15.86 15.86 0 0 1-1.969 4.76 2.056 2.056 0 0 0 .296 2.524l.481.484.564.564-3.161 3.16-1.045-1.047a1.869 1.869 0 0 0-1.18-.575 1.165 1.165 0 0 0-.268-.03 2.08 2.08 0 0 0-1.076.306c-.063.032-.114.073-.174.105a15.875 15.875 0 0 1-4.578 1.866 2.052 2.052 0 0 0-1.579 1.99v1.477h-4.464v-1.477c0-.942-.655-1.773-1.579-1.99a16.35 16.35 0 0 1-4.76-1.972 2.012 2.012 0 0 0-1.068-.306c-.531 0-1.054.205-1.453.605l-1.039 1.047-3.158-3.16 1.036-1.049a2.033 2.033 0 0 0 .297-2.524 16.438 16.438 0 0 1-1.97-4.76 2.043 2.043 0 0 0-1.989-1.568H28.07v-4.474h1.479c.839 0 1.588-.512 1.885-1.271.044-.093.086-.194.104-.299a16.474 16.474 0 0 1 1.97-4.759 2.036 2.036 0 0 0-.297-2.526l-.976-.983-.061-.063.112-.111 3.046-3.05 1.039 1.05a2.06 2.06 0 0 0 1.453.604c.371 0 .742-.104 1.068-.307a16.347 16.347 0 0 1 4.76-1.971 2.05 2.05 0 0 0 1.579-1.99v-1.478h4.464v1.478a2.05 2.05 0 0 0 1.579 1.99c1.683.4 3.284 1.064 4.752 1.971.338.203.709.307 1.076.307.534 0 1.058-.208 1.447-.604l1.045-1.05 3.161 3.161-1.046 1.046a2.06 2.06 0 0 0-.296 2.526 15.923 15.923 0 0 1 1.969 4.759 2.05 2.05 0 0 0 1.999 1.569h1.473z"/>
          <path class="wheell--3-c" fill="#54556A"
                d="M66.854 129.771v4.474h-1.47c-.955 0-1.772.647-1.999 1.568a15.86 15.86 0 0 1-1.969 4.76 2.056 2.056 0 0 0 .296 2.524l.481.484a20.061 20.061 0 0 1-4.821 2.103c-.502.142-1.006.266-1.518.381a20.69 20.69 0 0 1-4.154.421c-10.457 0-19.075-7.85-20.266-17.985a21.669 21.669 0 0 1-.141-2.421c0-2.144.325-4.208.942-6.146a.99.99 0 0 1 .052-.174l3.046-3.05 1.039 1.05a2.06 2.06 0 0 0 1.453.604c.371 0 .742-.104 1.068-.307a16.347 16.347 0 0 1 4.76-1.971 2.05 2.05 0 0 0 1.579-1.99v-1.478h4.464v1.478a2.05 2.05 0 0 0 1.579 1.99c1.683.4 3.284 1.064 4.752 1.971.338.203.709.307 1.076.307.534 0 1.058-.208 1.447-.604l1.045-1.05 3.161 3.161-1.046 1.046a2.06 2.06 0 0 0-.296 2.526 15.923 15.923 0 0 1 1.969 4.759 2.05 2.05 0 0 0 1.999 1.569h1.472z"/>

        </g>
        <path fill="#86A0D7"
              d="M148.875 131.979a5.857 5.857 0 0 1-.972 3.242 5.888 5.888 0 0 1-4.927 2.656 5.905 5.905 0 0 1-5.899-5.898 5.86 5.86 0 0 1 3.169-5.222 5.756 5.756 0 0 1 2.73-.677 5.891 5.891 0 0 1 5.899 5.899zM101.107 131.979a5.793 5.793 0 0 1-.994 3.253 5.868 5.868 0 0 1-4.905 2.646 5.898 5.898 0 0 1-5.896-5.898 5.864 5.864 0 0 1 3.16-5.222 5.827 5.827 0 0 1 2.736-.677 5.897 5.897 0 0 1 5.899 5.898z"/>
        <path fill="#C2D3F8"
              d="M148.875 131.979a5.857 5.857 0 0 1-.972 3.242 5.76 5.76 0 0 1-2.73.675 5.888 5.888 0 0 1-5.898-5.898c0-1.19.356-2.307.972-3.24a5.756 5.756 0 0 1 2.73-.677 5.89 5.89 0 0 1 5.898 5.898zM101.107 131.979a5.793 5.793 0 0 1-.994 3.253 5.791 5.791 0 0 1-2.719.664 5.898 5.898 0 0 1-5.9-5.898c0-1.19.361-2.307.978-3.24a5.827 5.827 0 0 1 2.736-.677 5.897 5.897 0 0 1 5.899 5.898z"/>
        <path fill="#E1EAFD"
              d="M145.511 129.924a1.248 1.248 0 1 1-2.495-.003 1.248 1.248 0 0 1 2.495.003zM97.55 129.924a1.248 1.248 0 1 1-1.246-1.251c.686 0 1.246.56 1.246 1.251z"/>
        <path fill="#86A0D7"
              d="M53.329 131.979a5.834 5.834 0 0 1-.973 3.242 5.905 5.905 0 0 1-4.926 2.656 5.898 5.898 0 1 1 5.899-5.898z"/>
        <path fill="#C2D3F8"
              d="M53.329 131.979a5.834 5.834 0 0 1-.973 3.242 5.897 5.897 0 0 1-8.638-5.223c0-1.201.37-2.317.993-3.253a5.807 5.807 0 0 1 2.72-.664 5.897 5.897 0 0 1 5.898 5.898z"/>
        <path fill="#E1EAFD" d="M49.771 129.924a1.248 1.248 0 1 1-1.248-1.251c.692 0 1.248.56 1.248 1.251z"/>
        <path fill="#86A0D7"
              d="M172.186 85.595v2.812h-68.227V62.245c0-5.1 4.137-9.235 9.233-9.235h25.647c4.467 0 8.755 1.714 11.975 4.791L166.8 73.017a17.376 17.376 0 0 1 5.386 12.578z"/>
        <path fill="#A0B9F0"
              d="M172.186 85.595v2.812h-62.295V62.245c0-5.1 4.133-9.235 9.233-9.235h19.716c4.467 0 8.755 1.714 11.975 4.791L166.8 73.017a17.376 17.376 0 0 1 5.386 12.578z"/>
        <path fill="#C2D3F8"
              d="M172.186 85.595v2.812h-55.503V62.245c0-5.1 4.134-9.235 9.234-9.235h12.923c4.467 0 8.755 1.714 11.975 4.791L166.8 73.017a17.376 17.376 0 0 1 5.386 12.578z"/>
        <path class="antena--1" fill="#414252" d="M27.398 79.174c-.849 0-1.539-.787-1.539-1.759V35.274c0-.968.69-1.755 1.539-1.755.85 0 1.54.787 1.54 1.755v42.141c0 .972-.69 1.759-1.54 1.759z"/>
        <g class="antena-holder">
          <g class="antena">
            <path fill="#BA2A2C"
                  d="M31.16 3.766v15.391h-7.52V3.766A3.76 3.76 0 0 1 27.393 0h.014a3.766 3.766 0 0 1 3.753 3.766z"/>
            <path fill="#F0373A"
                  d="M31.16 3.766v15.391h-3.754V3.766a3.76 3.76 0 0 1 1.877-3.26 3.764 3.764 0 0 1 1.877 3.26z"/>
            <path fill="#86A0D7"
                  d="M54.798 11.636a27.266 27.266 0 0 1-4.813 14.373c-.114.162-.237.339-.359.504C44.65 33.394 36.535 37.88 27.393 37.88 12.653 37.88.615 26.235 0 11.636h54.798z"/>
            <path fill="#A0B9F0"
                  d="M54.798 11.636a27.266 27.266 0 0 1-4.813 14.373c-.114.162-.237.339-.359.504a27.323 27.323 0 0 1-19.296 7.939c-13.563 0-24.84-9.86-27.024-22.816h51.492z"/>
            <path fill="#C2D3F8"
                  d="M54.798 11.636a27.266 27.266 0 0 1-4.813 14.373 27.258 27.258 0 0 1-15.82 5.028c-12.353 0-22.795-8.168-26.223-19.401h46.856z"/>
          </g>
        </g>
        <g>
            </g>
        <path fill="#BA2A2C"
              d="M36.506 79.431v8.976H18.294v-8.976a4.61 4.61 0 0 1 4.616-4.617h8.978a4.611 4.611 0 0 1 4.618 4.617z"/>
        <path fill="#F0373A"
              d="M36.506 79.431v8.976H20.604v-8.976a4.609 4.609 0 0 1 4.613-4.617h6.671a4.611 4.611 0 0 1 4.618 4.617z"/>
        <path fill="#FC3A3C"
              d="M36.506 79.431v8.976H24.164v-8.976a4.61 4.61 0 0 1 4.614-4.617h3.109a4.612 4.612 0 0 1 4.619 4.617z"/>
        <path fill="#FD9496"
              d="M31.624 85.072a1.291 1.291 0 0 1-1.291-1.29v-4.343a1.291 1.291 0 0 1 2.581 0v4.343a1.29 1.29 0 0 1-1.29 1.29z"/>
        <g>
          <path fill="#414252"
                d="M231.457 92.175a3.569 3.569 0 0 1-2.537-1.049 3.592 3.592 0 0 1 0-5.079l6.247-6.251V61.62l-5.198-5.195h-14.237l-5.192 5.195v18.176l6.247 6.251a3.594 3.594 0 0 1 0 5.079 3.597 3.597 0 0 1-5.081 0l-7.299-7.302a3.607 3.607 0 0 1-1.05-2.54V60.132a3.6 3.6 0 0 1 1.05-2.539l7.299-7.299a3.593 3.593 0 0 1 2.539-1.054h17.213c.953 0 1.866.381 2.54 1.054l7.298 7.299a3.582 3.582 0 0 1 1.053 2.539v21.152a3.59 3.59 0 0 1-1.053 2.54l-7.298 7.302a3.58 3.58 0 0 1-2.541 1.049z"/>
          <path fill="#54556A"
                d="M214.244 90.124c-.412 0-.798-.162-1.086-.449l-7.301-7.3a1.547 1.547 0 0 1-.449-1.091V60.132c0-.41.16-.797.449-1.087l7.301-7.3a1.517 1.517 0 0 1 1.086-.451h17.213c.403 0 .801.161 1.09.451l7.298 7.3c.292.29.452.677.452 1.087v21.152c0 .411-.16.797-.452 1.091l-7.298 7.3a1.547 1.547 0 0 1-2.177 0 1.521 1.521 0 0 1-.453-1.088c0-.413.159-.798.453-1.09l6.247-6.251c.386-.382.601-.904.601-1.45V61.62c0-.544-.215-1.064-.601-1.45l-5.197-5.197a2.044 2.044 0 0 0-1.451-.602h-14.237a2.06 2.06 0 0 0-1.45.602l-5.197 5.197c-.383.386-.6.906-.6 1.45v18.176c0 .546.217 1.068.6 1.45l6.251 6.251c.597.6.597 1.576-.004 2.178a1.536 1.536 0 0 1-1.088.449z"/>
          <path fill="#797B97"
                d="M231.457 89.101a.506.506 0 0 1-.363-.153.497.497 0 0 1-.148-.36c0-.14.051-.266.148-.363l6.248-6.248c.581-.58.904-1.355.904-2.18V61.62c0-.824-.323-1.596-.905-2.179l-5.194-5.196a3.07 3.07 0 0 0-2.178-.899h-14.237c-.818 0-1.595.318-2.174.899l-5.195 5.196a3.055 3.055 0 0 0-.902 2.179v18.176c0 .824.319 1.598.902 2.18l6.246 6.248c.2.201.2.525 0 .724a.51.51 0 0 1-.727 0l-7.296-7.298a.496.496 0 0 1-.153-.365V60.132c0-.139.053-.263.153-.363l7.296-7.299a.514.514 0 0 1 .363-.15h17.213c.133 0 .269.057.363.15l7.301 7.299a.513.513 0 0 1 .148.363v21.152a.5.5 0 0 1-.148.363l-7.301 7.3a.504.504 0 0 1-.364.154z"/>
        </g>
        <g>
          <path fill="#414252"
                d="M222.847 56.602a3.58 3.58 0 0 1-2.022-.624l-39.16-26.768-33.635 26.615a3.593 3.593 0 0 1-5.045-.586 3.594 3.594 0 0 1 .59-5.044l35.708-28.257a3.59 3.59 0 0 1 4.253-.148l41.342 28.256a3.587 3.587 0 0 1 .938 4.989 3.582 3.582 0 0 1-2.969 1.567z"/>
          <path fill="#54556A"
                d="M222.847 54.552c-.308 0-.607-.094-.864-.27l-39.159-26.766a2.05 2.05 0 0 0-2.431.083l-33.635 26.619a1.534 1.534 0 0 1-2.162-.252 1.545 1.545 0 0 1 .252-2.163l35.708-28.255c.273-.219.604-.332.953-.332.313 0 .612.092.871.269l41.34 28.257a1.54 1.54 0 0 1-.873 2.81z"/>
          <path fill="#797B97"
                d="M222.847 53.526a.48.48 0 0 1-.285-.092L183.404 26.67a3.047 3.047 0 0 0-1.739-.54 3.08 3.08 0 0 0-1.907.667L146.12 53.414a.51.51 0 0 1-.719-.086.512.512 0 0 1 .086-.72l35.707-28.256a.468.468 0 0 1 .315-.111c.107 0 .202.03.289.09l41.343 28.257a.506.506 0 0 1 .134.711.52.52 0 0 1-.428.227z"/>
        </g>
        <path fill="#E1EAFD"
              d="M79.762 98.273c0-1.209.98-2.188 2.189-2.188h38.313a2.19 2.19 0 0 1 2.191 2.188c0 1.21-.982 2.191-2.191 2.191H81.951a2.19 2.19 0 0 1-2.189-2.191zM165.052 81.816a1.07 1.07 0 0 1-1.509.124l-14.29-12.123a1.073 1.073 0 0 1 1.388-1.636l14.289 12.123c.449.387.505 1.061.122 1.512z"/>
        <g>
          <path fill="#BA2A2C"
                d="M154.517 53.01c0 1.838-.57 3.55-1.547 4.958a8.693 8.693 0 0 1-7.17 3.764c-4.815 0-8.723-3.909-8.723-8.722a8.704 8.704 0 0 1 4.627-7.691 8.604 8.604 0 0 1 4.096-1.025 8.715 8.715 0 0 1 8.717 8.716z"/>
          <path fill="#F0373A"
                d="M154.517 53.01c0 1.838-.57 3.55-1.547 4.958a8.63 8.63 0 0 1-4.095 1.026c-4.812 0-8.721-3.91-8.721-8.724 0-1.845.574-3.549 1.55-4.952a8.717 8.717 0 0 1 12.813 7.692z"/>
          <circle cx="148.877" cy="51.593" r="2.351" fill="#FD9496"/>
        </g>
        <g>
          <path fill="#BA2A2C"
                d="M189.885 25.056c0 1.835-.578 3.55-1.551 4.953a8.683 8.683 0 0 1-7.173 3.767c-4.811 0-8.719-3.909-8.719-8.72a8.703 8.703 0 0 1 4.626-7.694 8.617 8.617 0 0 1 4.093-1.027 8.722 8.722 0 0 1 8.724 8.721z"/>
          <path fill="#F0373A"
                d="M189.885 25.056c0 1.835-.578 3.55-1.551 4.953a8.605 8.605 0 0 1-4.092 1.028c-4.814 0-8.721-3.909-8.721-8.725a8.65 8.65 0 0 1 1.547-4.951 8.617 8.617 0 0 1 4.093-1.027 8.723 8.723 0 0 1 8.724 8.722z"/>
          <path fill="#FD9496" d="M186.59 23.636a2.351 2.351 0 0 1-4.701 0 2.35 2.35 0 0 1 4.701 0z"/>
        </g>
        <g>
          <path fill="#BA2A2C"
                d="M230.406 53.01c0 1.838-.574 3.55-1.547 4.958a8.701 8.701 0 0 1-7.173 3.764c-4.813 0-8.722-3.909-8.722-8.722a8.708 8.708 0 0 1 4.629-7.691 8.601 8.601 0 0 1 4.093-1.025 8.716 8.716 0 0 1 8.72 8.716z"/>
          <path fill="#F0373A"
                d="M230.406 53.01c0 1.838-.574 3.55-1.547 4.958a8.653 8.653 0 0 1-4.094 1.026c-4.813 0-8.723-3.91-8.723-8.724 0-1.845.576-3.549 1.551-4.952a8.601 8.601 0 0 1 4.093-1.025 8.717 8.717 0 0 1 8.72 8.717z"/>
          <circle cx="224.767" cy="51.593" r="2.35" fill="#FD9496"/>
        </g>
      </svg>
    </g>
  </g>
</svg>
