<svg xmlns="http://www.w3.org/2000/svg" width="195" height="47">
  <path fill="#FFF" d="M16.546 35.005h3.482v-19.83h5.049v-3.187H11.622v3.187h4.924v19.83zM0 0v47h194.41V0H0zm190.928 43.542H3.481V3.458h187.447v40.084zM45.264 17.989l2.229 17.016h3.88l2.106-17.016 1.194 17.016h3.432l-1.691-23.017h-4.825L49.41 27.63l-2.206-15.642h-4.85l-1.592 23.017h3.432l1.07-17.016zm17.997 13.18h7.071l.896 3.836h3.433l-5.92-23.017h-3.956l-6.141 23.017h3.73l.887-3.836zM66.8 16.533l2.703 11.41h-5.389l2.686-11.41zm44.371 18.472l1.153-4h6.301l1.126 4h3.541l-5.92-23.017h-3.623l-6.144 23.017h3.566zm4.427-18.472l2.371 11.41h-4.893l2.522-11.41zm27.937 14.472h6.301l1.127 4h3.541l-5.919-23.017h-3.623l-6.142 23.017h3.563l1.152-4zm3.275-14.472l2.371 11.41h-4.891l2.52-11.41zm25.172 14.472h6.299l1.127 4h3.541l-5.918-23.017h-3.623l-6.144 23.017h3.565l1.153-4zm3.273-14.472l2.372 11.41h-4.891l2.519-11.41zm-47.322 8.842h6.244v9.63h3.48V11.989h-3.48v10.224h-6.244V11.989h-3.482v23.017h3.482v-9.631zm39.155 6.443h-7.785v-19.83h-3.482v23.017h10.436l.831-3.187zm-63.185 3.187l6.143-23.017h-3.897l-4.426 18.308-4.153-18.307h-3.872l5.919 23.017h4.286zm-71.403.182c5.583 0 6.161-5.182 6.285-6.113.123-.914.185-4.426.187-5.539v-.059h-.001a75.321 75.321 0 0 0-.265-5.539c-.079-.849-.645-6.111-6.229-6.111-5.582 0-6.16 5.181-6.285 6.111-.122.915-.185 4.426-.186 5.539v.059a75.98 75.98 0 0 0 .266 5.539c.078.849.645 6.113 6.228 6.113zm-2.938-16.226c.051-.608.4-3.96 2.926-3.96s2.824 3.2 2.87 3.96c.083 1.377.126 3.212.132 4.489-.005 1.22-.03 4.048-.075 4.6-.05.609-.401 3.961-2.927 3.961s-2.823-3.2-2.869-3.961a91.007 91.007 0 0 1-.131-4.494c.005-1.223.03-4.045.074-4.595zm45.359-.141l.001.021c.143 3.393 2.18 4.848 4.516 6.008 1.976.98 3.377 2.044 3.377 3.973 0 1.962-1.209 2.735-2.803 2.735H75.41l.829 3.449h3.836c3.505 0 6.468-2.039 6.468-6.405 0-.301-.019-.671-.049-.947h.004c-.312-3.04-2.262-4.408-4.479-5.509-1.976-.98-3.378-1.96-3.378-3.891 0-1.961 1.211-2.816 2.804-2.816h4.601l-.83-3.449h-3.835c-3.479 0-6.424 2.011-6.466 6.313l-.002.074v.018l.002.089c.001.085.002.254.006.337z"/>
</svg>
