<svg xmlns="http://www.w3.org/2000/svg" xmlns:xlink="http://www.w3.org/1999/xlink" width="220" height="48" viewBox="0 0 220 48"><defs><path id="rylxa" d="M1177.8 2859.02l-20.63 11.98-20.6-12.02.01-24 20.63-11.98 19.67 11.47-19.69 11.8-10.42-6.25 10.43-6.06 6.02 3.5 3.44-2.48-9.45-5.52-15.08 8.76-.01 17.53 15.05 8.79 15.07-8.76.02-13.3 5.51-3.31zm-20.62.12l-10.81-6.3V2845l9.68 5.81h2.28l9.68-5.8-.01 7.84zm36.27-23.78c1.51 0 2.8.15 3.87.43 1.07.29 1.95.7 2.63 1.22a4.65 4.65 0 0 1 1.48 1.92c.3.75.46 1.6.46 2.52a4.51 4.51 0 0 1-.92 2.86c-.32.42-.72.8-1.22 1.15a7.4 7.4 0 0 1-1.77.87c1.53.37 2.67.96 3.4 1.79.74.82 1.1 1.89 1.1 3.2a6.5 6.5 0 0 1-.55 2.68c-.36.82-.9 1.54-1.6 2.14-.7.6-1.57 1.08-2.6 1.42-1.03.34-2.22.5-3.55.5h-8.72v-22.7zm-3.34 3.57v6.13h3.06c.65 0 1.23-.05 1.74-.16.5-.1.93-.28 1.27-.52.34-.24.6-.56.78-.95.19-.4.28-.86.28-1.42a4.1 4.1 0 0 0-.23-1.44c-.15-.4-.38-.71-.69-.95a3 3 0 0 0-1.18-.53 7.61 7.61 0 0 0-1.7-.16zm4 15.54c.74 0 1.35-.1 1.83-.27.48-.19.87-.43 1.16-.73.29-.3.49-.65.6-1.04a4.33 4.33 0 0 0-.03-2.45 2.21 2.21 0 0 0-.65-.93c-.3-.26-.7-.45-1.17-.59a6.68 6.68 0 0 0-1.78-.2h-3.96v6.21zm10.76-10.3a9.56 9.56 0 0 1 3.12-1.91c1.14-.43 2.37-.64 3.7-.64.95 0 1.8.16 2.55.47a5.44 5.44 0 0 1 3.11 3.3c.28.78.42 1.62.42 2.54v10.14h-1.95c-.4 0-.71-.06-.93-.17-.2-.12-.38-.36-.52-.72l-.34-1.04c-.4.36-.8.67-1.17.94a6.08 6.08 0 0 1-2.47 1.1 7.76 7.76 0 0 1-3.47-.14 4.16 4.16 0 0 1-1.5-.84 3.68 3.68 0 0 1-.97-1.38 4.99 4.99 0 0 1-.34-1.91c0-.6.15-1.2.45-1.79.3-.6.82-1.13 1.55-1.62.73-.48 1.7-.88 2.92-1.2 1.21-.32 2.74-.5 4.57-.54v-.83c0-1.01-.21-1.76-.64-2.23-.42-.48-1.03-.71-1.83-.71-.6 0-1.08.07-1.47.2-.4.15-.74.3-1.04.46l-.83.45c-.26.15-.56.22-.9.22-.3 0-.55-.08-.75-.23-.2-.15-.37-.33-.5-.54zm8.73 7.15c-1.05.06-1.92.15-2.61.28-.7.13-1.25.3-1.65.5-.41.22-.7.45-.87.72-.17.27-.26.55-.26.87 0 .62.17 1.07.52 1.33s.83.39 1.45.39c.72 0 1.34-.13 1.86-.39a5.62 5.62 0 0 0 1.56-1.2zm11.84-16.58v23.33h-4.28v-23.33zm8 7.2v16.13h-4.29v-16.13zm3.7-6.83l-3.92 4.1c-.2.22-.41.37-.62.46-.2.1-.46.14-.78.14h-2.58l2.18-3.82c.15-.3.34-.51.56-.66.23-.14.56-.22 1.02-.22zm5.13-.37v13.24h.71c.27 0 .48-.04.64-.12.15-.08.3-.22.46-.43l3.54-4.76c.18-.24.38-.42.6-.55.22-.12.5-.18.85-.18h3.9l-4.59 5.88c-.36.49-.78.87-1.25 1.16.23.16.44.36.62.58.17.21.34.46.5.73l4.96 7.78h-3.85c-.33 0-.62-.06-.85-.17a1.3 1.3 0 0 1-.6-.58l-3.6-5.93c-.14-.25-.29-.42-.44-.49-.16-.07-.4-.1-.7-.1h-.9v7.27h-4.29v-23.33zm19.09 6.94c1.2 0 2.3.2 3.27.58a7.18 7.18 0 0 1 4.16 4.26c.39 1.02.58 2.17.58 3.46 0 1.28-.2 2.44-.58 3.46a7.13 7.13 0 0 1-4.16 4.28 8.9 8.9 0 0 1-3.27.58 9 9 0 0 1-3.3-.58 7.11 7.11 0 0 1-4.17-4.28 9.73 9.73 0 0 1-.59-3.46c0-1.29.2-2.44.59-3.46a7.16 7.16 0 0 1 4.18-4.26 9 9 0 0 1 3.29-.58zm0 13.38c1.22 0 2.13-.42 2.72-1.27.59-.85.88-2.12.88-3.8 0-1.67-.3-2.93-.88-3.78-.6-.85-1.5-1.27-2.72-1.27-1.25 0-2.17.42-2.76 1.27-.6.85-.89 2.11-.89 3.78 0 1.68.3 2.95.89 3.8.59.85 1.5 1.27 2.76 1.27zm14.68-11.25c.32-.31.66-.6 1-.86a6.5 6.5 0 0 1 2.36-1.1 6.48 6.48 0 0 1 3.78.29c.68.3 1.24.72 1.7 1.27.46.54.81 1.19 1.04 1.94.24.75.35 1.57.35 2.47v10.25H1282v-10.25c0-.9-.2-1.6-.62-2.09-.41-.5-1.02-.74-1.83-.74-.6 0-1.16.13-1.7.39-.52.26-1.02.62-1.5 1.1v11.59h-4.28v-16.13h2.64c.54 0 .9.25 1.07.75zm20.85-2.13c1.2 0 2.3.2 3.27.58a7.18 7.18 0 0 1 4.16 4.26c.39 1.02.58 2.17.58 3.46 0 1.28-.2 2.44-.58 3.46a7.13 7.13 0 0 1-4.16 4.28 8.9 8.9 0 0 1-3.27.58 9 9 0 0 1-3.3-.58 7.11 7.11 0 0 1-4.17-4.28 9.73 9.73 0 0 1-.59-3.46c0-1.29.2-2.44.59-3.46a7.16 7.16 0 0 1 4.18-4.26 9 9 0 0 1 3.29-.58zm0 13.38c1.22 0 2.13-.42 2.72-1.27.59-.85.88-2.12.88-3.8 0-1.67-.3-2.93-.88-3.78-.6-.85-1.5-1.27-2.72-1.27-1.25 0-2.17.42-2.76 1.27-.6.85-.89 2.11-.89 3.78 0 1.68.3 2.95.89 3.8.59.85 1.5 1.27 2.76 1.27zm20.66-9.8c-.11.17-.23.3-.35.38a.89.89 0 0 1-.49.11c-.2 0-.42-.05-.63-.15l-.73-.34a8 8 0 0 0-.93-.34c-.34-.1-.75-.15-1.2-.15-.7 0-1.23.14-1.62.43-.38.28-.57.66-.57 1.13 0 .33.1.6.33.82.21.22.5.4.86.57.35.16.76.31 1.22.45l1.4.46c.48.17.95.36 1.4.58a5 5 0 0 1 1.22.82c.36.33.65.73.87 1.2.21.46.32 1.02.32 1.67 0 .79-.14 1.5-.42 2.17-.29.66-.7 1.24-1.26 1.72-.54.48-1.23.85-2.04 1.12-.82.27-1.76.4-2.83.4a8.98 8.98 0 0 1-5.63-1.98l.99-1.61c.11-.19.26-.33.43-.44.17-.1.39-.15.66-.15.25 0 .5.06.71.19l.73.42a4.16 4.16 0 0 0 2.33.62c.41 0 .77-.05 1.07-.14.3-.1.54-.22.73-.38a1.54 1.54 0 0 0 .54-1.18c0-.36-.1-.65-.33-.87a3 3 0 0 0-.87-.59 8.6 8.6 0 0 0-1.23-.45 28.1 28.1 0 0 1-1.43-.46c-.48-.16-.95-.36-1.4-.6a4.8 4.8 0 0 1-1.23-.86 4.03 4.03 0 0 1-.87-1.3 4.66 4.66 0 0 1-.34-1.85c0-.67.13-1.3.4-1.9.25-.6.64-1.13 1.16-1.6a5.77 5.77 0 0 1 1.93-1.09c.77-.27 1.66-.4 2.68-.4 1.13 0 2.17.18 3.1.56.93.37 1.7.86 2.3 1.47zm1-9.9l-3.6 4.43h-4.01l-3.6-4.43h2.96a1.36 1.36 0 0 1 .84.28l1.49 1.6.37.42a4.15 4.15 0 0 1 .36-.42l1.49-1.6a1.63 1.63 0 0 1 .84-.28zm2.18 20.44a2.49 2.49 0 0 1 2.53-2.5 2.54 2.54 0 0 1 2.34 1.52 2.48 2.48 0 0 1-.53 2.75 2.63 2.63 0 0 1-1.8.71 2.46 2.46 0 0 1-2.53-2.49zm19.6-10.27c-.12.17-.24.3-.37.39a.9.9 0 0 1-.52.13c-.21 0-.41-.06-.6-.18l-.66-.4a3.9 3.9 0 0 0-2.16-.57c-.64 0-1.2.13-1.67.36-.47.23-.86.57-1.17 1.01-.31.44-.54.97-.7 1.6a9.05 9.05 0 0 0-.22 2.1c0 1.66.33 2.92.99 3.8a3.18 3.18 0 0 0 2.7 1.31c.39 0 .73-.03 1.01-.1a3.56 3.56 0 0 0 1.3-.6l.44-.35c.14-.1.28-.19.42-.26.14-.06.3-.1.47-.1.33 0 .6.13.78.38l1.22 1.56a7.36 7.36 0 0 1-4.75 2.58c-.57.07-1.13.11-1.69.11-.98 0-1.91-.18-2.8-.55a6.68 6.68 0 0 1-2.3-1.62 7.78 7.78 0 0 1-1.58-2.61 10 10 0 0 1-.58-3.54c0-1.18.17-2.28.5-3.29a6.94 6.94 0 0 1 3.97-4.37c.98-.42 2.11-.64 3.4-.64 1.22 0 2.29.2 3.21.6.92.4 1.75.97 2.48 1.72zm15.1-1.84c0 .3-.04.6-.15.88a2 2 0 0 1-.4.7l-7.19 9.54h7.55v3.26h-12.5v-1.78a3.07 3.07 0 0 1 .56-1.44l7.25-9.66h-7.36v-3.25h12.25z"/></defs><g><g transform="translate(-1136 -2823)"><use fill="#fff" xlink:href="#rylxa"/></g></g></svg>