<svg xmlns="http://www.w3.org/2000/svg" xmlns:xlink="http://www.w3.org/1999/xlink" width="193" height="46" viewBox="0 0 193 46"><defs><path id="84wza" d="M634.75 2853.03l1.07-12.12h2.12c3.44 0 5.5 2 5.13 6-.38 4-2.75 6.12-6.25 6.12zm-5.3 2.81c-.13 1.07.37 1.63 1.43 1.63h5.81c6.56 0 11.13-3.94 11.69-10.5.56-6.63-3.31-10.44-9.88-10.44h-5.8c-1.07 0-1.7.56-1.76 1.63zm25.93-16.68c-.63.93-.31 1.75.69 1.75h.87c.88 0 1.5-.25 2.06-.94l1.25-1.44c.94-1 .75-1.94-.62-1.94h-1.31c-.88 0-1.5.32-2 1.13l-.94 1.44s.62-.94 0 0zm-1.13 14.87c-.93 0-1.37-.56-1.3-1.31.12-1.38 2.12-1.81 3.68-1.81h.5l-.06.43c-.13 1.25-1.38 2.7-2.82 2.7 0 0 .94 0 0 0zm-6.43-.94c-.25 2.63 1.62 4.63 4.5 4.63 3 0 4.62-2.38 4.62-2.38h.06s-.06.13-.06.32v.12c-.12 1.13.38 1.63 1.44 1.63h1.37c1.07 0 1.7-.57 1.75-1.63l.7-7.69c.3-3.8-2.07-6.12-6.2-6.12-2.12 0-3.93.69-5.12 1.19-.94.5-1.19 1.25-.81 2.18l.3.75c.45.94 1.13 1.13 2.13.7a6.62 6.62 0 0 1 2.75-.7c1.13 0 2.13.44 2 1.7v.23c.8-.01 2.25-.03 0 0v.01h-.43c-3.7.06-8.57 1.13-9 5.06zm15.87 2.75c-.12 1.07.38 1.63 1.44 1.63h1.81c1.06 0 1.69-.56 1.75-1.63l.44-4.75c.19-2.06.94-4.43 3.25-4.43.94 0 1.12.75 1 1.87l-.63 7.31c-.12 1.07.38 1.63 1.44 1.63H676c1.07 0 1.7-.56 1.75-1.63l.44-4.75c.19-2.25 1.06-4.43 3.25-4.43.94 0 1.13.75 1 1.87l-.62 7.31c-.13 1.07.37 1.63 1.43 1.63h1.82c1.06 0 1.68-.56 1.75-1.63l.68-8.18c.38-4.13-1.62-5.63-4.37-5.63a6.44 6.44 0 0 0-5 2.56h-.06c-.7-1.68-2.13-2.56-4-2.56-2.38 0-3.88 1.56-4.7 2.63h-.05s.06-.25.06-.38v-.25c.06-1.06-.38-1.62-1.44-1.62h-1.62c-1.07 0-1.7.56-1.75 1.62zm30.06-7.8c.38-1.2 1.2-2.26 2.63-2.26 1.31 0 2 1 1.87 2.25zm3.07-6c-4.88 0-8.13 3.5-8.44 7.87-.31 4 2.19 7.87 7.56 7.87 2.25 0 4.13-.69 5.25-1.31.94-.5 1.13-1.25.75-2.19l-.31-.75c-.44-.94-1.13-1.06-2.13-.62a6.9 6.9 0 0 1-2.8.68c-1.63 0-3.07-.8-3.26-2.68h7.88c.93 0 1.75-.88 1.8-1.7.38-4-1.87-7.18-6.3-7.18 0 0 4.87 0 0 0zm14.87-3.13c-.06 1.06.44 1.62 1.5 1.62h1.69c1.06 0 1.69-.56 1.75-1.62l.06-.75c.13-1.07-.37-1.63-1.44-1.63h-1.75c-1.06 0-1.68.56-1.75 1.63l-.06.75s.06-1.07 0 0zm-1.56 18.43c-.13 1.44-1.13 1.75-1.94 1.88-.81.12-1.62.31-1.75 1.62l-.12 1.13c-.13 1.06.37 1.62 1.43 1.62h.5c1.5 0 6.32-.93 6.75-5.8l1.2-13.76c.12-1.06-.38-1.62-1.45-1.62h-1.8c-1.07 0-1.7.56-1.76 1.62zm10-18.18c-.63 1-.31 1.8.75 1.75h.87c.88 0 1.5-.25 2.07-.94l1.25-1.44c.93-1 .75-1.94-.63-1.94h-1.37c-.88 0-1.5.32-2 1.13l-.94 1.44s.62-1 0 0zm-2.75 16.75c-.13 1.06.37 1.62 1.44 1.62h1.75c1.06 0 1.62-.56 1.75-1.62l1.06-11.88c.12-1.06-.38-1.62-1.44-1.62h-1.81c-1.06 0-1.69.56-1.75 1.62zm14.5-2.25c-1.75 0-2.81-1.5-2.63-3.7.2-2.3 1.7-3.62 3.25-3.62 2 0 2.75 1.82 2.63 3.63-.19 2.56-1.75 3.69-3.25 3.69 0 0 1.75 0 0 0zm-.13-11.63c-4 0-7.12 3.13-7.5 7.94-.43 4.69 2 7.87 6.07 7.87 3.06 0 4.5-2.18 4.5-2.18h.06s-.06.12-.06.18v.2c-.07.93.43 1.43 1.5 1.43h1.43c1.07 0 1.7-.56 1.75-1.63l1.57-17.68c.12-1.07-.38-1.63-1.44-1.63h-1.81c-1.07 0-1.63.56-1.75 1.63l-.44 4.68v.7h-.06s-.82-1.5-3.82-1.5c0 0 4 0 0 0zm10.25 9.88c-.43 5.06 2.32 5.68 4.94 5.68 1.13 0 1.69-.62 1.75-1.62l.13-1.44c.06-.87-.38-1.31-1.07-1.37-.5-.07-.87-.38-.75-1.5l1.2-13.5c.12-1.07-.38-1.63-1.45-1.63h-1.8c-1.07 0-1.63.56-1.76 1.63zm15.5 1.68c-1.8 0-3.25-1.37-3.06-3.56.19-2.31 1.94-3.75 3.75-3.75s3.25 1.44 3.06 3.69a3.8 3.8 0 0 1-3.75 3.62s1.82 0 0 0zm1-11.56c-4.68 0-8.75 3.19-9.12 7.94-.44 4.69 3.12 7.81 7.81 7.81 4.69 0 8.75-3.12 9.19-7.81.37-4.75-3.13-7.94-7.88-7.94 0 0 4.7 0 0 0zm8.44 13.81c-.12 1.07.38 1.63 1.44 1.63h1.56c1.06 0 1.63-.56 1.75-1.63l.13-1.56c.12-1.06-.38-1.62-1.44-1.62h-1.56c-1.07 0-1.63.56-1.75 1.62zm-156.44-7.8c-.3 3.93-1.5 6.62-3.87 8.8a12.9 12.9 0 0 1-8.88 3.25c-5.25 0-8.25-1.93-10.18-4.68-.32-.44-.2-1.07.3-1.44l5.32-4.19c.5-.37 1.13-.31 1.5.13.81 1.12 1.75 1.75 3.06 1.75 1.7 0 2.88-1.38 3.07-3.44l.93-10.56c.07-.63.57-1.13 1.2-1.13h7.3c.7 0 1.25.56 1.2 1.31zm-24.8-23.57a3.1 3.1 0 0 0-3 2.75l-3.5 39.81a2.28 2.28 0 0 0 2.3 2.5h13.38c14.44 0 24.25-8.25 25.44-22.44v-.12c1.3-14.25-7-22.5-21.44-22.5z"/></defs><g><g transform="translate(-579 -2824)"><use fill="#fff" xlink:href="#84wza"/></g></g></svg>