<svg xmlns="http://www.w3.org/2000/svg" xmlns:xlink="http://www.w3.org/1999/xlink" width="80" height="57" viewBox="0 0 80 57"><defs><path id="pgb3a" d="M1217.85 3300.32c-.94-.44-1.88-.87-2.84-1.24-.66-.25-.76-.56-.46-1.2 1.14-2.54 2.2-5.1 3.35-7.64.3-.63.22-.99-.28-1.45-3.26-3.04-4.33-6.79-2.96-11 1.44-4.42 4.7-6.79 9.28-7.21 5.12-.48 9.9 3.44 10.85 8.77.89 5.04-2.4 10.3-7.25 11.66a9.6 9.6 0 0 1-4.01.38c-.87-.13-1.14.33-1.37.98-.19.54.01.71.5.7l.1-.01c.55-.04 1.1-.12 1.65.04 4.54-.06 8.37 4.08 9.3 7.5a10.88 10.88 0 0 1-6.33 12.86c-4.9 2-11.13-.55-13.11-5.04-.63-1.42-.69-1.39.73-1.99.67-.29 1.37-.53 2-.9.67-.42.96-.21 1.3.43.8 1.56 1.96 2.84 3.75 3.18 2.54.49 5.24-.08 6.7-3.14 1.66-3.5-.33-7-3.31-7.95a5.5 5.5 0 0 0-5.5 1l-1.01.9c-.2.6-.57.61-1.08.37zm6.74-24.92a5.58 5.58 0 0 0-5.68 5.57 5.64 5.64 0 0 0 5.5 5.67 5.62 5.62 0 1 0 .19-11.24zm52.52 11.45c2.32-.35 3.83-2.19 3.87-4.86.05-3.25.06-6.5 0-9.75-.02-1.05.32-1.41 1.35-1.32.81.07 1.64.01 2.45 0 .64-.01.99.19.99.92-.02 6.1-.02 12.2 0 18.31 0 .65-.23.92-.87.88-.57-.03-1.14 0-1.7 0-.65-.01-1.4.19-1.9-.08-.64-.32-.15-1.16-.27-1.76-.05-.24-.04-.49-.35-.59-.32-.1-.45.15-.6.32a8.15 8.15 0 0 1-3.52 2.22c-3.5 1.06-7.35-.48-8.76-3.85a10.5 10.5 0 0 1-.85-4.2c.03-3.67.03-7.35 0-11.02-.02-.84.26-1.18 1.1-1.14.85.04 1.7.05 2.56-.01.85-.06 1.11.28 1.1 1.1-.03 2.97.02 5.93-.03 8.9-.02 1.1.09 2.2.24 3.26.17 1.2 1.02 2.01 2.1 2.56l.55.3c.45.03.92.13 1.36.07.39-.06.9.3 1.18-.26zm-21.87.15a4.92 4.92 0 0 0 3.83-4.38c0 .11.03.14.1.09.02-.02 0-.07 0-.1.02-3.47.05-6.93.02-10.39 0-.73.23-1.07.95-1.05 1.17.03 2.34-.11 3.5.07.43.22.28.63.28.96 0 5.88-.01 11.77.02 17.66 0 .88-.26 1.23-1.15 1.18-.99-.05-1.99-.05-2.98 0-.67.02-.89-.24-.82-.88.07-.73-.11-1.48.25-2.46-1.23 1.33-2.2 2.5-3.66 3.12-4.17 1.8-9.17-.17-10.23-5.22-.35-1.62-.2-3.25-.22-4.88-.03-2.93.01-5.85-.02-8.78 0-.78.21-1.09 1.03-1.02.85.07 1.7.02 2.56 0 .85-.04 1.2.3 1.18 1.2-.04 3.1 0 6.2-.02 9.3-.01 1.36.16 2.68.53 3.97.96 1.67 3.19 1.99 4.85 1.6zm-18.12-12.03c0-4.93.01-9.86-.02-14.8 0-.95.28-1.38 1.28-1.31.88.06 1.78.05 2.67 0 .7-.04.97.29 1.02.92l.01.64c0 9.75 0 19.5.02 29.26 0 1-.31 1.44-1.36 1.36a16.2 16.2 0 0 0-2.45 0c-.9.06-1.2-.3-1.2-1.18.04-3.03.02-6.07.02-9.1v-5.8zm4.72 15.28h.01v-30.52h-.01v30.52zm-30.03-9.23c0 3-.03 6 .01 9 .02.8-.24 1.07-1.03 1.02-.89-.06-1.78-.07-2.67 0-.87.07-1.1-.3-1.09-1.1.04-3.04.02-6.08.02-9.1 0-2.94.02-5.86-.02-8.79 0-.84.28-1.17 1.12-1.13.85.05 1.7.06 2.56 0 .83-.05 1.13.25 1.12 1.1-.04 3-.01 6-.01 9h-.01zm-2.67-13.34c-1.69 0-2.83-1.27-2.91-3-.08-1.7 1.5-3.23 2.86-3.18 2.23.07 3.43 1.04 3.5 3.17.06 1.71-1.11 3.19-3.45 3.01z"/></defs><g><g transform="translate(-1206 -3258)"><use fill="#fff" xlink:href="#pgb3a"/></g></g></svg>