<svg xmlns="http://www.w3.org/2000/svg" xmlns:xlink="http://www.w3.org/1999/xlink" width="155" height="38" viewBox="0 0 155 38"><defs><path id="xqnqa" d="M677.59 3292.38l8.48 10.65h-6.54l-5.67-7.17-1.63 1.73v5.44h-5.8V3278h5.8v13l6.45-7.42h6.72zm30.42-8.8l-8.7 22.54a9.12 9.12 0 0 1-2.26 3.6c-1.28 1.11-3.05 1.69-5.25 1.69-.86 0-1.72-.08-2.56-.27v-4.98c.77.22 1.57.33 2.37.31.58.03 1.16-.12 1.65-.42.42-.3.7-.74.82-1.24l.3-.85-8.35-20.38h5.89l5.34 13.51 4.82-13.5zm3.88 15.15a3.45 3.45 0 0 1-1.9 4.52 3.44 3.44 0 0 1-4.83-3.14v-.05a3.48 3.48 0 0 1 3.5-3.47c1.41 0 2.69.84 3.23 2.14zm-49.1-7.5V3303H657v-11.12c0-2.27-1.28-3.66-3.57-3.66-.21 0-.42.01-.63.04h-.08l-.37.07-.3.08c-.34.12-1.75.78-1.99 3-.3 3.58-1.73 13.52-5.5 13.52-.19 0-.38-.02-.57-.07-.4-.1-.73-.36-.92-.71-.55-.9-.34-2.43 0-3.52.82-2.72 2.07-5.3 3.7-7.64l.03-.05a.1.1 0 0 1 .06-.04.1.1 0 0 1 .05.09c.04.06.4.74-1.3 6.16a1.9 1.9 0 0 0-.17 1.1c.02.05.07.09.12.1h.08c.12 0 .4-.1.67-1.1.9-3.65 1.4-7.4 1.49-11.16.03-1.3-.13-2.14-.48-2.5-.24-.26-.59-.25-1.03 0a19.2 19.2 0 0 0-1.92 1.63c-.57.55-1.32 1.23-2.2 2.02a11.41 11.41 0 0 1-7.03 2.72 6.03 6.03 0 0 1-4.1-1.46 4.73 4.73 0 0 1-1.73-3.45c0-1.7.64-3.34 1.77-4.62a5.87 5.87 0 0 1 3.58-1.54c1.59 0 2.86 1 3.73 2.96.56 1.1 1.03 2.23 1.4 3.4 0 .04-.01.07-.04.09l-1.85 1.09a.06.06 0 0 1-.07 0 .07.07 0 0 1-.04-.05c-.02-.05-1.47-4.82-3.57-4.82a1.7 1.7 0 0 0-1.03.4c-1.83 1.37-.81 3.45-.59 3.85a3.85 3.85 0 0 0 3.24 1.77c1.5 0 3.16-.79 4.94-2.32 4.08-3.5 5.74-4.62 6.87-4.62.45.01.88.19 1.22.48.52.4.83 1.28 1 2.34 1.1-1.46 3.12-2.31 5.37-2.31 4.78 0 7.5 3.01 7.56 8.07zm-40.47 11.47c.25 1.73.09 3.5-.46 5.16-.98 2.81-4.68 8.14-11.42 8.14h-.38c-2.24-.07-3.86-.76-4.84-2.04-1.6-2.14-.82-5.2-.82-5.23a25.31 25.31 0 0 1 3.62-7.85l3.17-.9c.03 0 .07 0 .09.03.02.03.02.06 0 .09a32.12 32.12 0 0 0-2.63 4.05c-1.14 2.08-2.33 4.99-1.7 7.17.61 2.04 3.62 2.1 3.96 2.1h.11c.74 0 7.31-.2 8.89-7.37.48-2.18.22-3.9-.76-5.11-1.5-1.82-4.17-1.97-4.95-1.97h-.23c-2.42.16-7.1 1.58-7.14 1.58-1.3.33-2.64.52-3.98.55-1.14 0-1.87-.23-2.2-.69-1.01-1.44.28-3.14.7-3.62.35-.4 6.94-6.93 10.72-9.7 2.8-2.04 3.24-2.56 3.3-2.67v-.03a2.06 2.06 0 0 0-.87-.15c-.63-.06-1.3-.06-2-.06-3.06 0-8.68.4-11.89 3.11l-.83.7a1.1 1.1 0 0 1-.68.3 1.58 1.58 0 0 1-.65-.17 1.1 1.1 0 0 1-.44-.64c-.06-.38.05-.78.29-1.09.02-.03 2.7-4.4 14.16-4.4 1.26 0 2.62.06 4.01.16.05 0 1.54.1 1.65 1.1.01.03.26 1.67-1.76 3.3-.04.07-4.1 3.34-4.75 3.89-1.65 1.37-7.9 6.73-8.51 7.97a.7.7 0 0 0-.17.37v.07c.1.04.2.05.3.04.25 0 .51-.02.77-.06.55-.08 2.07-.47 3.69-.87 1.85-.49 3.75-.98 4.57-1.1l.33-.04c.8-.13 1.6-.2 2.4-.22a8.2 8.2 0 0 1 4.83 1.45c1.69 1.18 2.32 3.17 2.5 4.65zm1.73-19.13c.02.03.02.07 0 .1a27.19 27.19 0 0 0-1.27 3.24 89.36 89.36 0 0 0-8.68 9.16c-.96.06-1.92.22-2.85.47a.08.08 0 0 1-.06-.03.07.07 0 0 1 0-.09c.05-.08 5.16-7.83 12.78-12.84a.08.08 0 0 1 .08 0zm16.6 7.59a22.1 22.1 0 0 1-.18 4.15c-.28 2.13-1.02 5.08-2.9 7.1a7.57 7.57 0 0 1-5.77 2.34h-.2c-6.2-.1-7.8-3.52-8.76-5.56l-.05-.1c-1-2.13-2.7-8.13 3.17-17.72 0-.01.8-1.53 2.29-1.53.18 0 .37.02.55.06.48.09.9.38 1.15.81.27.6.28 1.27.03 1.87-.29.77-1.36 1.54-2.53 1.82a.1.1 0 0 1-.08 0 .08.08 0 0 1 0-.08c.02-.07.77-1.56.88-1.76a.7.7 0 0 0 .12-.46.33.33 0 0 0-.16-.22.1.1 0 0 0-.05 0c-.06 0-.2.07-.44.5 0 .07-3.51 6.75-3.3 11.7.22 4.8 2.84 7.6 7.23 7.67a6.2 6.2 0 0 0 4.83-1.82c1.54-1.63 2.2-4.21 1.97-7.68 0-.04.03-.07.06-.08.74-.24 1.43-.6 2.07-1.04a.08.08 0 0 1 .07 0v.03zm83.6-3.06c-1.38-.04-2.7.5-3.67 1.47a5.1 5.1 0 0 0-1.46 3.96c.04 2.77 2.33 4.99 5.13 4.95 1.73 0 3.38-.72 4.54-2l3.57 3.52a10.74 10.74 0 0 1-8.1 3.55 10.87 10.87 0 0 1-7.9-3.14 10.2 10.2 0 0 1 .2-14.49l.02-.01a11.23 11.23 0 0 1 15.79.64l-3.58 3.5a6.15 6.15 0 0 0-4.54-1.95zm18.23 10H753v4.94h-19v-3.55l10.76-10.96h-9.7v-4.94h17.55v3.98l-10 10.4z"/></defs><g><g transform="translate(-598 -3278)"><use fill="#fff" xlink:href="#xqnqa"/></g></g></svg>